<svg class="rich-terminal" viewBox="0 0 1848 1026.0" xmlns="http://www.w3.org/2000/svg">
    <!-- Generated with Rich https://www.textualize.io -->
    <style>

    @font-face {
        font-family: "Fira Code";
        src: local("FiraCode-Regular"),
                url("https://cdnjs.cloudflare.com/ajax/libs/firacode/6.2.0/woff2/FiraCode-Regular.woff2") format("woff2"),
                url("https://cdnjs.cloudflare.com/ajax/libs/firacode/6.2.0/woff/FiraCode-Regular.woff") format("woff");
        font-style: normal;
        font-weight: 400;
    }
    @font-face {
        font-family: "Fira Code";
        src: local("FiraCode-Bold"),
                url("https://cdnjs.cloudflare.com/ajax/libs/firacode/6.2.0/woff2/FiraCode-Bold.woff2") format("woff2"),
                url("https://cdnjs.cloudflare.com/ajax/libs/firacode/6.2.0/woff/FiraCode-Bold.woff") format("woff");
        font-style: bold;
        font-weight: 700;
    }

    .terminal-3785890322-matrix {
        font-family: Fira Code, monospace;
        font-size: 20px;
        line-height: 24.4px;
        font-variant-east-asian: full-width;
    }

    .terminal-3785890322-title {
        font-size: 18px;
        font-weight: bold;
        font-family: arial;
    }

    .terminal-3785890322-r1 { fill: #c5c8c6 }
.terminal-3785890322-r2 { fill: #837c6d }
.terminal-3785890322-r3 { fill: #e9e5db }
.terminal-3785890322-r4 { fill: #4a4539 }
.terminal-3785890322-r5 { fill: #b5afa2 }
.terminal-3785890322-r6 { fill: #38c96a }
.terminal-3785890322-r7 { fill: #6ea8d8 }
    </style>

    <defs>
    <clipPath id="terminal-3785890322-clip-terminal">
      <rect x="0" y="0" width="1829.0" height="975.0" />
    </clipPath>
    <clipPath id="terminal-3785890322-line-0">
    <rect x="0" y="1.5" width="1830" height="24.65"/>
            </clipPath>
<clipPath id="terminal-3785890322-line-1">
    <rect x="0" y="25.9" width="1830" height="24.65"/>
            </clipPath>
<clipPath id="terminal-3785890322-line-2">
    <rect x="0" y="50.3" width="1830" height="24.65"/>
            </clipPath>
<clipPath id="terminal-3785890322-line-3">
    <rect x="0" y="74.7" width="1830" height="24.65"/>
            </clipPath>
<clipPath id="terminal-3785890322-line-4">
    <rect x="0" y="99.1" width="1830" height="24.65"/>
            </clipPath>
<clipPath id="terminal-3785890322-line-5">
    <rect x="0" y="123.5" width="1830" height="24.65"/>
            </clipPath>
<clipPath id="terminal-3785890322-line-6">
    <rect x="0" y="147.9" width="1830" height="24.65"/>
            </clipPath>
<clipPath id="terminal-3785890322-line-7">
    <rect x="0" y="172.3" width="1830" height="24.65"/>
            </clipPath>
<clipPath id="terminal-3785890322-line-8">
    <rect x="0" y="196.7" width="1830" height="24.65"/>
            </clipPath>
<clipPath id="terminal-3785890322-line-9">
    <rect x="0" y="221.1" width="1830" height="24.65"/>
            </clipPath>
<clipPath id="terminal-3785890322-line-10">
    <rect x="0" y="245.5" width="1830" height="24.65"/>
            </clipPath>
<clipPath id="terminal-3785890322-line-11">
    <rect x="0" y="269.9" width="1830" height="24.65"/>
            </clipPath>
<clipPath id="terminal-3785890322-line-12">
    <rect x="0" y="294.3" width="1830" height="24.65"/>
            </clipPath>
<clipPath id="terminal-3785890322-line-13">
    <rect x="0" y="318.7" width="1830" height="24.65"/>
            </clipPath>
<clipPath id="terminal-3785890322-line-14">
    <rect x="0" y="343.1" width="1830" height="24.65"/>
            </clipPath>
<clipPath id="terminal-3785890322-line-15">
    <rect x="0" y="367.5" width="1830" height="24.65"/>
            </clipPath>
<clipPath id="terminal-3785890322-line-16">
    <rect x="0" y="391.9" width="1830" height="24.65"/>
            </clipPath>
<clipPath id="terminal-3785890322-line-17">
    <rect x="0" y="416.3" width="1830" height="24.65"/>
            </clipPath>
<clipPath id="terminal-3785890322-line-18">
    <rect x="0" y="440.7" width="1830" height="24.65"/>
            </clipPath>
<clipPath id="terminal-3785890322-line-19">
    <rect x="0" y="465.1" width="1830" height="24.65"/>
            </clipPath>
<clipPath id="terminal-3785890322-line-20">
    <rect x="0" y="489.5" width="1830" height="24.65"/>
            </clipPath>
<clipPath id="terminal-3785890322-line-21">
    <rect x="0" y="513.9" width="1830" height="24.65"/>
            </clipPath>
<clipPath id="terminal-3785890322-line-22">
    <rect x="0" y="538.3" width="1830" height="24.65"/>
            </clipPath>
<clipPath id="terminal-3785890322-line-23">
    <rect x="0" y="562.7" width="1830" height="24.65"/>
            </clipPath>
<clipPath id="terminal-3785890322-line-24">
    <rect x="0" y="587.1" width="1830" height="24.65"/>
            </clipPath>
<clipPath id="terminal-3785890322-line-25">
    <rect x="0" y="611.5" width="1830" height="24.65"/>
            </clipPath>
<clipPath id="terminal-3785890322-line-26">
    <rect x="0" y="635.9" width="1830" height="24.65"/>
            </clipPath>
<clipPath id="terminal-3785890322-line-27">
    <rect x="0" y="660.3" width="1830" height="24.65"/>
            </clipPath>
<clipPath id="terminal-3785890322-line-28">
    <rect x="0" y="684.7" width="1830" height="24.65"/>
            </clipPath>
<clipPath id="terminal-3785890322-line-29">
    <rect x="0" y="709.1" width="1830" height="24.65"/>
            </clipPath>
<clipPath id="terminal-3785890322-line-30">
    <rect x="0" y="733.5" width="1830" height="24.65"/>
            </clipPath>
<clipPath id="terminal-3785890322-line-31">
    <rect x="0" y="757.9" width="1830" height="24.65"/>
            </clipPath>
<clipPath id="terminal-3785890322-line-32">
    <rect x="0" y="782.3" width="1830" height="24.65"/>
            </clipPath>
<clipPath id="terminal-3785890322-line-33">
    <rect x="0" y="806.7" width="1830" height="24.65"/>
            </clipPath>
<clipPath id="terminal-3785890322-line-34">
    <rect x="0" y="831.1" width="1830" height="24.65"/>
            </clipPath>
<clipPath id="terminal-3785890322-line-35">
    <rect x="0" y="855.5" width="1830" height="24.65"/>
            </clipPath>
<clipPath id="terminal-3785890322-line-36">
    <rect x="0" y="879.9" width="1830" height="24.65"/>
            </clipPath>
<clipPath id="terminal-3785890322-line-37">
    <rect x="0" y="904.3" width="1830" height="24.65"/>
            </clipPath>
<clipPath id="terminal-3785890322-line-38">
    <rect x="0" y="928.7" width="1830" height="24.65"/>
            </clipPath>
    </defs>

    <rect fill="#292929" stroke="rgba(255,255,255,0.35)" stroke-width="1" x="1" y="1" width="1846" height="1024" rx="8"/><text class="terminal-3785890322-title" fill="#c5c8c6" text-anchor="middle" x="923" y="27">Local&#160;Operator</text>
            <g transform="translate(26,22)">
            <circle cx="0" cy="0" r="7" fill="#ff5f57"/>
            <circle cx="22" cy="0" r="7" fill="#febc2e"/>
            <circle cx="44" cy="0" r="7" fill="#28c840"/>
            </g>
        
    <g transform="translate(9, 41)" clip-path="url(#terminal-3785890322-clip-terminal)">
    <rect fill="#14110c" x="0" y="1.5" width="1830" height="24.65" shape-rendering="crispEdges"/><rect fill="#14110c" x="0" y="25.9" width="12.2" height="24.65" shape-rendering="crispEdges"/><rect fill="#14110c" x="12.2" y="25.9" width="1805.6" height="24.65" shape-rendering="crispEdges"/><rect fill="#14110c" x="1817.8" y="25.9" width="12.2" height="24.65" shape-rendering="crispEdges"/><rect fill="#14110c" x="0" y="50.3" width="12.2" height="24.65" shape-rendering="crispEdges"/><rect fill="#14110c" x="12.2" y="50.3" width="12.2" height="24.65" shape-rendering="crispEdges"/><rect fill="#14110c" x="24.4" y="50.3" width="24.4" height="24.65" shape-rendering="crispEdges"/><rect fill="#14110c" x="48.8" y="50.3" width="744.2" height="24.65" shape-rendering="crispEdges"/><rect fill="#14110c" x="793" y="50.3" width="1012.6" height="24.65" shape-rendering="crispEdges"/><rect fill="#14110c" x="1805.6" y="50.3" width="12.2" height="24.65" shape-rendering="crispEdges"/><rect fill="#14110c" x="1817.8" y="50.3" width="12.2" height="24.65" shape-rendering="crispEdges"/><rect fill="#14110c" x="0" y="74.7" width="12.2" height="24.65" shape-rendering="crispEdges"/><rect fill="#14110c" x="12.2" y="74.7" width="12.2" height="24.65" shape-rendering="crispEdges"/><rect fill="#14110c" x="24.4" y="74.7" width="1793.4" height="24.65" shape-rendering="crispEdges"/><rect fill="#14110c" x="1817.8" y="74.7" width="12.2" height="24.65" shape-rendering="crispEdges"/><rect fill="#14110c" x="0" y="99.1" width="12.2" height="24.65" shape-rendering="crispEdges"/><rect fill="#14110c" x="12.2" y="99.1" width="12.2" height="24.65" shape-rendering="crispEdges"/><rect fill="#14110c" x="24.4" y="99.1" width="597.8" height="24.65" shape-rendering="crispEdges"/><rect fill="#14110c" x="622.2" y="99.1" width="1183.4" height="24.65" shape-rendering="crispEdges"/><rect fill="#14110c" x="1805.6" y="99.1" width="12.2" height="24.65" shape-rendering="crispEdges"/><rect fill="#14110c" x="1817.8" y="99.1" width="12.2" height="24.65" shape-rendering="crispEdges"/><rect fill="#14110c" x="0" y="123.5" width="12.2" height="24.65" shape-rendering="crispEdges"/><rect fill="#14110c" x="12.2" y="123.5" width="12.2" height="24.65" shape-rendering="crispEdges"/><rect fill="#14110c" x="24.4" y="123.5" width="1793.4" height="24.65" shape-rendering="crispEdges"/><rect fill="#14110c" x="1817.8" y="123.5" width="12.2" height="24.65" shape-rendering="crispEdges"/><rect fill="#14110c" x="0" y="147.9" width="12.2" height="24.65" shape-rendering="crispEdges"/><rect fill="#14110c" x="12.2" y="147.9" width="12.2" height="24.65" shape-rendering="crispEdges"/><rect fill="#14110c" x="24.4" y="147.9" width="1793.4" height="24.65" shape-rendering="crispEdges"/><rect fill="#14110c" x="1817.8" y="147.9" width="12.2" height="24.65" shape-rendering="crispEdges"/><rect fill="#14110c" x="0" y="172.3" width="12.2" height="24.65" shape-rendering="crispEdges"/><rect fill="#14110c" x="12.2" y="172.3" width="12.2" height="24.65" shape-rendering="crispEdges"/><rect fill="#14110c" x="24.4" y="172.3" width="1793.4" height="24.65" shape-rendering="crispEdges"/><rect fill="#14110c" x="1817.8" y="172.3" width="12.2" height="24.65" shape-rendering="crispEdges"/><rect fill="#14110c" x="0" y="196.7" width="12.2" height="24.65" shape-rendering="crispEdges"/><rect fill="#14110c" x="12.2" y="196.7" width="12.2" height="24.65" shape-rendering="crispEdges"/><rect fill="#14110c" x="24.4" y="196.7" width="1793.4" height="24.65" shape-rendering="crispEdges"/><rect fill="#14110c" x="1817.8" y="196.7" width="12.2" height="24.65" shape-rendering="crispEdges"/><rect fill="#14110c" x="0" y="221.1" width="12.2" height="24.65" shape-rendering="crispEdges"/><rect fill="#14110c" x="12.2" y="221.1" width="12.2" height="24.65" shape-rendering="crispEdges"/><rect fill="#14110c" x="24.4" y="221.1" width="1793.4" height="24.65" shape-rendering="crispEdges"/><rect fill="#14110c" x="1817.8" y="221.1" width="12.2" height="24.65" shape-rendering="crispEdges"/><rect fill="#14110c" x="0" y="245.5" width="12.2" height="24.65" shape-rendering="crispEdges"/><rect fill="#14110c" x="12.2" y="245.5" width="1805.6" height="24.65" shape-rendering="crispEdges"/><rect fill="#14110c" x="1817.8" y="245.5" width="12.2" height="24.65" shape-rendering="crispEdges"/><rect fill="#14110c" x="0" y="269.9" width="12.2" height="24.65" shape-rendering="crispEdges"/><rect fill="#302a20" x="12.2" y="269.9" width="1805.6" height="24.65" shape-rendering="crispEdges"/><rect fill="#14110c" x="1817.8" y="269.9" width="12.2" height="24.65" shape-rendering="crispEdges"/><rect fill="#14110c" x="0" y="294.3" width="12.2" height="24.65" shape-rendering="crispEdges"/><rect fill="#302a20" x="12.2" y="294.3" width="12.2" height="24.65" shape-rendering="crispEdges"/><rect fill="#302a20" x="24.4" y="294.3" width="353.8" height="24.65" shape-rendering="crispEdges"/><rect fill="#302a20" x="378.2" y="294.3" width="1427.4" height="24.65" shape-rendering="crispEdges"/><rect fill="#302a20" x="1805.6" y="294.3" width="12.2" height="24.65" shape-rendering="crispEdges"/><rect fill="#14110c" x="1817.8" y="294.3" width="12.2" height="24.65" shape-rendering="crispEdges"/><rect fill="#14110c" x="0" y="318.7" width="12.2" height="24.65" shape-rendering="crispEdges"/><rect fill="#302a20" x="12.2" y="318.7" width="12.2" height="24.65" shape-rendering="crispEdges"/><rect fill="#302a20" x="24.4" y="318.7" width="1781.2" height="24.65" shape-rendering="crispEdges"/><rect fill="#302a20" x="1805.6" y="318.7" width="12.2" height="24.65" shape-rendering="crispEdges"/><rect fill="#14110c" x="1817.8" y="318.7" width="12.2" height="24.65" shape-rendering="crispEdges"/><rect fill="#14110c" x="0" y="343.1" width="12.2" height="24.65" shape-rendering="crispEdges"/><rect fill="#302a20" x="12.2" y="343.1" width="12.2" height="24.65" shape-rendering="crispEdges"/><rect fill="#302a20" x="24.4" y="343.1" width="902.8" height="24.65" shape-rendering="crispEdges"/><rect fill="#302a20" x="927.2" y="343.1" width="878.4" height="24.65" shape-rendering="crispEdges"/><rect fill="#302a20" x="1805.6" y="343.1" width="12.2" height="24.65" shape-rendering="crispEdges"/><rect fill="#14110c" x="1817.8" y="343.1" width="12.2" height="24.65" shape-rendering="crispEdges"/><rect fill="#14110c" x="0" y="367.5" width="12.2" height="24.65" shape-rendering="crispEdges"/><rect fill="#302a20" x="12.2" y="367.5" width="12.2" height="24.65" shape-rendering="crispEdges"/><rect fill="#302a20" x="24.4" y="367.5" width="0" height="24.65" shape-rendering="crispEdges"/><rect fill="#302a20" x="24.4" y="367.5" width="1781.2" height="24.65" shape-rendering="crispEdges"/><rect fill="#302a20" x="1805.6" y="367.5" width="12.2" height="24.65" shape-rendering="crispEdges"/><rect fill="#14110c" x="1817.8" y="367.5" width="12.2" height="24.65" shape-rendering="crispEdges"/><rect fill="#14110c" x="0" y="391.9" width="12.2" height="24.65" shape-rendering="crispEdges"/><rect fill="#302a20" x="12.2" y="391.9" width="12.2" height="24.65" shape-rendering="crispEdges"/><rect fill="#302a20" x="24.4" y="391.9" width="24.4" height="24.65" shape-rendering="crispEdges"/><rect fill="#302a20" x="48.8" y="391.9" width="36.6" height="24.65" shape-rendering="crispEdges"/><rect fill="#302a20" x="85.4" y="391.9" width="292.8" height="24.65" shape-rendering="crispEdges"/><rect fill="#302a20" x="378.2" y="391.9" width="1427.4" height="24.65" shape-rendering="crispEdges"/><rect fill="#302a20" x="1805.6" y="391.9" width="12.2" height="24.65" shape-rendering="crispEdges"/><rect fill="#14110c" x="1817.8" y="391.9" width="12.2" height="24.65" shape-rendering="crispEdges"/><rect fill="#14110c" x="0" y="416.3" width="12.2" height="24.65" shape-rendering="crispEdges"/><rect fill="#302a20" x="12.2" y="416.3" width="12.2" height="24.65" shape-rendering="crispEdges"/><rect fill="#302a20" x="24.4" y="416.3" width="61" height="24.65" shape-rendering="crispEdges"/><rect fill="#302a20" x="85.4" y="416.3" width="134.2" height="24.65" shape-rendering="crispEdges"/><rect fill="#302a20" x="219.6" y="416.3" width="36.6" height="24.65" shape-rendering="crispEdges"/><rect fill="#302a20" x="256.2" y="416.3" width="1549.4" height="24.65" shape-rendering="crispEdges"/><rect fill="#302a20" x="1805.6" y="416.3" width="12.2" height="24.65" shape-rendering="crispEdges"/><rect fill="#14110c" x="1817.8" y="416.3" width="12.2" height="24.65" shape-rendering="crispEdges"/><rect fill="#14110c" x="0" y="440.7" width="12.2" height="24.65" shape-rendering="crispEdges"/><rect fill="#302a20" x="12.2" y="440.7" width="12.2" height="24.65" shape-rendering="crispEdges"/><rect fill="#302a20" x="24.4" y="440.7" width="61" height="24.65" shape-rendering="crispEdges"/><rect fill="#302a20" x="85.4" y="440.7" width="1720.2" height="24.65" shape-rendering="crispEdges"/><rect fill="#302a20" x="1805.6" y="440.7" width="12.2" height="24.65" shape-rendering="crispEdges"/><rect fill="#14110c" x="1817.8" y="440.7" width="12.2" height="24.65" shape-rendering="crispEdges"/><rect fill="#14110c" x="0" y="465.1" width="12.2" height="24.65" shape-rendering="crispEdges"/><rect fill="#302a20" x="12.2" y="465.1" width="12.2" height="24.65" shape-rendering="crispEdges"/><rect fill="#16221a" x="24.4" y="465.1" width="24.4" height="24.65" shape-rendering="crispEdges"/><rect fill="#16221a" x="48.8" y="465.1" width="36.6" height="24.65" shape-rendering="crispEdges"/><rect fill="#16221a" x="85.4" y="465.1" width="439.2" height="24.65" shape-rendering="crispEdges"/><rect fill="#16221a" x="524.6" y="465.1" width="1281" height="24.65" shape-rendering="crispEdges"/><rect fill="#302a20" x="1805.6" y="465.1" width="12.2" height="24.65" shape-rendering="crispEdges"/><rect fill="#14110c" x="1817.8" y="465.1" width="12.2" height="24.65" shape-rendering="crispEdges"/><rect fill="#14110c" x="0" y="489.5" width="12.2" height="24.65" shape-rendering="crispEdges"/><rect fill="#302a20" x="12.2" y="489.5" width="12.2" height="24.65" shape-rendering="crispEdges"/><rect fill="#16221a" x="24.4" y="489.5" width="61" height="24.65" shape-rendering="crispEdges"/><rect fill="#16221a" x="85.4" y="489.5" width="1708" height="24.65" shape-rendering="crispEdges"/><rect fill="#16221a" x="1793.4" y="489.5" width="12.2" height="24.65" shape-rendering="crispEdges"/><rect fill="#302a20" x="1805.6" y="489.5" width="12.2" height="24.65" shape-rendering="crispEdges"/><rect fill="#14110c" x="1817.8" y="489.5" width="12.2" height="24.65" shape-rendering="crispEdges"/><rect fill="#14110c" x="0" y="513.9" width="12.2" height="24.65" shape-rendering="crispEdges"/><rect fill="#302a20" x="12.2" y="513.9" width="12.2" height="24.65" shape-rendering="crispEdges"/><rect fill="#16221a" x="24.4" y="513.9" width="61" height="24.65" shape-rendering="crispEdges"/><rect fill="#16221a" x="85.4" y="513.9" width="1647" height="24.65" shape-rendering="crispEdges"/><rect fill="#16221a" x="1732.4" y="513.9" width="73.2" height="24.65" shape-rendering="crispEdges"/><rect fill="#302a20" x="1805.6" y="513.9" width="12.2" height="24.65" shape-rendering="crispEdges"/><rect fill="#14110c" x="1817.8" y="513.9" width="12.2" height="24.65" shape-rendering="crispEdges"/><rect fill="#14110c" x="0" y="538.3" width="12.2" height="24.65" shape-rendering="crispEdges"/><rect fill="#302a20" x="12.2" y="538.3" width="12.2" height="24.65" shape-rendering="crispEdges"/><rect fill="#16221a" x="24.4" y="538.3" width="61" height="24.65" shape-rendering="crispEdges"/><rect fill="#16221a" x="85.4" y="538.3" width="1683.6" height="24.65" shape-rendering="crispEdges"/><rect fill="#16221a" x="1769" y="538.3" width="36.6" height="24.65" shape-rendering="crispEdges"/><rect fill="#302a20" x="1805.6" y="538.3" width="12.2" height="24.65" shape-rendering="crispEdges"/><rect fill="#14110c" x="1817.8" y="538.3" width="12.2" height="24.65" shape-rendering="crispEdges"/><rect fill="#14110c" x="0" y="562.7" width="12.2" height="24.65" shape-rendering="crispEdges"/><rect fill="#302a20" x="12.2" y="562.7" width="12.2" height="24.65" shape-rendering="crispEdges"/><rect fill="#16221a" x="24.4" y="562.7" width="61" height="24.65" shape-rendering="crispEdges"/><rect fill="#16221a" x="85.4" y="562.7" width="1695.8" height="24.65" shape-rendering="crispEdges"/><rect fill="#16221a" x="1781.2" y="562.7" width="24.4" height="24.65" shape-rendering="crispEdges"/><rect fill="#302a20" x="1805.6" y="562.7" width="12.2" height="24.65" shape-rendering="crispEdges"/><rect fill="#14110c" x="1817.8" y="562.7" width="12.2" height="24.65" shape-rendering="crispEdges"/><rect fill="#14110c" x="0" y="587.1" width="12.2" height="24.65" shape-rendering="crispEdges"/><rect fill="#302a20" x="12.2" y="587.1" width="12.2" height="24.65" shape-rendering="crispEdges"/><rect fill="#16221a" x="24.4" y="587.1" width="61" height="24.65" shape-rendering="crispEdges"/><rect fill="#16221a" x="85.4" y="587.1" width="1695.8" height="24.65" shape-rendering="crispEdges"/><rect fill="#16221a" x="1781.2" y="587.1" width="24.4" height="24.65" shape-rendering="crispEdges"/><rect fill="#302a20" x="1805.6" y="587.1" width="12.2" height="24.65" shape-rendering="crispEdges"/><rect fill="#14110c" x="1817.8" y="587.1" width="12.2" height="24.65" shape-rendering="crispEdges"/><rect fill="#14110c" x="0" y="611.5" width="12.2" height="24.65" shape-rendering="crispEdges"/><rect fill="#302a20" x="12.2" y="611.5" width="12.2" height="24.65" shape-rendering="crispEdges"/><rect fill="#16221a" x="24.4" y="611.5" width="61" height="24.65" shape-rendering="crispEdges"/><rect fill="#16221a" x="85.4" y="611.5" width="183" height="24.65" shape-rendering="crispEdges"/><rect fill="#16221a" x="268.4" y="611.5" width="1537.2" height="24.65" shape-rendering="crispEdges"/><rect fill="#302a20" x="1805.6" y="611.5" width="12.2" height="24.65" shape-rendering="crispEdges"/><rect fill="#14110c" x="1817.8" y="611.5" width="12.2" height="24.65" shape-rendering="crispEdges"/><rect fill="#14110c" x="0" y="635.9" width="12.2" height="24.65" shape-rendering="crispEdges"/><rect fill="#302a20" x="12.2" y="635.9" width="12.2" height="24.65" shape-rendering="crispEdges"/><rect fill="#302a20" x="24.4" y="635.9" width="24.4" height="24.65" shape-rendering="crispEdges"/><rect fill="#302a20" x="48.8" y="635.9" width="36.6" height="24.65" shape-rendering="crispEdges"/><rect fill="#302a20" x="85.4" y="635.9" width="488" height="24.65" shape-rendering="crispEdges"/><rect fill="#302a20" x="573.4" y="635.9" width="1232.2" height="24.65" shape-rendering="crispEdges"/><rect fill="#302a20" x="1805.6" y="635.9" width="12.2" height="24.65" shape-rendering="crispEdges"/><rect fill="#14110c" x="1817.8" y="635.9" width="12.2" height="24.65" shape-rendering="crispEdges"/><rect fill="#14110c" x="0" y="660.3" width="12.2" height="24.65" shape-rendering="crispEdges"/><rect fill="#302a20" x="12.2" y="660.3" width="12.2" height="24.65" shape-rendering="crispEdges"/><rect fill="#302a20" x="24.4" y="660.3" width="61" height="24.65" shape-rendering="crispEdges"/><rect fill="#302a20" x="85.4" y="660.3" width="1720.2" height="24.65" shape-rendering="crispEdges"/><rect fill="#302a20" x="1805.6" y="660.3" width="12.2" height="24.65" shape-rendering="crispEdges"/><rect fill="#14110c" x="1817.8" y="660.3" width="12.2" height="24.65" shape-rendering="crispEdges"/><rect fill="#14110c" x="0" y="684.7" width="12.2" height="24.65" shape-rendering="crispEdges"/><rect fill="#302a20" x="12.2" y="684.7" width="12.2" height="24.65" shape-rendering="crispEdges"/><rect fill="#302a20" x="24.4" y="684.7" width="24.4" height="24.65" shape-rendering="crispEdges"/><rect fill="#302a20" x="48.8" y="684.7" width="36.6" height="24.65" shape-rendering="crispEdges"/><rect fill="#302a20" x="85.4" y="684.7" width="256.2" height="24.65" shape-rendering="crispEdges"/><rect fill="#302a20" x="341.6" y="684.7" width="1464" height="24.65" shape-rendering="crispEdges"/><rect fill="#302a20" x="1805.6" y="684.7" width="12.2" height="24.65" shape-rendering="crispEdges"/><rect fill="#14110c" x="1817.8" y="684.7" width="12.2" height="24.65" shape-rendering="crispEdges"/><rect fill="#14110c" x="0" y="709.1" width="12.2" height="24.65" shape-rendering="crispEdges"/><rect fill="#302a20" x="12.2" y="709.1" width="12.2" height="24.65" shape-rendering="crispEdges"/><rect fill="#302a20" x="24.4" y="709.1" width="61" height="24.65" shape-rendering="crispEdges"/><rect fill="#302a20" x="85.4" y="709.1" width="585.6" height="24.65" shape-rendering="crispEdges"/><rect fill="#302a20" x="671" y="709.1" width="1134.6" height="24.65" shape-rendering="crispEdges"/><rect fill="#302a20" x="1805.6" y="709.1" width="12.2" height="24.65" shape-rendering="crispEdges"/><rect fill="#14110c" x="1817.8" y="709.1" width="12.2" height="24.65" shape-rendering="crispEdges"/><rect fill="#14110c" x="0" y="733.5" width="12.2" height="24.65" shape-rendering="crispEdges"/><rect fill="#302a20" x="12.2" y="733.5" width="12.2" height="24.65" shape-rendering="crispEdges"/><rect fill="#302a20" x="24.4" y="733.5" width="0" height="24.65" shape-rendering="crispEdges"/><rect fill="#302a20" x="24.4" y="733.5" width="1781.2" height="24.65" shape-rendering="crispEdges"/><rect fill="#302a20" x="1805.6" y="733.5" width="12.2" height="24.65" shape-rendering="crispEdges"/><rect fill="#14110c" x="1817.8" y="733.5" width="12.2" height="24.65" shape-rendering="crispEdges"/><rect fill="#14110c" x="0" y="757.9" width="12.2" height="24.65" shape-rendering="crispEdges"/><rect fill="#302a20" x="12.2" y="757.9" width="12.2" height="24.65" shape-rendering="crispEdges"/><rect fill="#302a20" x="24.4" y="757.9" width="24.4" height="24.65" shape-rendering="crispEdges"/><rect fill="#302a20" x="48.8" y="757.9" width="61" height="24.65" shape-rendering="crispEdges"/><rect fill="#302a20" x="109.8" y="757.9" width="36.6" height="24.65" shape-rendering="crispEdges"/><rect fill="#302a20" x="146.4" y="757.9" width="36.6" height="24.65" shape-rendering="crispEdges"/><rect fill="#302a20" x="183" y="757.9" width="61" height="24.65" shape-rendering="crispEdges"/><rect fill="#302a20" x="244" y="757.9" width="36.6" height="24.65" shape-rendering="crispEdges"/><rect fill="#302a20" x="280.6" y="757.9" width="61" height="24.65" shape-rendering="crispEdges"/><rect fill="#302a20" x="341.6" y="757.9" width="85.4" height="24.65" shape-rendering="crispEdges"/><rect fill="#302a20" x="427" y="757.9" width="36.6" height="24.65" shape-rendering="crispEdges"/><rect fill="#302a20" x="463.6" y="757.9" width="36.6" height="24.65" shape-rendering="crispEdges"/><rect fill="#302a20" x="500.2" y="757.9" width="61" height="24.65" shape-rendering="crispEdges"/><rect fill="#302a20" x="561.2" y="757.9" width="1244.4" height="24.65" shape-rendering="crispEdges"/><rect fill="#302a20" x="1805.6" y="757.9" width="12.2" height="24.65" shape-rendering="crispEdges"/><rect fill="#14110c" x="1817.8" y="757.9" width="12.2" height="24.65" shape-rendering="crispEdges"/><rect fill="#14110c" x="0" y="782.3" width="12.2" height="24.65" shape-rendering="crispEdges"/><rect fill="#302a20" x="12.2" y="782.3" width="1805.6" height="24.65" shape-rendering="crispEdges"/><rect fill="#14110c" x="1817.8" y="782.3" width="12.2" height="24.65" shape-rendering="crispEdges"/><rect fill="#14110c" x="0" y="806.7" width="12.2" height="24.65" shape-rendering="crispEdges"/><rect fill="#1e1a14" x="12.2" y="806.7" width="1805.6" height="24.65" shape-rendering="crispEdges"/><rect fill="#14110c" x="1817.8" y="806.7" width="12.2" height="24.65" shape-rendering="crispEdges"/><rect fill="#14110c" x="0" y="831.1" width="12.2" height="24.65" shape-rendering="crispEdges"/><rect fill="#1e1a14" x="12.2" y="831.1" width="1805.6" height="24.65" shape-rendering="crispEdges"/><rect fill="#14110c" x="1817.8" y="831.1" width="12.2" height="24.65" shape-rendering="crispEdges"/><rect fill="#14110c" x="0" y="855.5" width="12.2" height="24.65" shape-rendering="crispEdges"/><rect fill="#1e1a14" x="12.2" y="855.5" width="12.2" height="24.65" shape-rendering="crispEdges"/><rect fill="#1e1a14" x="24.4" y="855.5" width="12.2" height="24.65" shape-rendering="crispEdges"/><rect fill="#1e1a14" x="36.6" y="855.5" width="12.2" height="24.65" shape-rendering="crispEdges"/><rect fill="#1e1a14" x="48.8" y="855.5" width="12.2" height="24.65" shape-rendering="crispEdges"/><rect fill="#1e1a14" x="61" y="855.5" width="280.6" height="24.65" shape-rendering="crispEdges"/><rect fill="#1e1a14" x="341.6" y="855.5" width="1451.8" height="24.65" shape-rendering="crispEdges"/><rect fill="#1e1a14" x="1793.4" y="855.5" width="12.2" height="24.65" shape-rendering="crispEdges"/><rect fill="#1e1a14" x="1805.6" y="855.5" width="12.2" height="24.65" shape-rendering="crispEdges"/><rect fill="#14110c" x="1817.8" y="855.5" width="12.2" height="24.65" shape-rendering="crispEdges"/><rect fill="#14110c" x="0" y="879.9" width="12.2" height="24.65" shape-rendering="crispEdges"/><rect fill="#1e1a14" x="12.2" y="879.9" width="12.2" height="24.65" shape-rendering="crispEdges"/><rect fill="#1e1a14" x="24.4" y="879.9" width="1781.2" height="24.65" shape-rendering="crispEdges"/><rect fill="#1e1a14" x="1805.6" y="879.9" width="12.2" height="24.65" shape-rendering="crispEdges"/><rect fill="#14110c" x="1817.8" y="879.9" width="12.2" height="24.65" shape-rendering="crispEdges"/><rect fill="#14110c" x="0" y="904.3" width="12.2" height="24.65" shape-rendering="crispEdges"/><rect fill="#1e1a14" x="12.2" y="904.3" width="12.2" height="24.65" shape-rendering="crispEdges"/><rect fill="#1e1a14" x="24.4" y="904.3" width="24.4" height="24.65" shape-rendering="crispEdges"/><rect fill="#1e1a14" x="48.8" y="904.3" width="122" height="24.65" shape-rendering="crispEdges"/><rect fill="#1e1a14" x="170.8" y="904.3" width="36.6" height="24.65" shape-rendering="crispEdges"/><rect fill="#1e1a14" x="207.4" y="904.3" width="24.4" height="24.65" shape-rendering="crispEdges"/><rect fill="#1e1a14" x="231.8" y="904.3" width="378.2" height="24.65" shape-rendering="crispEdges"/><rect fill="#1e1a14" x="610" y="904.3" width="1183.4" height="24.65" shape-rendering="crispEdges"/><rect fill="#1e1a14" x="1793.4" y="904.3" width="12.2" height="24.65" shape-rendering="crispEdges"/><rect fill="#1e1a14" x="1805.6" y="904.3" width="12.2" height="24.65" shape-rendering="crispEdges"/><rect fill="#14110c" x="1817.8" y="904.3" width="12.2" height="24.65" shape-rendering="crispEdges"/><rect fill="#14110c" x="0" y="928.7" width="12.2" height="24.65" shape-rendering="crispEdges"/><rect fill="#1e1a14" x="12.2" y="928.7" width="1805.6" height="24.65" shape-rendering="crispEdges"/><rect fill="#14110c" x="1817.8" y="928.7" width="12.2" height="24.65" shape-rendering="crispEdges"/><rect fill="#14110c" x="0" y="953.1" width="1830" height="24.65" shape-rendering="crispEdges"/>
    <g class="terminal-3785890322-matrix">
    <text class="terminal-3785890322-r1" x="1830" y="20" textLength="12.2" clip-path="url(#terminal-3785890322-line-0)">
</text><text class="terminal-3785890322-r1" x="1830" y="44.4" textLength="12.2" clip-path="url(#terminal-3785890322-line-1)">
</text><text class="terminal-3785890322-r2" x="24.4" y="68.8" textLength="24.4" clip-path="url(#terminal-3785890322-line-2)">▌&#160;</text><text class="terminal-3785890322-r3" x="48.8" y="68.8" textLength="744.2" clip-path="url(#terminal-3785890322-line-2)">give&#160;me&#160;an&#160;ask&#160;tool&#160;call&#160;where&#160;the&#160;description&#160;is&#160;really&#160;long</text><text class="terminal-3785890322-r1" x="1830" y="68.8" textLength="12.2" clip-path="url(#terminal-3785890322-line-2)">
</text><text class="terminal-3785890322-r1" x="1830" y="93.2" textLength="12.2" clip-path="url(#terminal-3785890322-line-3)">
</text><text class="terminal-3785890322-r3" x="24.4" y="117.6" textLength="597.8" clip-path="url(#terminal-3785890322-line-4)">Sure&#160;—&#160;here&#160;is&#160;one&#160;with&#160;paragraph-length&#160;options.</text><text class="terminal-3785890322-r1" x="1830" y="117.6" textLength="12.2" clip-path="url(#terminal-3785890322-line-4)">
</text><text class="terminal-3785890322-r1" x="1830" y="142" textLength="12.2" clip-path="url(#terminal-3785890322-line-5)">
</text><text class="terminal-3785890322-r1" x="1830" y="166.4" textLength="12.2" clip-path="url(#terminal-3785890322-line-6)">
</text><text class="terminal-3785890322-r1" x="1830" y="190.8" textLength="12.2" clip-path="url(#terminal-3785890322-line-7)">
</text><text class="terminal-3785890322-r1" x="1830" y="215.2" textLength="12.2" clip-path="url(#terminal-3785890322-line-8)">
</text><text class="terminal-3785890322-r1" x="1830" y="239.6" textLength="12.2" clip-path="url(#terminal-3785890322-line-9)">
</text><text class="terminal-3785890322-r1" x="1830" y="264" textLength="12.2" clip-path="url(#terminal-3785890322-line-10)">
</text><text class="terminal-3785890322-r1" x="1830" y="288.4" textLength="12.2" clip-path="url(#terminal-3785890322-line-11)">
</text><text class="terminal-3785890322-r3" x="24.4" y="312.8" textLength="353.8" clip-path="url(#terminal-3785890322-line-12)">the&#160;agent&#160;needs&#160;your&#160;decision</text><text class="terminal-3785890322-r1" x="1830" y="312.8" textLength="12.2" clip-path="url(#terminal-3785890322-line-12)">
</text><text class="terminal-3785890322-r4" x="24.4" y="337.2" textLength="1781.2" clip-path="url(#terminal-3785890322-line-13)">──────────────────────────────────────────────────────────────────────────────────────────────────────────────────────────────────────────────────</text><text class="terminal-3785890322-r1" x="1830" y="337.2" textLength="12.2" clip-path="url(#terminal-3785890322-line-13)">
</text><text class="terminal-3785890322-r3" x="24.4" y="361.6" textLength="902.8" clip-path="url(#terminal-3785890322-line-14)">Which&#160;rollout&#160;strategy&#160;should&#160;we&#160;use&#160;for&#160;the&#160;analytics&#160;recorder&#160;migration?</text><text class="terminal-3785890322-r1" x="1830" y="361.6" textLength="12.2" clip-path="url(#terminal-3785890322-line-14)">
</text><text class="terminal-3785890322-r1" x="1830" y="386" textLength="12.2" clip-path="url(#terminal-3785890322-line-15)">
</text><text class="terminal-3785890322-r4" x="48.8" y="410.4" textLength="36.6" clip-path="url(#terminal-3785890322-line-16)">1.&#160;</text><text class="terminal-3785890322-r3" x="85.4" y="410.4" textLength="292.8" clip-path="url(#terminal-3785890322-line-16)">Migrate&#160;in&#160;place&#160;on&#160;open</text><text class="terminal-3785890322-r1" x="1830" y="410.4" textLength="12.2" clip-path="url(#terminal-3785890322-line-16)">
</text><text class="terminal-3785890322-r5" x="85.4" y="434.8" textLength="134.2" clip-path="url(#terminal-3785890322-line-17)">recommended</text><text class="terminal-3785890322-r5" x="219.6" y="434.8" textLength="36.6" clip-path="url(#terminal-3785890322-line-17)">&#160;·&#160;</text><text class="terminal-3785890322-r5" x="256.2" y="434.8" textLength="1549.4" clip-path="url(#terminal-3785890322-line-17)">The&#160;store&#160;upgrades&#160;itself&#160;the&#160;first&#160;time&#160;a&#160;session&#160;opens&#160;it:&#160;`_migrate`&#160;runs&#160;an&#160;idempotent&#160;sequence&#160;of&#160;`ALTER&#160;TABLE&#160;ADD&#160;COLUMN`</text><text class="terminal-3785890322-r1" x="1830" y="434.8" textLength="12.2" clip-path="url(#terminal-3785890322-line-17)">
</text><text class="terminal-3785890322-r5" x="85.4" y="459.2" textLength="1720.2" clip-path="url(#terminal-3785890322-line-18)">statements&#160;for&#160;every&#160;column&#160;in&#160;`_MIGRATION_COLUMNS`&#160;that&#160;is&#160;not&#160;already&#160;present,&#160;each&#160;carrying&#160;a&#160;DEFAULT&#160;so&#160;rows&#160;written&#160;by&#160;older&#160;releases&#160;r…</text><text class="terminal-3785890322-r1" x="1830" y="459.2" textLength="12.2" clip-path="url(#terminal-3785890322-line-18)">
</text><text class="terminal-3785890322-r5" x="24.4" y="483.6" textLength="24.4" clip-path="url(#terminal-3785890322-line-19)">❯&#160;</text><text class="terminal-3785890322-r2" x="48.8" y="483.6" textLength="36.6" clip-path="url(#terminal-3785890322-line-19)">2.&#160;</text><text class="terminal-3785890322-r6" x="85.4" y="483.6" textLength="439.2" clip-path="url(#terminal-3785890322-line-19)">Rebuild&#160;the&#160;ledger&#160;into&#160;a&#160;fresh&#160;file</text><text class="terminal-3785890322-r1" x="1830" y="483.6" textLength="12.2" clip-path="url(#terminal-3785890322-line-19)">
</text><text class="terminal-3785890322-r5" x="85.4" y="508" textLength="1708" clip-path="url(#terminal-3785890322-line-20)">Create&#160;a&#160;new&#160;database&#160;alongside&#160;the&#160;old&#160;one,&#160;copy&#160;rows&#160;across&#160;with&#160;the&#160;new&#160;columns&#160;computed&#160;rather&#160;than&#160;defaulted,&#160;then&#160;atomically&#160;rename&#160;it</text><text class="terminal-3785890322-r1" x="1830" y="508" textLength="12.2" clip-path="url(#terminal-3785890322-line-20)">
</text><text class="terminal-3785890322-r5" x="85.4" y="532.4" textLength="1647" clip-path="url(#terminal-3785890322-line-21)">into&#160;place&#160;once&#160;the&#160;copy&#160;has&#160;been&#160;verified.&#160;This&#160;is&#160;the&#160;only&#160;option&#160;that&#160;can&#160;backfill&#160;a&#160;column&#160;whose&#160;correct&#160;historical&#160;value&#160;cannot&#160;be</text><text class="terminal-3785890322-r1" x="1830" y="532.4" textLength="12.2" clip-path="url(#terminal-3785890322-line-21)">
</text><text class="terminal-3785890322-r5" x="85.4" y="556.8" textLength="1683.6" clip-path="url(#terminal-3785890322-line-22)">expressed&#160;as&#160;a&#160;constant&#160;DEFAULT&#160;—&#160;for&#160;example&#160;a&#160;per-call&#160;cost&#160;that&#160;has&#160;to&#160;be&#160;recomputed&#160;from&#160;the&#160;stored&#160;token&#160;counts&#160;against&#160;a&#160;price&#160;table</text><text class="terminal-3785890322-r1" x="1830" y="556.8" textLength="12.2" clip-path="url(#terminal-3785890322-line-22)">
</text><text class="terminal-3785890322-r5" x="85.4" y="581.2" textLength="1695.8" clip-path="url(#terminal-3785890322-line-23)">the&#160;old&#160;release&#160;never&#160;had.&#160;It&#160;is&#160;also&#160;the&#160;slowest&#160;and&#160;the&#160;most&#160;dangerous:&#160;several&#160;`lop`&#160;sessions&#160;write&#160;to&#160;the&#160;one&#160;file&#160;concurrently,&#160;so&#160;the</text><text class="terminal-3785890322-r1" x="1830" y="581.2" textLength="12.2" clip-path="url(#terminal-3785890322-line-23)">
</text><text class="terminal-3785890322-r5" x="85.4" y="605.6" textLength="1695.8" clip-path="url(#terminal-3785890322-line-24)">rename&#160;has&#160;to&#160;be&#160;coordinated&#160;against&#160;live&#160;writers&#160;or&#160;a&#160;session&#160;that&#160;held&#160;the&#160;old&#160;connection&#160;will&#160;keep&#160;committing&#160;into&#160;the&#160;old&#160;file,&#160;and&#160;the</text><text class="terminal-3785890322-r1" x="1830" y="605.6" textLength="12.2" clip-path="url(#terminal-3785890322-line-24)">
</text><text class="terminal-3785890322-r5" x="85.4" y="630" textLength="183" clip-path="url(#terminal-3785890322-line-25)">loss&#160;is&#160;silent.</text><text class="terminal-3785890322-r1" x="1830" y="630" textLength="12.2" clip-path="url(#terminal-3785890322-line-25)">
</text><text class="terminal-3785890322-r4" x="48.8" y="654.4" textLength="36.6" clip-path="url(#terminal-3785890322-line-26)">3.&#160;</text><text class="terminal-3785890322-r3" x="85.4" y="654.4" textLength="488" clip-path="url(#terminal-3785890322-line-26)">Version&#160;the&#160;columns&#160;and&#160;read&#160;both&#160;shapes</text><text class="terminal-3785890322-r1" x="1830" y="654.4" textLength="12.2" clip-path="url(#terminal-3785890322-line-26)">
</text><text class="terminal-3785890322-r5" x="85.4" y="678.8" textLength="1720.2" clip-path="url(#terminal-3785890322-line-27)">Leave&#160;every&#160;existing&#160;database&#160;exactly&#160;as&#160;it&#160;is&#160;and&#160;teach&#160;the&#160;read&#160;path&#160;to&#160;tolerate&#160;either&#160;shape:&#160;the&#160;aggregation&#160;queries&#160;select&#160;the&#160;new&#160;colu…</text><text class="terminal-3785890322-r1" x="1830" y="678.8" textLength="12.2" clip-path="url(#terminal-3785890322-line-27)">
</text><text class="terminal-3785890322-r4" x="48.8" y="703.2" textLength="36.6" clip-path="url(#terminal-3785890322-line-28)">4.&#160;</text><text class="terminal-3785890322-r3" x="85.4" y="703.2" textLength="256.2" clip-path="url(#terminal-3785890322-line-28)">Other&#160;(type&#160;your&#160;own)</text><text class="terminal-3785890322-r1" x="1830" y="703.2" textLength="12.2" clip-path="url(#terminal-3785890322-line-28)">
</text><text class="terminal-3785890322-r5" x="85.4" y="727.6" textLength="585.6" clip-path="url(#terminal-3785890322-line-29)">an&#160;answer&#160;that&#160;is&#160;not&#160;on&#160;the&#160;list&#160;—&#160;type&#160;it&#160;here</text><text class="terminal-3785890322-r1" x="1830" y="727.6" textLength="12.2" clip-path="url(#terminal-3785890322-line-29)">
</text><text class="terminal-3785890322-r1" x="1830" y="752" textLength="12.2" clip-path="url(#terminal-3785890322-line-30)">
</text><text class="terminal-3785890322-r5" x="24.4" y="776.4" textLength="24.4" clip-path="url(#terminal-3785890322-line-31)">↑↓</text><text class="terminal-3785890322-r2" x="48.8" y="776.4" textLength="61" clip-path="url(#terminal-3785890322-line-31)">&#160;move</text><text class="terminal-3785890322-r2" x="109.8" y="776.4" textLength="36.6" clip-path="url(#terminal-3785890322-line-31)">&#160;·&#160;</text><text class="terminal-3785890322-r5" x="146.4" y="776.4" textLength="36.6" clip-path="url(#terminal-3785890322-line-31)">1-9</text><text class="terminal-3785890322-r2" x="183" y="776.4" textLength="61" clip-path="url(#terminal-3785890322-line-31)">&#160;jump</text><text class="terminal-3785890322-r2" x="244" y="776.4" textLength="36.6" clip-path="url(#terminal-3785890322-line-31)">&#160;·&#160;</text><text class="terminal-3785890322-r5" x="280.6" y="776.4" textLength="61" clip-path="url(#terminal-3785890322-line-31)">enter</text><text class="terminal-3785890322-r2" x="341.6" y="776.4" textLength="85.4" clip-path="url(#terminal-3785890322-line-31)">&#160;answer</text><text class="terminal-3785890322-r2" x="427" y="776.4" textLength="36.6" clip-path="url(#terminal-3785890322-line-31)">&#160;·&#160;</text><text class="terminal-3785890322-r5" x="463.6" y="776.4" textLength="36.6" clip-path="url(#terminal-3785890322-line-31)">esc</text><text class="terminal-3785890322-r2" x="500.2" y="776.4" textLength="61" clip-path="url(#terminal-3785890322-line-31)">&#160;skip</text><text class="terminal-3785890322-r1" x="1830" y="776.4" textLength="12.2" clip-path="url(#terminal-3785890322-line-31)">
</text><text class="terminal-3785890322-r1" x="1830" y="800.8" textLength="12.2" clip-path="url(#terminal-3785890322-line-32)">
</text><text class="terminal-3785890322-r1" x="1830" y="825.2" textLength="12.2" clip-path="url(#terminal-3785890322-line-33)">
</text><text class="terminal-3785890322-r1" x="1830" y="849.6" textLength="12.2" clip-path="url(#terminal-3785890322-line-34)">
</text><text class="terminal-3785890322-r2" x="24.4" y="874" textLength="12.2" clip-path="url(#terminal-3785890322-line-35)">❯</text><text class="terminal-3785890322-r2" x="61" y="874" textLength="280.6" clip-path="url(#terminal-3785890322-line-35)">Message&#160;Local&#160;Operator…</text><text class="terminal-3785890322-r1" x="1830" y="874" textLength="12.2" clip-path="url(#terminal-3785890322-line-35)">
</text><text class="terminal-3785890322-r1" x="1830" y="898.4" textLength="12.2" clip-path="url(#terminal-3785890322-line-36)">
</text><text class="terminal-3785890322-r2" x="24.4" y="922.8" textLength="24.4" clip-path="url(#terminal-3785890322-line-37)">◆&#160;</text><text class="terminal-3785890322-r3" x="48.8" y="922.8" textLength="122" clip-path="url(#terminal-3785890322-line-37)">test/model</text><text class="terminal-3785890322-r4" x="170.8" y="922.8" textLength="36.6" clip-path="url(#terminal-3785890322-line-37)">&#160;›&#160;</text><text class="terminal-3785890322-r2" x="207.4" y="922.8" textLength="24.4" clip-path="url(#terminal-3785890322-line-37)">⌂&#160;</text><text class="terminal-3785890322-r7" x="231.8" y="922.8" textLength="378.2" clip-path="url(#terminal-3785890322-line-37)">~/workspace/repos/lo-ask-scroll</text><text class="terminal-3785890322-r1" x="1830" y="922.8" textLength="12.2" clip-path="url(#terminal-3785890322-line-37)">
</text><text class="terminal-3785890322-r1" x="1830" y="947.2" textLength="12.2" clip-path="url(#terminal-3785890322-line-38)">
</text>
    </g>
    </g>
</svg>
