<svg class="rich-terminal" viewBox="0 0 1238 489.2" xmlns="http://www.w3.org/2000/svg">
    <!-- Generated with Rich https://www.textualize.io -->
    <style>

    @font-face {
        font-family: "Fira Code";
        src: local("FiraCode-Regular"),
                url("https://cdnjs.cloudflare.com/ajax/libs/firacode/6.2.0/woff2/FiraCode-Regular.woff2") format("woff2"),
                url("https://cdnjs.cloudflare.com/ajax/libs/firacode/6.2.0/woff/FiraCode-Regular.woff") format("woff");
        font-style: normal;
        font-weight: 400;
    }
    @font-face {
        font-family: "Fira Code";
        src: local("FiraCode-Bold"),
                url("https://cdnjs.cloudflare.com/ajax/libs/firacode/6.2.0/woff2/FiraCode-Bold.woff2") format("woff2"),
                url("https://cdnjs.cloudflare.com/ajax/libs/firacode/6.2.0/woff/FiraCode-Bold.woff") format("woff");
        font-style: bold;
        font-weight: 700;
    }

    .terminal-2844516182-matrix {
        font-family: Fira Code, monospace;
        font-size: 20px;
        line-height: 24.4px;
        font-variant-east-asian: full-width;
    }

    .terminal-2844516182-title {
        font-size: 18px;
        font-weight: bold;
        font-family: arial;
    }

    .terminal-2844516182-r1 { fill: #c5c8c6 }
.terminal-2844516182-r2 { fill: #837c6d }
.terminal-2844516182-r3 { fill: #e9e5db }
.terminal-2844516182-r4 { fill: #1e1a14 }
.terminal-2844516182-r5 { fill: #4a4539 }
.terminal-2844516182-r6 { fill: #6ea8d8 }
.terminal-2844516182-r7 { fill: #b48cd6;font-weight: bold }
.terminal-2844516182-r8 { fill: #ef8078;font-weight: bold }
    </style>

    <defs>
    <clipPath id="terminal-2844516182-clip-terminal">
      <rect x="0" y="0" width="1219.0" height="438.2" />
    </clipPath>
    <clipPath id="terminal-2844516182-line-0">
    <rect x="0" y="1.5" width="1220" height="24.65"/>
            </clipPath>
<clipPath id="terminal-2844516182-line-1">
    <rect x="0" y="25.9" width="1220" height="24.65"/>
            </clipPath>
<clipPath id="terminal-2844516182-line-2">
    <rect x="0" y="50.3" width="1220" height="24.65"/>
            </clipPath>
<clipPath id="terminal-2844516182-line-3">
    <rect x="0" y="74.7" width="1220" height="24.65"/>
            </clipPath>
<clipPath id="terminal-2844516182-line-4">
    <rect x="0" y="99.1" width="1220" height="24.65"/>
            </clipPath>
<clipPath id="terminal-2844516182-line-5">
    <rect x="0" y="123.5" width="1220" height="24.65"/>
            </clipPath>
<clipPath id="terminal-2844516182-line-6">
    <rect x="0" y="147.9" width="1220" height="24.65"/>
            </clipPath>
<clipPath id="terminal-2844516182-line-7">
    <rect x="0" y="172.3" width="1220" height="24.65"/>
            </clipPath>
<clipPath id="terminal-2844516182-line-8">
    <rect x="0" y="196.7" width="1220" height="24.65"/>
            </clipPath>
<clipPath id="terminal-2844516182-line-9">
    <rect x="0" y="221.1" width="1220" height="24.65"/>
            </clipPath>
<clipPath id="terminal-2844516182-line-10">
    <rect x="0" y="245.5" width="1220" height="24.65"/>
            </clipPath>
<clipPath id="terminal-2844516182-line-11">
    <rect x="0" y="269.9" width="1220" height="24.65"/>
            </clipPath>
<clipPath id="terminal-2844516182-line-12">
    <rect x="0" y="294.3" width="1220" height="24.65"/>
            </clipPath>
<clipPath id="terminal-2844516182-line-13">
    <rect x="0" y="318.7" width="1220" height="24.65"/>
            </clipPath>
<clipPath id="terminal-2844516182-line-14">
    <rect x="0" y="343.1" width="1220" height="24.65"/>
            </clipPath>
<clipPath id="terminal-2844516182-line-15">
    <rect x="0" y="367.5" width="1220" height="24.65"/>
            </clipPath>
<clipPath id="terminal-2844516182-line-16">
    <rect x="0" y="391.9" width="1220" height="24.65"/>
            </clipPath>
    </defs>

    <rect fill="#292929" stroke="rgba(255,255,255,0.35)" stroke-width="1" x="1" y="1" width="1236" height="487.2" rx="8"/><text class="terminal-2844516182-title" fill="#c5c8c6" text-anchor="middle" x="618" y="27">Local&#160;Operator</text>
            <g transform="translate(26,22)">
            <circle cx="0" cy="0" r="7" fill="#ff5f57"/>
            <circle cx="22" cy="0" r="7" fill="#febc2e"/>
            <circle cx="44" cy="0" r="7" fill="#28c840"/>
            </g>
        
    <g transform="translate(9, 41)" clip-path="url(#terminal-2844516182-clip-terminal)">
    <rect fill="#14110c" x="0" y="1.5" width="1220" height="24.65" shape-rendering="crispEdges"/><rect fill="#14110c" x="0" y="25.9" width="12.2" height="24.65" shape-rendering="crispEdges"/><rect fill="#14110c" x="12.2" y="25.9" width="1195.6" height="24.65" shape-rendering="crispEdges"/><rect fill="#14110c" x="1207.8" y="25.9" width="12.2" height="24.65" shape-rendering="crispEdges"/><rect fill="#14110c" x="0" y="50.3" width="12.2" height="24.65" shape-rendering="crispEdges"/><rect fill="#14110c" x="12.2" y="50.3" width="12.2" height="24.65" shape-rendering="crispEdges"/><rect fill="#14110c" x="24.4" y="50.3" width="24.4" height="24.65" shape-rendering="crispEdges"/><rect fill="#14110c" x="48.8" y="50.3" width="24.4" height="24.65" shape-rendering="crispEdges"/><rect fill="#14110c" x="73.2" y="50.3" width="841.8" height="24.65" shape-rendering="crispEdges"/><rect fill="#14110c" x="915" y="50.3" width="280.6" height="24.65" shape-rendering="crispEdges"/><rect fill="#14110c" x="1195.6" y="50.3" width="12.2" height="24.65" shape-rendering="crispEdges"/><rect fill="#14110c" x="1207.8" y="50.3" width="12.2" height="24.65" shape-rendering="crispEdges"/><rect fill="#14110c" x="0" y="74.7" width="12.2" height="24.65" shape-rendering="crispEdges"/><rect fill="#14110c" x="12.2" y="74.7" width="12.2" height="24.65" shape-rendering="crispEdges"/><rect fill="#14110c" x="24.4" y="74.7" width="1183.4" height="24.65" shape-rendering="crispEdges"/><rect fill="#14110c" x="1207.8" y="74.7" width="12.2" height="24.65" shape-rendering="crispEdges"/><rect fill="#14110c" x="0" y="99.1" width="12.2" height="24.65" shape-rendering="crispEdges"/><rect fill="#14110c" x="12.2" y="99.1" width="12.2" height="24.65" shape-rendering="crispEdges"/><rect fill="#14110c" x="24.4" y="99.1" width="1183.4" height="24.65" shape-rendering="crispEdges"/><rect fill="#14110c" x="1207.8" y="99.1" width="12.2" height="24.65" shape-rendering="crispEdges"/><rect fill="#14110c" x="0" y="123.5" width="12.2" height="24.65" shape-rendering="crispEdges"/><rect fill="#14110c" x="12.2" y="123.5" width="12.2" height="24.65" shape-rendering="crispEdges"/><rect fill="#14110c" x="24.4" y="123.5" width="1183.4" height="24.65" shape-rendering="crispEdges"/><rect fill="#14110c" x="1207.8" y="123.5" width="12.2" height="24.65" shape-rendering="crispEdges"/><rect fill="#14110c" x="0" y="147.9" width="12.2" height="24.65" shape-rendering="crispEdges"/><rect fill="#14110c" x="12.2" y="147.9" width="12.2" height="24.65" shape-rendering="crispEdges"/><rect fill="#14110c" x="24.4" y="147.9" width="1183.4" height="24.65" shape-rendering="crispEdges"/><rect fill="#14110c" x="1207.8" y="147.9" width="12.2" height="24.65" shape-rendering="crispEdges"/><rect fill="#14110c" x="0" y="172.3" width="12.2" height="24.65" shape-rendering="crispEdges"/><rect fill="#14110c" x="12.2" y="172.3" width="12.2" height="24.65" shape-rendering="crispEdges"/><rect fill="#14110c" x="24.4" y="172.3" width="1183.4" height="24.65" shape-rendering="crispEdges"/><rect fill="#14110c" x="1207.8" y="172.3" width="12.2" height="24.65" shape-rendering="crispEdges"/><rect fill="#14110c" x="0" y="196.7" width="12.2" height="24.65" shape-rendering="crispEdges"/><rect fill="#14110c" x="12.2" y="196.7" width="12.2" height="24.65" shape-rendering="crispEdges"/><rect fill="#14110c" x="24.4" y="196.7" width="1183.4" height="24.65" shape-rendering="crispEdges"/><rect fill="#14110c" x="1207.8" y="196.7" width="12.2" height="24.65" shape-rendering="crispEdges"/><rect fill="#14110c" x="0" y="221.1" width="12.2" height="24.65" shape-rendering="crispEdges"/><rect fill="#14110c" x="12.2" y="221.1" width="12.2" height="24.65" shape-rendering="crispEdges"/><rect fill="#14110c" x="24.4" y="221.1" width="1183.4" height="24.65" shape-rendering="crispEdges"/><rect fill="#14110c" x="1207.8" y="221.1" width="12.2" height="24.65" shape-rendering="crispEdges"/><rect fill="#14110c" x="0" y="245.5" width="12.2" height="24.65" shape-rendering="crispEdges"/><rect fill="#14110c" x="12.2" y="245.5" width="12.2" height="24.65" shape-rendering="crispEdges"/><rect fill="#14110c" x="24.4" y="245.5" width="1183.4" height="24.65" shape-rendering="crispEdges"/><rect fill="#14110c" x="1207.8" y="245.5" width="12.2" height="24.65" shape-rendering="crispEdges"/><rect fill="#14110c" x="0" y="269.9" width="12.2" height="24.65" shape-rendering="crispEdges"/><rect fill="#14110c" x="12.2" y="269.9" width="1195.6" height="24.65" shape-rendering="crispEdges"/><rect fill="#14110c" x="1207.8" y="269.9" width="12.2" height="24.65" shape-rendering="crispEdges"/><rect fill="#14110c" x="0" y="294.3" width="12.2" height="24.65" shape-rendering="crispEdges"/><rect fill="#1e1a14" x="12.2" y="294.3" width="1195.6" height="24.65" shape-rendering="crispEdges"/><rect fill="#14110c" x="1207.8" y="294.3" width="12.2" height="24.65" shape-rendering="crispEdges"/><rect fill="#14110c" x="0" y="318.7" width="12.2" height="24.65" shape-rendering="crispEdges"/><rect fill="#1e1a14" x="12.2" y="318.7" width="12.2" height="24.65" shape-rendering="crispEdges"/><rect fill="#1e1a14" x="24.4" y="318.7" width="12.2" height="24.65" shape-rendering="crispEdges"/><rect fill="#1e1a14" x="36.6" y="318.7" width="12.2" height="24.65" shape-rendering="crispEdges"/><rect fill="#1e1a14" x="48.8" y="318.7" width="12.2" height="24.65" shape-rendering="crispEdges"/><rect fill="#e9e5db" x="61" y="318.7" width="12.2" height="24.65" shape-rendering="crispEdges"/><rect fill="#1e1a14" x="73.2" y="318.7" width="573.4" height="24.65" shape-rendering="crispEdges"/><rect fill="#1e1a14" x="646.6" y="318.7" width="536.8" height="24.65" shape-rendering="crispEdges"/><rect fill="#1e1a14" x="1183.4" y="318.7" width="12.2" height="24.65" shape-rendering="crispEdges"/><rect fill="#1e1a14" x="1195.6" y="318.7" width="12.2" height="24.65" shape-rendering="crispEdges"/><rect fill="#14110c" x="1207.8" y="318.7" width="12.2" height="24.65" shape-rendering="crispEdges"/><rect fill="#14110c" x="0" y="343.1" width="12.2" height="24.65" shape-rendering="crispEdges"/><rect fill="#1e1a14" x="12.2" y="343.1" width="12.2" height="24.65" shape-rendering="crispEdges"/><rect fill="#1e1a14" x="24.4" y="343.1" width="1171.2" height="24.65" shape-rendering="crispEdges"/><rect fill="#1e1a14" x="1195.6" y="343.1" width="12.2" height="24.65" shape-rendering="crispEdges"/><rect fill="#14110c" x="1207.8" y="343.1" width="12.2" height="24.65" shape-rendering="crispEdges"/><rect fill="#14110c" x="0" y="367.5" width="12.2" height="24.65" shape-rendering="crispEdges"/><rect fill="#1e1a14" x="12.2" y="367.5" width="12.2" height="24.65" shape-rendering="crispEdges"/><rect fill="#1e1a14" x="24.4" y="367.5" width="24.4" height="24.65" shape-rendering="crispEdges"/><rect fill="#1e1a14" x="48.8" y="367.5" width="122" height="24.65" shape-rendering="crispEdges"/><rect fill="#1e1a14" x="170.8" y="367.5" width="36.6" height="24.65" shape-rendering="crispEdges"/><rect fill="#1e1a14" x="207.4" y="367.5" width="24.4" height="24.65" shape-rendering="crispEdges"/><rect fill="#1e1a14" x="231.8" y="367.5" width="402.6" height="24.65" shape-rendering="crispEdges"/><rect fill="#1e1a14" x="634.4" y="367.5" width="378.2" height="24.65" shape-rendering="crispEdges"/><rect fill="#1e1a14" x="1012.6" y="367.5" width="24.4" height="24.65" shape-rendering="crispEdges"/><rect fill="#1e1a14" x="1037" y="367.5" width="97.6" height="24.65" shape-rendering="crispEdges"/><rect fill="#1e1a14" x="1134.6" y="367.5" width="36.6" height="24.65" shape-rendering="crispEdges"/><rect fill="#1e1a14" x="1171.2" y="367.5" width="12.2" height="24.65" shape-rendering="crispEdges"/><rect fill="#1e1a14" x="1183.4" y="367.5" width="12.2" height="24.65" shape-rendering="crispEdges"/><rect fill="#1e1a14" x="1195.6" y="367.5" width="12.2" height="24.65" shape-rendering="crispEdges"/><rect fill="#14110c" x="1207.8" y="367.5" width="12.2" height="24.65" shape-rendering="crispEdges"/><rect fill="#14110c" x="0" y="391.9" width="12.2" height="24.65" shape-rendering="crispEdges"/><rect fill="#1e1a14" x="12.2" y="391.9" width="1195.6" height="24.65" shape-rendering="crispEdges"/><rect fill="#14110c" x="1207.8" y="391.9" width="12.2" height="24.65" shape-rendering="crispEdges"/><rect fill="#14110c" x="0" y="416.3" width="1220" height="24.65" shape-rendering="crispEdges"/>
    <g class="terminal-2844516182-matrix">
    <text class="terminal-2844516182-r1" x="1220" y="20" textLength="12.2" clip-path="url(#terminal-2844516182-line-0)">
</text><text class="terminal-2844516182-r1" x="1220" y="44.4" textLength="12.2" clip-path="url(#terminal-2844516182-line-1)">
</text><text class="terminal-2844516182-r2" x="48.8" y="68.8" textLength="24.4" clip-path="url(#terminal-2844516182-line-2)">·&#160;</text><text class="terminal-2844516182-r2" x="73.2" y="68.8" textLength="841.8" clip-path="url(#terminal-2844516182-line-2)">context&#160;compacted&#160;·&#160;546.5k&#160;→&#160;223.7k&#160;tokens&#160;(59%&#160;smaller),&#160;via&#160;summary</text><text class="terminal-2844516182-r1" x="1220" y="68.8" textLength="12.2" clip-path="url(#terminal-2844516182-line-2)">
</text><text class="terminal-2844516182-r1" x="1220" y="93.2" textLength="12.2" clip-path="url(#terminal-2844516182-line-3)">
</text><text class="terminal-2844516182-r1" x="1220" y="117.6" textLength="12.2" clip-path="url(#terminal-2844516182-line-4)">
</text><text class="terminal-2844516182-r1" x="1220" y="142" textLength="12.2" clip-path="url(#terminal-2844516182-line-5)">
</text><text class="terminal-2844516182-r1" x="1220" y="166.4" textLength="12.2" clip-path="url(#terminal-2844516182-line-6)">
</text><text class="terminal-2844516182-r1" x="1220" y="190.8" textLength="12.2" clip-path="url(#terminal-2844516182-line-7)">
</text><text class="terminal-2844516182-r1" x="1220" y="215.2" textLength="12.2" clip-path="url(#terminal-2844516182-line-8)">
</text><text class="terminal-2844516182-r1" x="1220" y="239.6" textLength="12.2" clip-path="url(#terminal-2844516182-line-9)">
</text><text class="terminal-2844516182-r1" x="1220" y="264" textLength="12.2" clip-path="url(#terminal-2844516182-line-10)">
</text><text class="terminal-2844516182-r1" x="1220" y="288.4" textLength="12.2" clip-path="url(#terminal-2844516182-line-11)">
</text><text class="terminal-2844516182-r1" x="1220" y="312.8" textLength="12.2" clip-path="url(#terminal-2844516182-line-12)">
</text><text class="terminal-2844516182-r3" x="24.4" y="337.2" textLength="12.2" clip-path="url(#terminal-2844516182-line-13)">❯</text><text class="terminal-2844516182-r2" x="73.2" y="337.2" textLength="573.4" clip-path="url(#terminal-2844516182-line-13)">Message&#160;Local&#160;Operator…&#160;&#160;ctrl+v&#160;pastes&#160;an&#160;image</text><text class="terminal-2844516182-r1" x="1220" y="337.2" textLength="12.2" clip-path="url(#terminal-2844516182-line-13)">
</text><text class="terminal-2844516182-r1" x="1220" y="361.6" textLength="12.2" clip-path="url(#terminal-2844516182-line-14)">
</text><text class="terminal-2844516182-r2" x="24.4" y="386" textLength="24.4" clip-path="url(#terminal-2844516182-line-15)">◆&#160;</text><text class="terminal-2844516182-r3" x="48.8" y="386" textLength="122" clip-path="url(#terminal-2844516182-line-15)">test/model</text><text class="terminal-2844516182-r5" x="170.8" y="386" textLength="36.6" clip-path="url(#terminal-2844516182-line-15)">&#160;›&#160;</text><text class="terminal-2844516182-r2" x="207.4" y="386" textLength="24.4" clip-path="url(#terminal-2844516182-line-15)">⌂&#160;</text><text class="terminal-2844516182-r6" x="231.8" y="386" textLength="402.6" clip-path="url(#terminal-2844516182-line-15)">/private/tmp/lop-compaction-ruler</text><text class="terminal-2844516182-r2" x="1012.6" y="386" textLength="24.4" clip-path="url(#terminal-2844516182-line-15)">▦&#160;</text><text class="terminal-2844516182-r7" x="1037" y="386" textLength="97.6" clip-path="url(#terminal-2844516182-line-15)">223.7k/—</text><text class="terminal-2844516182-r5" x="1134.6" y="386" textLength="36.6" clip-path="url(#terminal-2844516182-line-15)">&#160;‹&#160;</text><text class="terminal-2844516182-r8" x="1171.2" y="386" textLength="12.2" clip-path="url(#terminal-2844516182-line-15)">!</text><text class="terminal-2844516182-r1" x="1220" y="386" textLength="12.2" clip-path="url(#terminal-2844516182-line-15)">
</text><text class="terminal-2844516182-r1" x="1220" y="410.4" textLength="12.2" clip-path="url(#terminal-2844516182-line-16)">
</text>
    </g>
    </g>
</svg>
