<svg class="rich-terminal" viewBox="0 0 1238 782.0" xmlns="http://www.w3.org/2000/svg">
    <!-- Generated with Rich https://www.textualize.io -->
    <style>

    @font-face {
        font-family: "Fira Code";
        src: local("FiraCode-Regular"),
                url("https://cdnjs.cloudflare.com/ajax/libs/firacode/6.2.0/woff2/FiraCode-Regular.woff2") format("woff2"),
                url("https://cdnjs.cloudflare.com/ajax/libs/firacode/6.2.0/woff/FiraCode-Regular.woff") format("woff");
        font-style: normal;
        font-weight: 400;
    }
    @font-face {
        font-family: "Fira Code";
        src: local("FiraCode-Bold"),
                url("https://cdnjs.cloudflare.com/ajax/libs/firacode/6.2.0/woff2/FiraCode-Bold.woff2") format("woff2"),
                url("https://cdnjs.cloudflare.com/ajax/libs/firacode/6.2.0/woff/FiraCode-Bold.woff") format("woff");
        font-style: bold;
        font-weight: 700;
    }

    .terminal-3504557957-matrix {
        font-family: Fira Code, monospace;
        font-size: 20px;
        line-height: 24.4px;
        font-variant-east-asian: full-width;
    }

    .terminal-3504557957-title {
        font-size: 18px;
        font-weight: bold;
        font-family: arial;
    }

    .terminal-3504557957-r1 { fill: #c5c8c6 }
.terminal-3504557957-r2 { fill: #837c6d }
.terminal-3504557957-r3 { fill: #e9e5db }
.terminal-3504557957-r4 { fill: #b5afa2 }
.terminal-3504557957-r5 { fill: #e0b04b }
.terminal-3504557957-r6 { fill: #4a4539 }
.terminal-3504557957-r7 { fill: #6ea8d8;font-weight: bold }
.terminal-3504557957-r8 { fill: #38c96a }
.terminal-3504557957-r9 { fill: #6ea8d8 }
.terminal-3504557957-r10 { fill: #ef8078;font-weight: bold }
    </style>

    <defs>
    <clipPath id="terminal-3504557957-clip-terminal">
      <rect x="0" y="0" width="1219.0" height="731.0" />
    </clipPath>
    <clipPath id="terminal-3504557957-line-0">
    <rect x="0" y="1.5" width="1220" height="24.65"/>
            </clipPath>
<clipPath id="terminal-3504557957-line-1">
    <rect x="0" y="25.9" width="1220" height="24.65"/>
            </clipPath>
<clipPath id="terminal-3504557957-line-2">
    <rect x="0" y="50.3" width="1220" height="24.65"/>
            </clipPath>
<clipPath id="terminal-3504557957-line-3">
    <rect x="0" y="74.7" width="1220" height="24.65"/>
            </clipPath>
<clipPath id="terminal-3504557957-line-4">
    <rect x="0" y="99.1" width="1220" height="24.65"/>
            </clipPath>
<clipPath id="terminal-3504557957-line-5">
    <rect x="0" y="123.5" width="1220" height="24.65"/>
            </clipPath>
<clipPath id="terminal-3504557957-line-6">
    <rect x="0" y="147.9" width="1220" height="24.65"/>
            </clipPath>
<clipPath id="terminal-3504557957-line-7">
    <rect x="0" y="172.3" width="1220" height="24.65"/>
            </clipPath>
<clipPath id="terminal-3504557957-line-8">
    <rect x="0" y="196.7" width="1220" height="24.65"/>
            </clipPath>
<clipPath id="terminal-3504557957-line-9">
    <rect x="0" y="221.1" width="1220" height="24.65"/>
            </clipPath>
<clipPath id="terminal-3504557957-line-10">
    <rect x="0" y="245.5" width="1220" height="24.65"/>
            </clipPath>
<clipPath id="terminal-3504557957-line-11">
    <rect x="0" y="269.9" width="1220" height="24.65"/>
            </clipPath>
<clipPath id="terminal-3504557957-line-12">
    <rect x="0" y="294.3" width="1220" height="24.65"/>
            </clipPath>
<clipPath id="terminal-3504557957-line-13">
    <rect x="0" y="318.7" width="1220" height="24.65"/>
            </clipPath>
<clipPath id="terminal-3504557957-line-14">
    <rect x="0" y="343.1" width="1220" height="24.65"/>
            </clipPath>
<clipPath id="terminal-3504557957-line-15">
    <rect x="0" y="367.5" width="1220" height="24.65"/>
            </clipPath>
<clipPath id="terminal-3504557957-line-16">
    <rect x="0" y="391.9" width="1220" height="24.65"/>
            </clipPath>
<clipPath id="terminal-3504557957-line-17">
    <rect x="0" y="416.3" width="1220" height="24.65"/>
            </clipPath>
<clipPath id="terminal-3504557957-line-18">
    <rect x="0" y="440.7" width="1220" height="24.65"/>
            </clipPath>
<clipPath id="terminal-3504557957-line-19">
    <rect x="0" y="465.1" width="1220" height="24.65"/>
            </clipPath>
<clipPath id="terminal-3504557957-line-20">
    <rect x="0" y="489.5" width="1220" height="24.65"/>
            </clipPath>
<clipPath id="terminal-3504557957-line-21">
    <rect x="0" y="513.9" width="1220" height="24.65"/>
            </clipPath>
<clipPath id="terminal-3504557957-line-22">
    <rect x="0" y="538.3" width="1220" height="24.65"/>
            </clipPath>
<clipPath id="terminal-3504557957-line-23">
    <rect x="0" y="562.7" width="1220" height="24.65"/>
            </clipPath>
<clipPath id="terminal-3504557957-line-24">
    <rect x="0" y="587.1" width="1220" height="24.65"/>
            </clipPath>
<clipPath id="terminal-3504557957-line-25">
    <rect x="0" y="611.5" width="1220" height="24.65"/>
            </clipPath>
<clipPath id="terminal-3504557957-line-26">
    <rect x="0" y="635.9" width="1220" height="24.65"/>
            </clipPath>
<clipPath id="terminal-3504557957-line-27">
    <rect x="0" y="660.3" width="1220" height="24.65"/>
            </clipPath>
<clipPath id="terminal-3504557957-line-28">
    <rect x="0" y="684.7" width="1220" height="24.65"/>
            </clipPath>
    </defs>

    <rect fill="#292929" stroke="rgba(255,255,255,0.35)" stroke-width="1" x="1" y="1" width="1236" height="780" rx="8"/><text class="terminal-3504557957-title" fill="#c5c8c6" text-anchor="middle" x="618" y="27">Local&#160;Operator</text>
            <g transform="translate(26,22)">
            <circle cx="0" cy="0" r="7" fill="#ff5f57"/>
            <circle cx="22" cy="0" r="7" fill="#febc2e"/>
            <circle cx="44" cy="0" r="7" fill="#28c840"/>
            </g>
        
    <g transform="translate(9, 41)" clip-path="url(#terminal-3504557957-clip-terminal)">
    <rect fill="#14110c" x="0" y="1.5" width="1220" height="24.65" shape-rendering="crispEdges"/><rect fill="#14110c" x="0" y="25.9" width="12.2" height="24.65" shape-rendering="crispEdges"/><rect fill="#14110c" x="12.2" y="25.9" width="12.2" height="24.65" shape-rendering="crispEdges"/><rect fill="#14110c" x="24.4" y="25.9" width="1183.4" height="24.65" shape-rendering="crispEdges"/><rect fill="#14110c" x="1207.8" y="25.9" width="12.2" height="24.65" shape-rendering="crispEdges"/><rect fill="#14110c" x="0" y="50.3" width="12.2" height="24.65" shape-rendering="crispEdges"/><rect fill="#14110c" x="12.2" y="50.3" width="12.2" height="24.65" shape-rendering="crispEdges"/><rect fill="#14110c" x="24.4" y="50.3" width="1183.4" height="24.65" shape-rendering="crispEdges"/><rect fill="#14110c" x="1207.8" y="50.3" width="12.2" height="24.65" shape-rendering="crispEdges"/><rect fill="#14110c" x="0" y="74.7" width="12.2" height="24.65" shape-rendering="crispEdges"/><rect fill="#14110c" x="12.2" y="74.7" width="12.2" height="24.65" shape-rendering="crispEdges"/><rect fill="#14110c" x="24.4" y="74.7" width="1183.4" height="24.65" shape-rendering="crispEdges"/><rect fill="#14110c" x="1207.8" y="74.7" width="12.2" height="24.65" shape-rendering="crispEdges"/><rect fill="#14110c" x="0" y="99.1" width="12.2" height="24.65" shape-rendering="crispEdges"/><rect fill="#14110c" x="12.2" y="99.1" width="12.2" height="24.65" shape-rendering="crispEdges"/><rect fill="#14110c" x="24.4" y="99.1" width="1183.4" height="24.65" shape-rendering="crispEdges"/><rect fill="#14110c" x="1207.8" y="99.1" width="12.2" height="24.65" shape-rendering="crispEdges"/><rect fill="#14110c" x="0" y="123.5" width="12.2" height="24.65" shape-rendering="crispEdges"/><rect fill="#14110c" x="12.2" y="123.5" width="12.2" height="24.65" shape-rendering="crispEdges"/><rect fill="#14110c" x="24.4" y="123.5" width="1183.4" height="24.65" shape-rendering="crispEdges"/><rect fill="#14110c" x="1207.8" y="123.5" width="12.2" height="24.65" shape-rendering="crispEdges"/><rect fill="#14110c" x="0" y="147.9" width="12.2" height="24.65" shape-rendering="crispEdges"/><rect fill="#14110c" x="12.2" y="147.9" width="12.2" height="24.65" shape-rendering="crispEdges"/><rect fill="#14110c" x="24.4" y="147.9" width="1183.4" height="24.65" shape-rendering="crispEdges"/><rect fill="#14110c" x="1207.8" y="147.9" width="12.2" height="24.65" shape-rendering="crispEdges"/><rect fill="#14110c" x="0" y="172.3" width="12.2" height="24.65" shape-rendering="crispEdges"/><rect fill="#14110c" x="12.2" y="172.3" width="12.2" height="24.65" shape-rendering="crispEdges"/><rect fill="#14110c" x="24.4" y="172.3" width="1183.4" height="24.65" shape-rendering="crispEdges"/><rect fill="#14110c" x="1207.8" y="172.3" width="12.2" height="24.65" shape-rendering="crispEdges"/><rect fill="#14110c" x="0" y="196.7" width="12.2" height="24.65" shape-rendering="crispEdges"/><rect fill="#14110c" x="12.2" y="196.7" width="12.2" height="24.65" shape-rendering="crispEdges"/><rect fill="#14110c" x="24.4" y="196.7" width="1183.4" height="24.65" shape-rendering="crispEdges"/><rect fill="#14110c" x="1207.8" y="196.7" width="12.2" height="24.65" shape-rendering="crispEdges"/><rect fill="#14110c" x="0" y="221.1" width="12.2" height="24.65" shape-rendering="crispEdges"/><rect fill="#14110c" x="12.2" y="221.1" width="12.2" height="24.65" shape-rendering="crispEdges"/><rect fill="#14110c" x="24.4" y="221.1" width="1183.4" height="24.65" shape-rendering="crispEdges"/><rect fill="#14110c" x="1207.8" y="221.1" width="12.2" height="24.65" shape-rendering="crispEdges"/><rect fill="#14110c" x="0" y="245.5" width="12.2" height="24.65" shape-rendering="crispEdges"/><rect fill="#14110c" x="12.2" y="245.5" width="12.2" height="24.65" shape-rendering="crispEdges"/><rect fill="#14110c" x="24.4" y="245.5" width="414.8" height="24.65" shape-rendering="crispEdges"/><rect fill="#14110c" x="439.2" y="245.5" width="329.4" height="24.65" shape-rendering="crispEdges"/><rect fill="#14110c" x="768.6" y="245.5" width="427" height="24.65" shape-rendering="crispEdges"/><rect fill="#14110c" x="1195.6" y="245.5" width="12.2" height="24.65" shape-rendering="crispEdges"/><rect fill="#14110c" x="1207.8" y="245.5" width="12.2" height="24.65" shape-rendering="crispEdges"/><rect fill="#14110c" x="0" y="269.9" width="12.2" height="24.65" shape-rendering="crispEdges"/><rect fill="#14110c" x="12.2" y="269.9" width="12.2" height="24.65" shape-rendering="crispEdges"/><rect fill="#14110c" x="24.4" y="269.9" width="0" height="24.65" shape-rendering="crispEdges"/><rect fill="#14110c" x="24.4" y="269.9" width="1171.2" height="24.65" shape-rendering="crispEdges"/><rect fill="#14110c" x="1195.6" y="269.9" width="12.2" height="24.65" shape-rendering="crispEdges"/><rect fill="#14110c" x="1207.8" y="269.9" width="12.2" height="24.65" shape-rendering="crispEdges"/><rect fill="#14110c" x="0" y="294.3" width="12.2" height="24.65" shape-rendering="crispEdges"/><rect fill="#14110c" x="12.2" y="294.3" width="12.2" height="24.65" shape-rendering="crispEdges"/><rect fill="#14110c" x="24.4" y="294.3" width="402.6" height="24.65" shape-rendering="crispEdges"/><rect fill="#14110c" x="427" y="294.3" width="85.4" height="24.65" shape-rendering="crispEdges"/><rect fill="#14110c" x="512.4" y="294.3" width="683.2" height="24.65" shape-rendering="crispEdges"/><rect fill="#14110c" x="1195.6" y="294.3" width="12.2" height="24.65" shape-rendering="crispEdges"/><rect fill="#14110c" x="1207.8" y="294.3" width="12.2" height="24.65" shape-rendering="crispEdges"/><rect fill="#14110c" x="0" y="318.7" width="12.2" height="24.65" shape-rendering="crispEdges"/><rect fill="#14110c" x="12.2" y="318.7" width="12.2" height="24.65" shape-rendering="crispEdges"/><rect fill="#14110c" x="24.4" y="318.7" width="402.6" height="24.65" shape-rendering="crispEdges"/><rect fill="#14110c" x="427" y="318.7" width="122" height="24.65" shape-rendering="crispEdges"/><rect fill="#14110c" x="549" y="318.7" width="646.6" height="24.65" shape-rendering="crispEdges"/><rect fill="#14110c" x="1195.6" y="318.7" width="12.2" height="24.65" shape-rendering="crispEdges"/><rect fill="#14110c" x="1207.8" y="318.7" width="12.2" height="24.65" shape-rendering="crispEdges"/><rect fill="#14110c" x="0" y="343.1" width="12.2" height="24.65" shape-rendering="crispEdges"/><rect fill="#14110c" x="12.2" y="343.1" width="12.2" height="24.65" shape-rendering="crispEdges"/><rect fill="#14110c" x="24.4" y="343.1" width="402.6" height="24.65" shape-rendering="crispEdges"/><rect fill="#14110c" x="427" y="343.1" width="341.6" height="24.65" shape-rendering="crispEdges"/><rect fill="#14110c" x="768.6" y="343.1" width="427" height="24.65" shape-rendering="crispEdges"/><rect fill="#14110c" x="1195.6" y="343.1" width="12.2" height="24.65" shape-rendering="crispEdges"/><rect fill="#14110c" x="1207.8" y="343.1" width="12.2" height="24.65" shape-rendering="crispEdges"/><rect fill="#14110c" x="0" y="367.5" width="12.2" height="24.65" shape-rendering="crispEdges"/><rect fill="#14110c" x="12.2" y="367.5" width="12.2" height="24.65" shape-rendering="crispEdges"/><rect fill="#14110c" x="24.4" y="367.5" width="402.6" height="24.65" shape-rendering="crispEdges"/><rect fill="#14110c" x="427" y="367.5" width="366" height="24.65" shape-rendering="crispEdges"/><rect fill="#14110c" x="793" y="367.5" width="402.6" height="24.65" shape-rendering="crispEdges"/><rect fill="#14110c" x="1195.6" y="367.5" width="12.2" height="24.65" shape-rendering="crispEdges"/><rect fill="#14110c" x="1207.8" y="367.5" width="12.2" height="24.65" shape-rendering="crispEdges"/><rect fill="#14110c" x="0" y="391.9" width="12.2" height="24.65" shape-rendering="crispEdges"/><rect fill="#14110c" x="12.2" y="391.9" width="12.2" height="24.65" shape-rendering="crispEdges"/><rect fill="#14110c" x="24.4" y="391.9" width="0" height="24.65" shape-rendering="crispEdges"/><rect fill="#14110c" x="24.4" y="391.9" width="1171.2" height="24.65" shape-rendering="crispEdges"/><rect fill="#14110c" x="1195.6" y="391.9" width="12.2" height="24.65" shape-rendering="crispEdges"/><rect fill="#14110c" x="1207.8" y="391.9" width="12.2" height="24.65" shape-rendering="crispEdges"/><rect fill="#14110c" x="0" y="416.3" width="12.2" height="24.65" shape-rendering="crispEdges"/><rect fill="#14110c" x="12.2" y="416.3" width="12.2" height="24.65" shape-rendering="crispEdges"/><rect fill="#14110c" x="24.4" y="416.3" width="402.6" height="24.65" shape-rendering="crispEdges"/><rect fill="#14110c" x="427" y="416.3" width="122" height="24.65" shape-rendering="crispEdges"/><rect fill="#14110c" x="549" y="416.3" width="170.8" height="24.65" shape-rendering="crispEdges"/><rect fill="#14110c" x="719.8" y="416.3" width="475.8" height="24.65" shape-rendering="crispEdges"/><rect fill="#14110c" x="1195.6" y="416.3" width="12.2" height="24.65" shape-rendering="crispEdges"/><rect fill="#14110c" x="1207.8" y="416.3" width="12.2" height="24.65" shape-rendering="crispEdges"/><rect fill="#14110c" x="0" y="440.7" width="12.2" height="24.65" shape-rendering="crispEdges"/><rect fill="#14110c" x="12.2" y="440.7" width="12.2" height="24.65" shape-rendering="crispEdges"/><rect fill="#14110c" x="24.4" y="440.7" width="402.6" height="24.65" shape-rendering="crispEdges"/><rect fill="#14110c" x="427" y="440.7" width="122" height="24.65" shape-rendering="crispEdges"/><rect fill="#14110c" x="549" y="440.7" width="146.4" height="24.65" shape-rendering="crispEdges"/><rect fill="#14110c" x="695.4" y="440.7" width="500.2" height="24.65" shape-rendering="crispEdges"/><rect fill="#14110c" x="1195.6" y="440.7" width="12.2" height="24.65" shape-rendering="crispEdges"/><rect fill="#14110c" x="1207.8" y="440.7" width="12.2" height="24.65" shape-rendering="crispEdges"/><rect fill="#14110c" x="0" y="465.1" width="12.2" height="24.65" shape-rendering="crispEdges"/><rect fill="#14110c" x="12.2" y="465.1" width="12.2" height="24.65" shape-rendering="crispEdges"/><rect fill="#14110c" x="24.4" y="465.1" width="402.6" height="24.65" shape-rendering="crispEdges"/><rect fill="#14110c" x="427" y="465.1" width="122" height="24.65" shape-rendering="crispEdges"/><rect fill="#14110c" x="549" y="465.1" width="48.8" height="24.65" shape-rendering="crispEdges"/><rect fill="#14110c" x="597.8" y="465.1" width="597.8" height="24.65" shape-rendering="crispEdges"/><rect fill="#14110c" x="1195.6" y="465.1" width="12.2" height="24.65" shape-rendering="crispEdges"/><rect fill="#14110c" x="1207.8" y="465.1" width="12.2" height="24.65" shape-rendering="crispEdges"/><rect fill="#14110c" x="0" y="489.5" width="12.2" height="24.65" shape-rendering="crispEdges"/><rect fill="#14110c" x="12.2" y="489.5" width="12.2" height="24.65" shape-rendering="crispEdges"/><rect fill="#14110c" x="24.4" y="489.5" width="0" height="24.65" shape-rendering="crispEdges"/><rect fill="#14110c" x="24.4" y="489.5" width="1171.2" height="24.65" shape-rendering="crispEdges"/><rect fill="#14110c" x="1195.6" y="489.5" width="12.2" height="24.65" shape-rendering="crispEdges"/><rect fill="#14110c" x="1207.8" y="489.5" width="12.2" height="24.65" shape-rendering="crispEdges"/><rect fill="#14110c" x="0" y="513.9" width="12.2" height="24.65" shape-rendering="crispEdges"/><rect fill="#14110c" x="12.2" y="513.9" width="12.2" height="24.65" shape-rendering="crispEdges"/><rect fill="#14110c" x="24.4" y="513.9" width="256.2" height="24.65" shape-rendering="crispEdges"/><rect fill="#14110c" x="280.6" y="513.9" width="24.4" height="24.65" shape-rendering="crispEdges"/><rect fill="#14110c" x="305" y="513.9" width="634.4" height="24.65" shape-rendering="crispEdges"/><rect fill="#14110c" x="939.4" y="513.9" width="256.2" height="24.65" shape-rendering="crispEdges"/><rect fill="#14110c" x="1195.6" y="513.9" width="12.2" height="24.65" shape-rendering="crispEdges"/><rect fill="#14110c" x="1207.8" y="513.9" width="12.2" height="24.65" shape-rendering="crispEdges"/><rect fill="#14110c" x="0" y="538.3" width="12.2" height="24.65" shape-rendering="crispEdges"/><rect fill="#14110c" x="12.2" y="538.3" width="134.2" height="24.65" shape-rendering="crispEdges"/><rect fill="#1e1a14" x="146.4" y="538.3" width="915" height="24.65" shape-rendering="crispEdges"/><rect fill="#14110c" x="1061.4" y="538.3" width="146.4" height="24.65" shape-rendering="crispEdges"/><rect fill="#14110c" x="1207.8" y="538.3" width="12.2" height="24.65" shape-rendering="crispEdges"/><rect fill="#14110c" x="0" y="562.7" width="12.2" height="24.65" shape-rendering="crispEdges"/><rect fill="#14110c" x="12.2" y="562.7" width="134.2" height="24.65" shape-rendering="crispEdges"/><rect fill="#1e1a14" x="146.4" y="562.7" width="12.2" height="24.65" shape-rendering="crispEdges"/><rect fill="#1e1a14" x="158.6" y="562.7" width="12.2" height="24.65" shape-rendering="crispEdges"/><rect fill="#1e1a14" x="170.8" y="562.7" width="12.2" height="24.65" shape-rendering="crispEdges"/><rect fill="#1e1a14" x="183" y="562.7" width="12.2" height="24.65" shape-rendering="crispEdges"/><rect fill="#1e1a14" x="195.2" y="562.7" width="61" height="24.65" shape-rendering="crispEdges"/><rect fill="#1e1a14" x="256.2" y="562.7" width="48.8" height="24.65" shape-rendering="crispEdges"/><rect fill="#e9e5db" x="305" y="562.7" width="12.2" height="24.65" shape-rendering="crispEdges"/><rect fill="#1e1a14" x="317.2" y="562.7" width="36.6" height="24.65" shape-rendering="crispEdges"/><rect fill="#1e1a14" x="353.8" y="562.7" width="12.2" height="24.65" shape-rendering="crispEdges"/><rect fill="#1e1a14" x="366" y="562.7" width="671" height="24.65" shape-rendering="crispEdges"/><rect fill="#1e1a14" x="1037" y="562.7" width="12.2" height="24.65" shape-rendering="crispEdges"/><rect fill="#1e1a14" x="1049.2" y="562.7" width="12.2" height="24.65" shape-rendering="crispEdges"/><rect fill="#14110c" x="1061.4" y="562.7" width="146.4" height="24.65" shape-rendering="crispEdges"/><rect fill="#14110c" x="1207.8" y="562.7" width="12.2" height="24.65" shape-rendering="crispEdges"/><rect fill="#14110c" x="0" y="587.1" width="12.2" height="24.65" shape-rendering="crispEdges"/><rect fill="#14110c" x="12.2" y="587.1" width="134.2" height="24.65" shape-rendering="crispEdges"/><rect fill="#1e1a14" x="146.4" y="587.1" width="12.2" height="24.65" shape-rendering="crispEdges"/><rect fill="#16221a" x="158.6" y="587.1" width="36.6" height="24.65" shape-rendering="crispEdges"/><rect fill="#16221a" x="195.2" y="587.1" width="73.2" height="24.65" shape-rendering="crispEdges"/><rect fill="#16221a" x="268.4" y="587.1" width="73.2" height="24.65" shape-rendering="crispEdges"/><rect fill="#16221a" x="341.6" y="587.1" width="170.8" height="24.65" shape-rendering="crispEdges"/><rect fill="#16221a" x="512.4" y="587.1" width="219.6" height="24.65" shape-rendering="crispEdges"/><rect fill="#16221a" x="732" y="587.1" width="292.8" height="24.65" shape-rendering="crispEdges"/><rect fill="#16221a" x="1024.8" y="587.1" width="24.4" height="24.65" shape-rendering="crispEdges"/><rect fill="#1e1a14" x="1049.2" y="587.1" width="12.2" height="24.65" shape-rendering="crispEdges"/><rect fill="#14110c" x="1061.4" y="587.1" width="146.4" height="24.65" shape-rendering="crispEdges"/><rect fill="#14110c" x="1207.8" y="587.1" width="12.2" height="24.65" shape-rendering="crispEdges"/><rect fill="#14110c" x="0" y="611.5" width="12.2" height="24.65" shape-rendering="crispEdges"/><rect fill="#14110c" x="12.2" y="611.5" width="134.2" height="24.65" shape-rendering="crispEdges"/><rect fill="#1e1a14" x="146.4" y="611.5" width="12.2" height="24.65" shape-rendering="crispEdges"/><rect fill="#1e1a14" x="158.6" y="611.5" width="36.6" height="24.65" shape-rendering="crispEdges"/><rect fill="#1e1a14" x="195.2" y="611.5" width="73.2" height="24.65" shape-rendering="crispEdges"/><rect fill="#1e1a14" x="268.4" y="611.5" width="73.2" height="24.65" shape-rendering="crispEdges"/><rect fill="#1e1a14" x="341.6" y="611.5" width="170.8" height="24.65" shape-rendering="crispEdges"/><rect fill="#1e1a14" x="512.4" y="611.5" width="219.6" height="24.65" shape-rendering="crispEdges"/><rect fill="#1e1a14" x="732" y="611.5" width="292.8" height="24.65" shape-rendering="crispEdges"/><rect fill="#1e1a14" x="1024.8" y="611.5" width="24.4" height="24.65" shape-rendering="crispEdges"/><rect fill="#1e1a14" x="1049.2" y="611.5" width="12.2" height="24.65" shape-rendering="crispEdges"/><rect fill="#14110c" x="1061.4" y="611.5" width="146.4" height="24.65" shape-rendering="crispEdges"/><rect fill="#14110c" x="1207.8" y="611.5" width="12.2" height="24.65" shape-rendering="crispEdges"/><rect fill="#14110c" x="0" y="635.9" width="12.2" height="24.65" shape-rendering="crispEdges"/><rect fill="#14110c" x="12.2" y="635.9" width="134.2" height="24.65" shape-rendering="crispEdges"/><rect fill="#1e1a14" x="146.4" y="635.9" width="12.2" height="24.65" shape-rendering="crispEdges"/><rect fill="#1e1a14" x="158.6" y="635.9" width="890.6" height="24.65" shape-rendering="crispEdges"/><rect fill="#1e1a14" x="1049.2" y="635.9" width="12.2" height="24.65" shape-rendering="crispEdges"/><rect fill="#14110c" x="1061.4" y="635.9" width="146.4" height="24.65" shape-rendering="crispEdges"/><rect fill="#14110c" x="1207.8" y="635.9" width="12.2" height="24.65" shape-rendering="crispEdges"/><rect fill="#14110c" x="0" y="660.3" width="12.2" height="24.65" shape-rendering="crispEdges"/><rect fill="#14110c" x="12.2" y="660.3" width="134.2" height="24.65" shape-rendering="crispEdges"/><rect fill="#1e1a14" x="146.4" y="660.3" width="12.2" height="24.65" shape-rendering="crispEdges"/><rect fill="#1e1a14" x="158.6" y="660.3" width="24.4" height="24.65" shape-rendering="crispEdges"/><rect fill="#1e1a14" x="183" y="660.3" width="122" height="24.65" shape-rendering="crispEdges"/><rect fill="#1e1a14" x="305" y="660.3" width="36.6" height="24.65" shape-rendering="crispEdges"/><rect fill="#1e1a14" x="341.6" y="660.3" width="24.4" height="24.65" shape-rendering="crispEdges"/><rect fill="#1e1a14" x="366" y="660.3" width="341.6" height="24.65" shape-rendering="crispEdges"/><rect fill="#1e1a14" x="707.6" y="660.3" width="317.2" height="24.65" shape-rendering="crispEdges"/><rect fill="#1e1a14" x="1024.8" y="660.3" width="12.2" height="24.65" shape-rendering="crispEdges"/><rect fill="#1e1a14" x="1037" y="660.3" width="12.2" height="24.65" shape-rendering="crispEdges"/><rect fill="#1e1a14" x="1049.2" y="660.3" width="12.2" height="24.65" shape-rendering="crispEdges"/><rect fill="#14110c" x="1061.4" y="660.3" width="146.4" height="24.65" shape-rendering="crispEdges"/><rect fill="#14110c" x="1207.8" y="660.3" width="12.2" height="24.65" shape-rendering="crispEdges"/><rect fill="#14110c" x="0" y="684.7" width="12.2" height="24.65" shape-rendering="crispEdges"/><rect fill="#14110c" x="12.2" y="684.7" width="134.2" height="24.65" shape-rendering="crispEdges"/><rect fill="#1e1a14" x="146.4" y="684.7" width="915" height="24.65" shape-rendering="crispEdges"/><rect fill="#14110c" x="1061.4" y="684.7" width="146.4" height="24.65" shape-rendering="crispEdges"/><rect fill="#14110c" x="1207.8" y="684.7" width="12.2" height="24.65" shape-rendering="crispEdges"/><rect fill="#14110c" x="0" y="709.1" width="1220" height="24.65" shape-rendering="crispEdges"/>
    <g class="terminal-3504557957-matrix">
    <text class="terminal-3504557957-r1" x="1220" y="20" textLength="12.2" clip-path="url(#terminal-3504557957-line-0)">
</text><text class="terminal-3504557957-r1" x="1220" y="44.4" textLength="12.2" clip-path="url(#terminal-3504557957-line-1)">
</text><text class="terminal-3504557957-r1" x="1220" y="68.8" textLength="12.2" clip-path="url(#terminal-3504557957-line-2)">
</text><text class="terminal-3504557957-r1" x="1220" y="93.2" textLength="12.2" clip-path="url(#terminal-3504557957-line-3)">
</text><text class="terminal-3504557957-r1" x="1220" y="117.6" textLength="12.2" clip-path="url(#terminal-3504557957-line-4)">
</text><text class="terminal-3504557957-r1" x="1220" y="142" textLength="12.2" clip-path="url(#terminal-3504557957-line-5)">
</text><text class="terminal-3504557957-r1" x="1220" y="166.4" textLength="12.2" clip-path="url(#terminal-3504557957-line-6)">
</text><text class="terminal-3504557957-r1" x="1220" y="190.8" textLength="12.2" clip-path="url(#terminal-3504557957-line-7)">
</text><text class="terminal-3504557957-r1" x="1220" y="215.2" textLength="12.2" clip-path="url(#terminal-3504557957-line-8)">
</text><text class="terminal-3504557957-r1" x="1220" y="239.6" textLength="12.2" clip-path="url(#terminal-3504557957-line-9)">
</text><text class="terminal-3504557957-r3" x="439.2" y="264" textLength="329.4" clip-path="url(#terminal-3504557957-line-10)">l&#160;o&#160;c&#160;a&#160;l&#160;&#160;&#160;o&#160;p&#160;e&#160;r&#160;a&#160;t&#160;o&#160;r</text><text class="terminal-3504557957-r1" x="1220" y="264" textLength="12.2" clip-path="url(#terminal-3504557957-line-10)">
</text><text class="terminal-3504557957-r1" x="1220" y="288.4" textLength="12.2" clip-path="url(#terminal-3504557957-line-11)">
</text><text class="terminal-3504557957-r2" x="427" y="312.8" textLength="85.4" clip-path="url(#terminal-3504557957-line-12)">v0.43.5</text><text class="terminal-3504557957-r1" x="1220" y="312.8" textLength="12.2" clip-path="url(#terminal-3504557957-line-12)">
</text><text class="terminal-3504557957-r4" x="427" y="337.2" textLength="122" clip-path="url(#terminal-3504557957-line-13)">test/model</text><text class="terminal-3504557957-r1" x="1220" y="337.2" textLength="12.2" clip-path="url(#terminal-3504557957-line-13)">
</text><text class="terminal-3504557957-r2" x="427" y="361.6" textLength="341.6" clip-path="url(#terminal-3504557957-line-14)">/private/tmp/lop-team-picker</text><text class="terminal-3504557957-r1" x="1220" y="361.6" textLength="12.2" clip-path="url(#terminal-3504557957-line-14)">
</text><text class="terminal-3504557957-r5" x="427" y="386" textLength="366" clip-path="url(#terminal-3504557957-line-15)">!&#160;latest&#160;is&#160;v0.44.10&#160;—&#160;/update</text><text class="terminal-3504557957-r1" x="1220" y="386" textLength="12.2" clip-path="url(#terminal-3504557957-line-15)">
</text><text class="terminal-3504557957-r1" x="1220" y="410.4" textLength="12.2" clip-path="url(#terminal-3504557957-line-16)">
</text><text class="terminal-3504557957-r3" x="427" y="434.8" textLength="122" clip-path="url(#terminal-3504557957-line-17)">/&#160;&#160;&#160;&#160;&#160;&#160;&#160;&#160;&#160;</text><text class="terminal-3504557957-r4" x="549" y="434.8" textLength="170.8" clip-path="url(#terminal-3504557957-line-17)">command&#160;picker</text><text class="terminal-3504557957-r1" x="1220" y="434.8" textLength="12.2" clip-path="url(#terminal-3504557957-line-17)">
</text><text class="terminal-3504557957-r3" x="427" y="459.2" textLength="122" clip-path="url(#terminal-3504557957-line-18)">/help&#160;&#160;&#160;&#160;&#160;</text><text class="terminal-3504557957-r4" x="549" y="459.2" textLength="146.4" clip-path="url(#terminal-3504557957-line-18)">all&#160;commands</text><text class="terminal-3504557957-r1" x="1220" y="459.2" textLength="12.2" clip-path="url(#terminal-3504557957-line-18)">
</text><text class="terminal-3504557957-r3" x="427" y="483.6" textLength="122" clip-path="url(#terminal-3504557957-line-19)">ctrl+d&#160;&#160;&#160;&#160;</text><text class="terminal-3504557957-r4" x="549" y="483.6" textLength="48.8" clip-path="url(#terminal-3504557957-line-19)">quit</text><text class="terminal-3504557957-r1" x="1220" y="483.6" textLength="12.2" clip-path="url(#terminal-3504557957-line-19)">
</text><text class="terminal-3504557957-r1" x="1220" y="508" textLength="12.2" clip-path="url(#terminal-3504557957-line-20)">
</text><text class="terminal-3504557957-r6" x="280.6" y="532.4" textLength="24.4" clip-path="url(#terminal-3504557957-line-21)">·&#160;</text><text class="terminal-3504557957-r2" x="305" y="532.4" textLength="634.4" clip-path="url(#terminal-3504557957-line-21)">/resume&#160;picks&#160;up&#160;a&#160;recent&#160;session&#160;where&#160;you&#160;left&#160;off</text><text class="terminal-3504557957-r1" x="1220" y="532.4" textLength="12.2" clip-path="url(#terminal-3504557957-line-21)">
</text><text class="terminal-3504557957-r1" x="1220" y="556.8" textLength="12.2" clip-path="url(#terminal-3504557957-line-22)">
</text><text class="terminal-3504557957-r3" x="158.6" y="581.2" textLength="12.2" clip-path="url(#terminal-3504557957-line-23)">❯</text><text class="terminal-3504557957-r7" x="195.2" y="581.2" textLength="61" clip-path="url(#terminal-3504557957-line-23)">/team</text><text class="terminal-3504557957-r3" x="256.2" y="581.2" textLength="48.8" clip-path="url(#terminal-3504557957-line-23)">&#160;lop</text><text class="terminal-3504557957-r2" x="305" y="581.2" textLength="12.2" clip-path="url(#terminal-3504557957-line-23)">d</text><text class="terminal-3504557957-r2" x="317.2" y="581.2" textLength="36.6" clip-path="url(#terminal-3504557957-line-23)">ev&#160;</text><text class="terminal-3504557957-r1" x="1220" y="581.2" textLength="12.2" clip-path="url(#terminal-3504557957-line-23)">
</text><text class="terminal-3504557957-r4" x="158.6" y="605.6" textLength="36.6" clip-path="url(#terminal-3504557957-line-24)">❯&#160;&#160;</text><text class="terminal-3504557957-r8" x="195.2" y="605.6" textLength="73.2" clip-path="url(#terminal-3504557957-line-24)">lopdev</text><text class="terminal-3504557957-r4" x="341.6" y="605.6" textLength="170.8" clip-path="url(#terminal-3504557957-line-24)">no&#160;description</text><text class="terminal-3504557957-r4" x="732" y="605.6" textLength="292.8" clip-path="url(#terminal-3504557957-line-24)">1&#160;roles&#160;·&#160;led&#160;by&#160;manager</text><text class="terminal-3504557957-r1" x="1220" y="605.6" textLength="12.2" clip-path="url(#terminal-3504557957-line-24)">
</text><text class="terminal-3504557957-r3" x="195.2" y="630" textLength="73.2" clip-path="url(#terminal-3504557957-line-25)">lopsec</text><text class="terminal-3504557957-r4" x="341.6" y="630" textLength="170.8" clip-path="url(#terminal-3504557957-line-25)">no&#160;description</text><text class="terminal-3504557957-r4" x="732" y="630" textLength="292.8" clip-path="url(#terminal-3504557957-line-25)">1&#160;roles&#160;·&#160;led&#160;by&#160;manager</text><text class="terminal-3504557957-r1" x="1220" y="630" textLength="12.2" clip-path="url(#terminal-3504557957-line-25)">
</text><text class="terminal-3504557957-r1" x="1220" y="654.4" textLength="12.2" clip-path="url(#terminal-3504557957-line-26)">
</text><text class="terminal-3504557957-r2" x="158.6" y="678.8" textLength="24.4" clip-path="url(#terminal-3504557957-line-27)">◆&#160;</text><text class="terminal-3504557957-r3" x="183" y="678.8" textLength="122" clip-path="url(#terminal-3504557957-line-27)">test/model</text><text class="terminal-3504557957-r6" x="305" y="678.8" textLength="36.6" clip-path="url(#terminal-3504557957-line-27)">&#160;›&#160;</text><text class="terminal-3504557957-r2" x="341.6" y="678.8" textLength="24.4" clip-path="url(#terminal-3504557957-line-27)">⌂&#160;</text><text class="terminal-3504557957-r9" x="366" y="678.8" textLength="341.6" clip-path="url(#terminal-3504557957-line-27)">/private/tmp/lop-team-picker</text><text class="terminal-3504557957-r10" x="1024.8" y="678.8" textLength="12.2" clip-path="url(#terminal-3504557957-line-27)">!</text><text class="terminal-3504557957-r1" x="1220" y="678.8" textLength="12.2" clip-path="url(#terminal-3504557957-line-27)">
</text><text class="terminal-3504557957-r1" x="1220" y="703.2" textLength="12.2" clip-path="url(#terminal-3504557957-line-28)">
</text>
    </g>
    </g>
</svg>
