<svg class="rich-terminal" viewBox="0 0 384 489.2" xmlns="http://www.w3.org/2000/svg">
    <!-- Generated with Rich https://www.textualize.io -->
    <style>

    @font-face {
        font-family: "Fira Code";
        src: local("FiraCode-Regular"),
                url("https://cdnjs.cloudflare.com/ajax/libs/firacode/6.2.0/woff2/FiraCode-Regular.woff2") format("woff2"),
                url("https://cdnjs.cloudflare.com/ajax/libs/firacode/6.2.0/woff/FiraCode-Regular.woff") format("woff");
        font-style: normal;
        font-weight: 400;
    }
    @font-face {
        font-family: "Fira Code";
        src: local("FiraCode-Bold"),
                url("https://cdnjs.cloudflare.com/ajax/libs/firacode/6.2.0/woff2/FiraCode-Bold.woff2") format("woff2"),
                url("https://cdnjs.cloudflare.com/ajax/libs/firacode/6.2.0/woff/FiraCode-Bold.woff") format("woff");
        font-style: bold;
        font-weight: 700;
    }

    .terminal-2436320497-matrix {
        font-family: Fira Code, monospace;
        font-size: 20px;
        line-height: 24.4px;
        font-variant-east-asian: full-width;
    }

    .terminal-2436320497-title {
        font-size: 18px;
        font-weight: bold;
        font-family: arial;
    }

    .terminal-2436320497-r1 { fill: #c5c8c6 }
.terminal-2436320497-r2 { fill: #e9e5db }
.terminal-2436320497-r3 { fill: #837c6d }
.terminal-2436320497-r4 { fill: #b5afa2 }
.terminal-2436320497-r5 { fill: #e0b04b }
.terminal-2436320497-r6 { fill: #1e1a14 }
.terminal-2436320497-r7 { fill: #ef8078;font-weight: bold }
    </style>

    <defs>
    <clipPath id="terminal-2436320497-clip-terminal">
      <rect x="0" y="0" width="365.0" height="438.2" />
    </clipPath>
    <clipPath id="terminal-2436320497-line-0">
    <rect x="0" y="1.5" width="366" height="24.65"/>
            </clipPath>
<clipPath id="terminal-2436320497-line-1">
    <rect x="0" y="25.9" width="366" height="24.65"/>
            </clipPath>
<clipPath id="terminal-2436320497-line-2">
    <rect x="0" y="50.3" width="366" height="24.65"/>
            </clipPath>
<clipPath id="terminal-2436320497-line-3">
    <rect x="0" y="74.7" width="366" height="24.65"/>
            </clipPath>
<clipPath id="terminal-2436320497-line-4">
    <rect x="0" y="99.1" width="366" height="24.65"/>
            </clipPath>
<clipPath id="terminal-2436320497-line-5">
    <rect x="0" y="123.5" width="366" height="24.65"/>
            </clipPath>
<clipPath id="terminal-2436320497-line-6">
    <rect x="0" y="147.9" width="366" height="24.65"/>
            </clipPath>
<clipPath id="terminal-2436320497-line-7">
    <rect x="0" y="172.3" width="366" height="24.65"/>
            </clipPath>
<clipPath id="terminal-2436320497-line-8">
    <rect x="0" y="196.7" width="366" height="24.65"/>
            </clipPath>
<clipPath id="terminal-2436320497-line-9">
    <rect x="0" y="221.1" width="366" height="24.65"/>
            </clipPath>
<clipPath id="terminal-2436320497-line-10">
    <rect x="0" y="245.5" width="366" height="24.65"/>
            </clipPath>
<clipPath id="terminal-2436320497-line-11">
    <rect x="0" y="269.9" width="366" height="24.65"/>
            </clipPath>
<clipPath id="terminal-2436320497-line-12">
    <rect x="0" y="294.3" width="366" height="24.65"/>
            </clipPath>
<clipPath id="terminal-2436320497-line-13">
    <rect x="0" y="318.7" width="366" height="24.65"/>
            </clipPath>
<clipPath id="terminal-2436320497-line-14">
    <rect x="0" y="343.1" width="366" height="24.65"/>
            </clipPath>
<clipPath id="terminal-2436320497-line-15">
    <rect x="0" y="367.5" width="366" height="24.65"/>
            </clipPath>
<clipPath id="terminal-2436320497-line-16">
    <rect x="0" y="391.9" width="366" height="24.65"/>
            </clipPath>
    </defs>

    <rect fill="#292929" stroke="rgba(255,255,255,0.35)" stroke-width="1" x="1" y="1" width="382" height="487.2" rx="8"/><text class="terminal-2436320497-title" fill="#c5c8c6" text-anchor="middle" x="191" y="27">Local&#160;Operator</text>
            <g transform="translate(26,22)">
            <circle cx="0" cy="0" r="7" fill="#ff5f57"/>
            <circle cx="22" cy="0" r="7" fill="#febc2e"/>
            <circle cx="44" cy="0" r="7" fill="#28c840"/>
            </g>
        
    <g transform="translate(9, 41)" clip-path="url(#terminal-2436320497-clip-terminal)">
    <rect fill="#14110c" x="0" y="1.5" width="366" height="24.65" shape-rendering="crispEdges"/><rect fill="#14110c" x="0" y="25.9" width="12.2" height="24.65" shape-rendering="crispEdges"/><rect fill="#14110c" x="12.2" y="25.9" width="12.2" height="24.65" shape-rendering="crispEdges"/><rect fill="#14110c" x="24.4" y="25.9" width="36.6" height="24.65" shape-rendering="crispEdges"/><rect fill="#302a20" x="61" y="25.9" width="12.2" height="24.65" shape-rendering="crispEdges"/><rect fill="#302a20" x="73.2" y="25.9" width="244" height="24.65" shape-rendering="crispEdges"/><rect fill="#302a20" x="317.2" y="25.9" width="24.4" height="24.65" shape-rendering="crispEdges"/><rect fill="#302a20" x="341.6" y="25.9" width="12.2" height="24.65" shape-rendering="crispEdges"/><rect fill="#14110c" x="353.8" y="25.9" width="12.2" height="24.65" shape-rendering="crispEdges"/><rect fill="#14110c" x="0" y="50.3" width="12.2" height="24.65" shape-rendering="crispEdges"/><rect fill="#14110c" x="12.2" y="50.3" width="12.2" height="24.65" shape-rendering="crispEdges"/><rect fill="#14110c" x="24.4" y="50.3" width="36.6" height="24.65" shape-rendering="crispEdges"/><rect fill="#302a20" x="61" y="50.3" width="12.2" height="24.65" shape-rendering="crispEdges"/><rect fill="#302a20" x="73.2" y="50.3" width="231.8" height="24.65" shape-rendering="crispEdges"/><rect fill="#302a20" x="305" y="50.3" width="36.6" height="24.65" shape-rendering="crispEdges"/><rect fill="#302a20" x="341.6" y="50.3" width="12.2" height="24.65" shape-rendering="crispEdges"/><rect fill="#14110c" x="353.8" y="50.3" width="12.2" height="24.65" shape-rendering="crispEdges"/><rect fill="#14110c" x="0" y="74.7" width="12.2" height="24.65" shape-rendering="crispEdges"/><rect fill="#14110c" x="12.2" y="74.7" width="12.2" height="24.65" shape-rendering="crispEdges"/><rect fill="#14110c" x="24.4" y="74.7" width="36.6" height="24.65" shape-rendering="crispEdges"/><rect fill="#302a20" x="61" y="74.7" width="12.2" height="24.65" shape-rendering="crispEdges"/><rect fill="#302a20" x="73.2" y="74.7" width="195.2" height="24.65" shape-rendering="crispEdges"/><rect fill="#302a20" x="268.4" y="74.7" width="73.2" height="24.65" shape-rendering="crispEdges"/><rect fill="#302a20" x="341.6" y="74.7" width="12.2" height="24.65" shape-rendering="crispEdges"/><rect fill="#14110c" x="353.8" y="74.7" width="12.2" height="24.65" shape-rendering="crispEdges"/><rect fill="#14110c" x="0" y="99.1" width="12.2" height="24.65" shape-rendering="crispEdges"/><rect fill="#14110c" x="12.2" y="99.1" width="12.2" height="24.65" shape-rendering="crispEdges"/><rect fill="#14110c" x="24.4" y="99.1" width="12.2" height="24.65" shape-rendering="crispEdges"/><rect fill="#14110c" x="36.6" y="99.1" width="24.4" height="24.65" shape-rendering="crispEdges"/><rect fill="#302a20" x="61" y="99.1" width="12.2" height="24.65" shape-rendering="crispEdges"/><rect fill="#302a20" x="73.2" y="99.1" width="73.2" height="24.65" shape-rendering="crispEdges"/><rect fill="#302a20" x="146.4" y="99.1" width="195.2" height="24.65" shape-rendering="crispEdges"/><rect fill="#302a20" x="341.6" y="99.1" width="12.2" height="24.65" shape-rendering="crispEdges"/><rect fill="#14110c" x="353.8" y="99.1" width="12.2" height="24.65" shape-rendering="crispEdges"/><rect fill="#14110c" x="0" y="123.5" width="12.2" height="24.65" shape-rendering="crispEdges"/><rect fill="#14110c" x="12.2" y="123.5" width="12.2" height="24.65" shape-rendering="crispEdges"/><rect fill="#14110c" x="24.4" y="123.5" width="12.2" height="24.65" shape-rendering="crispEdges"/><rect fill="#14110c" x="36.6" y="123.5" width="122" height="24.65" shape-rendering="crispEdges"/><rect fill="#14110c" x="158.6" y="123.5" width="183" height="24.65" shape-rendering="crispEdges"/><rect fill="#14110c" x="341.6" y="123.5" width="12.2" height="24.65" shape-rendering="crispEdges"/><rect fill="#14110c" x="353.8" y="123.5" width="12.2" height="24.65" shape-rendering="crispEdges"/><rect fill="#14110c" x="0" y="147.9" width="12.2" height="24.65" shape-rendering="crispEdges"/><rect fill="#14110c" x="12.2" y="147.9" width="12.2" height="24.65" shape-rendering="crispEdges"/><rect fill="#14110c" x="24.4" y="147.9" width="12.2" height="24.65" shape-rendering="crispEdges"/><rect fill="#14110c" x="36.6" y="147.9" width="280.6" height="24.65" shape-rendering="crispEdges"/><rect fill="#14110c" x="317.2" y="147.9" width="24.4" height="24.65" shape-rendering="crispEdges"/><rect fill="#14110c" x="341.6" y="147.9" width="12.2" height="24.65" shape-rendering="crispEdges"/><rect fill="#14110c" x="353.8" y="147.9" width="12.2" height="24.65" shape-rendering="crispEdges"/><rect fill="#14110c" x="0" y="172.3" width="12.2" height="24.65" shape-rendering="crispEdges"/><rect fill="#14110c" x="12.2" y="172.3" width="12.2" height="24.65" shape-rendering="crispEdges"/><rect fill="#14110c" x="24.4" y="172.3" width="12.2" height="24.65" shape-rendering="crispEdges"/><rect fill="#14110c" x="36.6" y="172.3" width="244" height="24.65" shape-rendering="crispEdges"/><rect fill="#14110c" x="280.6" y="172.3" width="61" height="24.65" shape-rendering="crispEdges"/><rect fill="#14110c" x="341.6" y="172.3" width="12.2" height="24.65" shape-rendering="crispEdges"/><rect fill="#14110c" x="353.8" y="172.3" width="12.2" height="24.65" shape-rendering="crispEdges"/><rect fill="#14110c" x="0" y="196.7" width="12.2" height="24.65" shape-rendering="crispEdges"/><rect fill="#14110c" x="12.2" y="196.7" width="12.2" height="24.65" shape-rendering="crispEdges"/><rect fill="#14110c" x="24.4" y="196.7" width="0" height="24.65" shape-rendering="crispEdges"/><rect fill="#14110c" x="24.4" y="196.7" width="317.2" height="24.65" shape-rendering="crispEdges"/><rect fill="#14110c" x="341.6" y="196.7" width="12.2" height="24.65" shape-rendering="crispEdges"/><rect fill="#14110c" x="353.8" y="196.7" width="12.2" height="24.65" shape-rendering="crispEdges"/><rect fill="#14110c" x="0" y="221.1" width="12.2" height="24.65" shape-rendering="crispEdges"/><rect fill="#14110c" x="12.2" y="221.1" width="12.2" height="24.65" shape-rendering="crispEdges"/><rect fill="#14110c" x="24.4" y="221.1" width="12.2" height="24.65" shape-rendering="crispEdges"/><rect fill="#14110c" x="36.6" y="221.1" width="122" height="24.65" shape-rendering="crispEdges"/><rect fill="#14110c" x="158.6" y="221.1" width="170.8" height="24.65" shape-rendering="crispEdges"/><rect fill="#14110c" x="329.4" y="221.1" width="12.2" height="24.65" shape-rendering="crispEdges"/><rect fill="#14110c" x="341.6" y="221.1" width="12.2" height="24.65" shape-rendering="crispEdges"/><rect fill="#14110c" x="353.8" y="221.1" width="12.2" height="24.65" shape-rendering="crispEdges"/><rect fill="#14110c" x="0" y="245.5" width="12.2" height="24.65" shape-rendering="crispEdges"/><rect fill="#14110c" x="12.2" y="245.5" width="12.2" height="24.65" shape-rendering="crispEdges"/><rect fill="#14110c" x="24.4" y="245.5" width="12.2" height="24.65" shape-rendering="crispEdges"/><rect fill="#14110c" x="36.6" y="245.5" width="122" height="24.65" shape-rendering="crispEdges"/><rect fill="#14110c" x="158.6" y="245.5" width="146.4" height="24.65" shape-rendering="crispEdges"/><rect fill="#14110c" x="305" y="245.5" width="36.6" height="24.65" shape-rendering="crispEdges"/><rect fill="#14110c" x="341.6" y="245.5" width="12.2" height="24.65" shape-rendering="crispEdges"/><rect fill="#14110c" x="353.8" y="245.5" width="12.2" height="24.65" shape-rendering="crispEdges"/><rect fill="#14110c" x="0" y="269.9" width="12.2" height="24.65" shape-rendering="crispEdges"/><rect fill="#14110c" x="12.2" y="269.9" width="12.2" height="24.65" shape-rendering="crispEdges"/><rect fill="#14110c" x="24.4" y="269.9" width="12.2" height="24.65" shape-rendering="crispEdges"/><rect fill="#14110c" x="36.6" y="269.9" width="122" height="24.65" shape-rendering="crispEdges"/><rect fill="#14110c" x="158.6" y="269.9" width="48.8" height="24.65" shape-rendering="crispEdges"/><rect fill="#14110c" x="207.4" y="269.9" width="134.2" height="24.65" shape-rendering="crispEdges"/><rect fill="#14110c" x="341.6" y="269.9" width="12.2" height="24.65" shape-rendering="crispEdges"/><rect fill="#14110c" x="353.8" y="269.9" width="12.2" height="24.65" shape-rendering="crispEdges"/><rect fill="#14110c" x="0" y="294.3" width="12.2" height="24.65" shape-rendering="crispEdges"/><rect fill="#1e1a14" x="12.2" y="294.3" width="341.6" height="24.65" shape-rendering="crispEdges"/><rect fill="#14110c" x="353.8" y="294.3" width="12.2" height="24.65" shape-rendering="crispEdges"/><rect fill="#14110c" x="0" y="318.7" width="12.2" height="24.65" shape-rendering="crispEdges"/><rect fill="#1e1a14" x="12.2" y="318.7" width="12.2" height="24.65" shape-rendering="crispEdges"/><rect fill="#1e1a14" x="24.4" y="318.7" width="12.2" height="24.65" shape-rendering="crispEdges"/><rect fill="#1e1a14" x="36.6" y="318.7" width="12.2" height="24.65" shape-rendering="crispEdges"/><rect fill="#1e1a14" x="48.8" y="318.7" width="12.2" height="24.65" shape-rendering="crispEdges"/><rect fill="#e9e5db" x="61" y="318.7" width="12.2" height="24.65" shape-rendering="crispEdges"/><rect fill="#1e1a14" x="73.2" y="318.7" width="158.6" height="24.65" shape-rendering="crispEdges"/><rect fill="#1e1a14" x="231.8" y="318.7" width="97.6" height="24.65" shape-rendering="crispEdges"/><rect fill="#1e1a14" x="329.4" y="318.7" width="12.2" height="24.65" shape-rendering="crispEdges"/><rect fill="#1e1a14" x="341.6" y="318.7" width="12.2" height="24.65" shape-rendering="crispEdges"/><rect fill="#14110c" x="353.8" y="318.7" width="12.2" height="24.65" shape-rendering="crispEdges"/><rect fill="#14110c" x="0" y="343.1" width="12.2" height="24.65" shape-rendering="crispEdges"/><rect fill="#1e1a14" x="12.2" y="343.1" width="12.2" height="24.65" shape-rendering="crispEdges"/><rect fill="#1e1a14" x="24.4" y="343.1" width="317.2" height="24.65" shape-rendering="crispEdges"/><rect fill="#1e1a14" x="341.6" y="343.1" width="12.2" height="24.65" shape-rendering="crispEdges"/><rect fill="#14110c" x="353.8" y="343.1" width="12.2" height="24.65" shape-rendering="crispEdges"/><rect fill="#14110c" x="0" y="367.5" width="12.2" height="24.65" shape-rendering="crispEdges"/><rect fill="#1e1a14" x="12.2" y="367.5" width="12.2" height="24.65" shape-rendering="crispEdges"/><rect fill="#1e1a14" x="24.4" y="367.5" width="24.4" height="24.65" shape-rendering="crispEdges"/><rect fill="#1e1a14" x="48.8" y="367.5" width="61" height="24.65" shape-rendering="crispEdges"/><rect fill="#1e1a14" x="109.8" y="367.5" width="207.4" height="24.65" shape-rendering="crispEdges"/><rect fill="#1e1a14" x="317.2" y="367.5" width="12.2" height="24.65" shape-rendering="crispEdges"/><rect fill="#1e1a14" x="329.4" y="367.5" width="12.2" height="24.65" shape-rendering="crispEdges"/><rect fill="#1e1a14" x="341.6" y="367.5" width="12.2" height="24.65" shape-rendering="crispEdges"/><rect fill="#14110c" x="353.8" y="367.5" width="12.2" height="24.65" shape-rendering="crispEdges"/><rect fill="#14110c" x="0" y="391.9" width="12.2" height="24.65" shape-rendering="crispEdges"/><rect fill="#1e1a14" x="12.2" y="391.9" width="341.6" height="24.65" shape-rendering="crispEdges"/><rect fill="#14110c" x="353.8" y="391.9" width="12.2" height="24.65" shape-rendering="crispEdges"/><rect fill="#14110c" x="0" y="416.3" width="366" height="24.65" shape-rendering="crispEdges"/>
    <g class="terminal-2436320497-matrix">
    <text class="terminal-2436320497-r1" x="366" y="20" textLength="12.2" clip-path="url(#terminal-2436320497-line-0)">
</text><text class="terminal-2436320497-r2" x="73.2" y="44.4" textLength="244" clip-path="url(#terminal-2436320497-line-1)">Couldn&#x27;t&#160;attach&#160;that</text><text class="terminal-2436320497-r1" x="366" y="44.4" textLength="12.2" clip-path="url(#terminal-2436320497-line-1)">
</text><text class="terminal-2436320497-r2" x="73.2" y="68.8" textLength="231.8" clip-path="url(#terminal-2436320497-line-2)">file.&#160;It&#160;may&#160;be&#160;too</text><text class="terminal-2436320497-r1" x="366" y="68.8" textLength="12.2" clip-path="url(#terminal-2436320497-line-2)">
</text><text class="terminal-2436320497-r2" x="73.2" y="93.2" textLength="195.2" clip-path="url(#terminal-2436320497-line-3)">large,&#160;or&#160;not&#160;an</text><text class="terminal-2436320497-r1" x="366" y="93.2" textLength="12.2" clip-path="url(#terminal-2436320497-line-3)">
</text><text class="terminal-2436320497-r3" x="36.6" y="117.6" textLength="24.4" clip-path="url(#terminal-2436320497-line-4)">v0</text><text class="terminal-2436320497-r2" x="73.2" y="117.6" textLength="73.2" clip-path="url(#terminal-2436320497-line-4)">image.</text><text class="terminal-2436320497-r1" x="366" y="117.6" textLength="12.2" clip-path="url(#terminal-2436320497-line-4)">
</text><text class="terminal-2436320497-r4" x="36.6" y="142" textLength="122" clip-path="url(#terminal-2436320497-line-5)">test/model</text><text class="terminal-2436320497-r1" x="366" y="142" textLength="12.2" clip-path="url(#terminal-2436320497-line-5)">
</text><text class="terminal-2436320497-r3" x="36.6" y="166.4" textLength="280.6" clip-path="url(#terminal-2436320497-line-6)">/private/tmp/dsgn376-r4</text><text class="terminal-2436320497-r1" x="366" y="166.4" textLength="12.2" clip-path="url(#terminal-2436320497-line-6)">
</text><text class="terminal-2436320497-r5" x="36.6" y="190.8" textLength="244" clip-path="url(#terminal-2436320497-line-7)">!&#160;latest&#160;is&#160;v0.42.15</text><text class="terminal-2436320497-r1" x="366" y="190.8" textLength="12.2" clip-path="url(#terminal-2436320497-line-7)">
</text><text class="terminal-2436320497-r1" x="366" y="215.2" textLength="12.2" clip-path="url(#terminal-2436320497-line-8)">
</text><text class="terminal-2436320497-r2" x="36.6" y="239.6" textLength="122" clip-path="url(#terminal-2436320497-line-9)">/&#160;&#160;&#160;&#160;&#160;&#160;&#160;&#160;&#160;</text><text class="terminal-2436320497-r4" x="158.6" y="239.6" textLength="170.8" clip-path="url(#terminal-2436320497-line-9)">command&#160;picker</text><text class="terminal-2436320497-r1" x="366" y="239.6" textLength="12.2" clip-path="url(#terminal-2436320497-line-9)">
</text><text class="terminal-2436320497-r2" x="36.6" y="264" textLength="122" clip-path="url(#terminal-2436320497-line-10)">/help&#160;&#160;&#160;&#160;&#160;</text><text class="terminal-2436320497-r4" x="158.6" y="264" textLength="146.4" clip-path="url(#terminal-2436320497-line-10)">all&#160;commands</text><text class="terminal-2436320497-r1" x="366" y="264" textLength="12.2" clip-path="url(#terminal-2436320497-line-10)">
</text><text class="terminal-2436320497-r2" x="36.6" y="288.4" textLength="122" clip-path="url(#terminal-2436320497-line-11)">ctrl+d&#160;&#160;&#160;&#160;</text><text class="terminal-2436320497-r4" x="158.6" y="288.4" textLength="48.8" clip-path="url(#terminal-2436320497-line-11)">quit</text><text class="terminal-2436320497-r1" x="366" y="288.4" textLength="12.2" clip-path="url(#terminal-2436320497-line-11)">
</text><text class="terminal-2436320497-r1" x="366" y="312.8" textLength="12.2" clip-path="url(#terminal-2436320497-line-12)">
</text><text class="terminal-2436320497-r2" x="24.4" y="337.2" textLength="12.2" clip-path="url(#terminal-2436320497-line-13)">❯</text><text class="terminal-2436320497-r3" x="73.2" y="337.2" textLength="158.6" clip-path="url(#terminal-2436320497-line-13)">Message&#160;Local</text><text class="terminal-2436320497-r1" x="366" y="337.2" textLength="12.2" clip-path="url(#terminal-2436320497-line-13)">
</text><text class="terminal-2436320497-r1" x="366" y="361.6" textLength="12.2" clip-path="url(#terminal-2436320497-line-14)">
</text><text class="terminal-2436320497-r3" x="24.4" y="386" textLength="24.4" clip-path="url(#terminal-2436320497-line-15)">◆&#160;</text><text class="terminal-2436320497-r2" x="48.8" y="386" textLength="61" clip-path="url(#terminal-2436320497-line-15)">model</text><text class="terminal-2436320497-r7" x="317.2" y="386" textLength="12.2" clip-path="url(#terminal-2436320497-line-15)">!</text><text class="terminal-2436320497-r1" x="366" y="386" textLength="12.2" clip-path="url(#terminal-2436320497-line-15)">
</text><text class="terminal-2436320497-r1" x="366" y="410.4" textLength="12.2" clip-path="url(#terminal-2436320497-line-16)">
</text>
    </g>
    </g>
</svg>
