<svg class="rich-terminal" viewBox="0 0 994 635.5999999999999" xmlns="http://www.w3.org/2000/svg">
    <!-- Generated with Rich https://www.textualize.io -->
    <style>

    @font-face {
        font-family: "Fira Code";
        src: local("FiraCode-Regular"),
                url("https://cdnjs.cloudflare.com/ajax/libs/firacode/6.2.0/woff2/FiraCode-Regular.woff2") format("woff2"),
                url("https://cdnjs.cloudflare.com/ajax/libs/firacode/6.2.0/woff/FiraCode-Regular.woff") format("woff");
        font-style: normal;
        font-weight: 400;
    }
    @font-face {
        font-family: "Fira Code";
        src: local("FiraCode-Bold"),
                url("https://cdnjs.cloudflare.com/ajax/libs/firacode/6.2.0/woff2/FiraCode-Bold.woff2") format("woff2"),
                url("https://cdnjs.cloudflare.com/ajax/libs/firacode/6.2.0/woff/FiraCode-Bold.woff") format("woff");
        font-style: bold;
        font-weight: 700;
    }

    .terminal-2232222407-matrix {
        font-family: Fira Code, monospace;
        font-size: 20px;
        line-height: 24.4px;
        font-variant-east-asian: full-width;
    }

    .terminal-2232222407-title {
        font-size: 18px;
        font-weight: bold;
        font-family: arial;
    }

    .terminal-2232222407-r1 { fill: #c5c8c6 }
.terminal-2232222407-r2 { fill: #e9e5db;font-weight: bold }
.terminal-2232222407-r3 { fill: #b5afa2 }
.terminal-2232222407-r4 { fill: #837c6d }
.terminal-2232222407-r5 { fill: #e9e5db }
.terminal-2232222407-r6 { fill: #14110c }
.terminal-2232222407-r7 { fill: #38c96a }
.terminal-2232222407-r8 { fill: #4a4539 }
.terminal-2232222407-r9 { fill: #ef8078 }
.terminal-2232222407-r10 { fill: #4b463c }
.terminal-2232222407-r11 { fill: #6ea8d8 }
.terminal-2232222407-r12 { fill: #ef8078;font-weight: bold }
    </style>

    <defs>
    <clipPath id="terminal-2232222407-clip-terminal">
      <rect x="0" y="0" width="975.0" height="584.5999999999999" />
    </clipPath>
    <clipPath id="terminal-2232222407-line-0">
    <rect x="0" y="1.5" width="976" height="24.65"/>
            </clipPath>
<clipPath id="terminal-2232222407-line-1">
    <rect x="0" y="25.9" width="976" height="24.65"/>
            </clipPath>
<clipPath id="terminal-2232222407-line-2">
    <rect x="0" y="50.3" width="976" height="24.65"/>
            </clipPath>
<clipPath id="terminal-2232222407-line-3">
    <rect x="0" y="74.7" width="976" height="24.65"/>
            </clipPath>
<clipPath id="terminal-2232222407-line-4">
    <rect x="0" y="99.1" width="976" height="24.65"/>
            </clipPath>
<clipPath id="terminal-2232222407-line-5">
    <rect x="0" y="123.5" width="976" height="24.65"/>
            </clipPath>
<clipPath id="terminal-2232222407-line-6">
    <rect x="0" y="147.9" width="976" height="24.65"/>
            </clipPath>
<clipPath id="terminal-2232222407-line-7">
    <rect x="0" y="172.3" width="976" height="24.65"/>
            </clipPath>
<clipPath id="terminal-2232222407-line-8">
    <rect x="0" y="196.7" width="976" height="24.65"/>
            </clipPath>
<clipPath id="terminal-2232222407-line-9">
    <rect x="0" y="221.1" width="976" height="24.65"/>
            </clipPath>
<clipPath id="terminal-2232222407-line-10">
    <rect x="0" y="245.5" width="976" height="24.65"/>
            </clipPath>
<clipPath id="terminal-2232222407-line-11">
    <rect x="0" y="269.9" width="976" height="24.65"/>
            </clipPath>
<clipPath id="terminal-2232222407-line-12">
    <rect x="0" y="294.3" width="976" height="24.65"/>
            </clipPath>
<clipPath id="terminal-2232222407-line-13">
    <rect x="0" y="318.7" width="976" height="24.65"/>
            </clipPath>
<clipPath id="terminal-2232222407-line-14">
    <rect x="0" y="343.1" width="976" height="24.65"/>
            </clipPath>
<clipPath id="terminal-2232222407-line-15">
    <rect x="0" y="367.5" width="976" height="24.65"/>
            </clipPath>
<clipPath id="terminal-2232222407-line-16">
    <rect x="0" y="391.9" width="976" height="24.65"/>
            </clipPath>
<clipPath id="terminal-2232222407-line-17">
    <rect x="0" y="416.3" width="976" height="24.65"/>
            </clipPath>
<clipPath id="terminal-2232222407-line-18">
    <rect x="0" y="440.7" width="976" height="24.65"/>
            </clipPath>
<clipPath id="terminal-2232222407-line-19">
    <rect x="0" y="465.1" width="976" height="24.65"/>
            </clipPath>
<clipPath id="terminal-2232222407-line-20">
    <rect x="0" y="489.5" width="976" height="24.65"/>
            </clipPath>
<clipPath id="terminal-2232222407-line-21">
    <rect x="0" y="513.9" width="976" height="24.65"/>
            </clipPath>
<clipPath id="terminal-2232222407-line-22">
    <rect x="0" y="538.3" width="976" height="24.65"/>
            </clipPath>
    </defs>

    <rect fill="#292929" stroke="rgba(255,255,255,0.35)" stroke-width="1" x="1" y="1" width="992" height="633.6" rx="8"/><text class="terminal-2232222407-title" fill="#c5c8c6" text-anchor="middle" x="496" y="27">Local&#160;Operator</text>
            <g transform="translate(26,22)">
            <circle cx="0" cy="0" r="7" fill="#ff5f57"/>
            <circle cx="22" cy="0" r="7" fill="#febc2e"/>
            <circle cx="44" cy="0" r="7" fill="#28c840"/>
            </g>
        
    <g transform="translate(9, 41)" clip-path="url(#terminal-2232222407-clip-terminal)">
    <rect fill="#14110c" x="0" y="1.5" width="976" height="24.65" shape-rendering="crispEdges"/><rect fill="#14110c" x="0" y="25.9" width="12.2" height="24.65" shape-rendering="crispEdges"/><rect fill="#14110c" x="12.2" y="25.9" width="951.6" height="24.65" shape-rendering="crispEdges"/><rect fill="#14110c" x="963.8" y="25.9" width="12.2" height="24.65" shape-rendering="crispEdges"/><rect fill="#14110c" x="0" y="50.3" width="12.2" height="24.65" shape-rendering="crispEdges"/><rect fill="#14110c" x="12.2" y="50.3" width="12.2" height="24.65" shape-rendering="crispEdges"/><rect fill="#14110c" x="24.4" y="50.3" width="97.6" height="24.65" shape-rendering="crispEdges"/><rect fill="#14110c" x="122" y="50.3" width="61" height="24.65" shape-rendering="crispEdges"/><rect fill="#14110c" x="183" y="50.3" width="732" height="24.65" shape-rendering="crispEdges"/><rect fill="#14110c" x="915" y="50.3" width="36.6" height="24.65" shape-rendering="crispEdges"/><rect fill="#14110c" x="951.6" y="50.3" width="12.2" height="24.65" shape-rendering="crispEdges"/><rect fill="#14110c" x="963.8" y="50.3" width="12.2" height="24.65" shape-rendering="crispEdges"/><rect fill="#14110c" x="0" y="74.7" width="12.2" height="24.65" shape-rendering="crispEdges"/><rect fill="#14110c" x="12.2" y="74.7" width="12.2" height="24.65" shape-rendering="crispEdges"/><rect fill="#14110c" x="24.4" y="74.7" width="902.8" height="24.65" shape-rendering="crispEdges"/><rect fill="#14110c" x="927.2" y="74.7" width="24.4" height="24.65" shape-rendering="crispEdges"/><rect fill="#14110c" x="951.6" y="74.7" width="12.2" height="24.65" shape-rendering="crispEdges"/><rect fill="#14110c" x="963.8" y="74.7" width="12.2" height="24.65" shape-rendering="crispEdges"/><rect fill="#14110c" x="0" y="99.1" width="12.2" height="24.65" shape-rendering="crispEdges"/><rect fill="#14110c" x="12.2" y="99.1" width="12.2" height="24.65" shape-rendering="crispEdges"/><rect fill="#14110c" x="24.4" y="99.1" width="927.2" height="24.65" shape-rendering="crispEdges"/><rect fill="#14110c" x="951.6" y="99.1" width="12.2" height="24.65" shape-rendering="crispEdges"/><rect fill="#14110c" x="963.8" y="99.1" width="12.2" height="24.65" shape-rendering="crispEdges"/><rect fill="#14110c" x="0" y="123.5" width="12.2" height="24.65" shape-rendering="crispEdges"/><rect fill="#14110c" x="12.2" y="123.5" width="12.2" height="24.65" shape-rendering="crispEdges"/><rect fill="#14110c" x="24.4" y="123.5" width="61" height="24.65" shape-rendering="crispEdges"/><rect fill="#14110c" x="85.4" y="123.5" width="353.8" height="24.65" shape-rendering="crispEdges"/><rect fill="#14110c" x="439.2" y="123.5" width="292.8" height="24.65" shape-rendering="crispEdges"/><rect fill="#14110c" x="732" y="123.5" width="207.4" height="24.65" shape-rendering="crispEdges"/><rect fill="#3b3527" x="939.4" y="123.5" width="12.2" height="24.65" shape-rendering="crispEdges"/><rect fill="#14110c" x="951.6" y="123.5" width="12.2" height="24.65" shape-rendering="crispEdges"/><rect fill="#14110c" x="963.8" y="123.5" width="12.2" height="24.65" shape-rendering="crispEdges"/><rect fill="#14110c" x="0" y="147.9" width="12.2" height="24.65" shape-rendering="crispEdges"/><rect fill="#14110c" x="12.2" y="147.9" width="12.2" height="24.65" shape-rendering="crispEdges"/><rect fill="#14110c" x="24.4" y="147.9" width="24.4" height="24.65" shape-rendering="crispEdges"/><rect fill="#14110c" x="48.8" y="147.9" width="24.4" height="24.65" shape-rendering="crispEdges"/><rect fill="#14110c" x="73.2" y="147.9" width="195.2" height="24.65" shape-rendering="crispEdges"/><rect fill="#14110c" x="268.4" y="147.9" width="170.8" height="24.65" shape-rendering="crispEdges"/><rect fill="#14110c" x="439.2" y="147.9" width="109.8" height="24.65" shape-rendering="crispEdges"/><rect fill="#14110c" x="549" y="147.9" width="390.4" height="24.65" shape-rendering="crispEdges"/><rect fill="#3b3527" x="939.4" y="147.9" width="12.2" height="24.65" shape-rendering="crispEdges"/><rect fill="#14110c" x="951.6" y="147.9" width="12.2" height="24.65" shape-rendering="crispEdges"/><rect fill="#14110c" x="963.8" y="147.9" width="12.2" height="24.65" shape-rendering="crispEdges"/><rect fill="#14110c" x="0" y="172.3" width="12.2" height="24.65" shape-rendering="crispEdges"/><rect fill="#14110c" x="12.2" y="172.3" width="12.2" height="24.65" shape-rendering="crispEdges"/><rect fill="#14110c" x="24.4" y="172.3" width="24.4" height="24.65" shape-rendering="crispEdges"/><rect fill="#14110c" x="48.8" y="172.3" width="24.4" height="24.65" shape-rendering="crispEdges"/><rect fill="#14110c" x="73.2" y="172.3" width="158.6" height="24.65" shape-rendering="crispEdges"/><rect fill="#14110c" x="231.8" y="172.3" width="207.4" height="24.65" shape-rendering="crispEdges"/><rect fill="#14110c" x="439.2" y="172.3" width="158.6" height="24.65" shape-rendering="crispEdges"/><rect fill="#14110c" x="597.8" y="172.3" width="341.6" height="24.65" shape-rendering="crispEdges"/><rect fill="#14110c" x="939.4" y="172.3" width="12.2" height="24.65" shape-rendering="crispEdges"/><rect fill="#14110c" x="951.6" y="172.3" width="12.2" height="24.65" shape-rendering="crispEdges"/><rect fill="#14110c" x="963.8" y="172.3" width="12.2" height="24.65" shape-rendering="crispEdges"/><rect fill="#14110c" x="0" y="196.7" width="12.2" height="24.65" shape-rendering="crispEdges"/><rect fill="#14110c" x="12.2" y="196.7" width="12.2" height="24.65" shape-rendering="crispEdges"/><rect fill="#14110c" x="24.4" y="196.7" width="24.4" height="24.65" shape-rendering="crispEdges"/><rect fill="#14110c" x="48.8" y="196.7" width="24.4" height="24.65" shape-rendering="crispEdges"/><rect fill="#14110c" x="73.2" y="196.7" width="219.6" height="24.65" shape-rendering="crispEdges"/><rect fill="#14110c" x="292.8" y="196.7" width="146.4" height="24.65" shape-rendering="crispEdges"/><rect fill="#14110c" x="439.2" y="196.7" width="109.8" height="24.65" shape-rendering="crispEdges"/><rect fill="#14110c" x="549" y="196.7" width="390.4" height="24.65" shape-rendering="crispEdges"/><rect fill="#14110c" x="939.4" y="196.7" width="12.2" height="24.65" shape-rendering="crispEdges"/><rect fill="#14110c" x="951.6" y="196.7" width="12.2" height="24.65" shape-rendering="crispEdges"/><rect fill="#14110c" x="963.8" y="196.7" width="12.2" height="24.65" shape-rendering="crispEdges"/><rect fill="#14110c" x="0" y="221.1" width="12.2" height="24.65" shape-rendering="crispEdges"/><rect fill="#14110c" x="12.2" y="221.1" width="12.2" height="24.65" shape-rendering="crispEdges"/><rect fill="#14110c" x="24.4" y="221.1" width="219.6" height="24.65" shape-rendering="crispEdges"/><rect fill="#14110c" x="244" y="221.1" width="195.2" height="24.65" shape-rendering="crispEdges"/><rect fill="#14110c" x="439.2" y="221.1" width="317.2" height="24.65" shape-rendering="crispEdges"/><rect fill="#14110c" x="756.4" y="221.1" width="183" height="24.65" shape-rendering="crispEdges"/><rect fill="#14110c" x="939.4" y="221.1" width="12.2" height="24.65" shape-rendering="crispEdges"/><rect fill="#14110c" x="951.6" y="221.1" width="12.2" height="24.65" shape-rendering="crispEdges"/><rect fill="#14110c" x="963.8" y="221.1" width="12.2" height="24.65" shape-rendering="crispEdges"/><rect fill="#14110c" x="0" y="245.5" width="12.2" height="24.65" shape-rendering="crispEdges"/><rect fill="#14110c" x="12.2" y="245.5" width="12.2" height="24.65" shape-rendering="crispEdges"/><rect fill="#14110c" x="24.4" y="245.5" width="24.4" height="24.65" shape-rendering="crispEdges"/><rect fill="#14110c" x="48.8" y="245.5" width="24.4" height="24.65" shape-rendering="crispEdges"/><rect fill="#14110c" x="73.2" y="245.5" width="219.6" height="24.65" shape-rendering="crispEdges"/><rect fill="#14110c" x="292.8" y="245.5" width="146.4" height="24.65" shape-rendering="crispEdges"/><rect fill="#14110c" x="439.2" y="245.5" width="24.4" height="24.65" shape-rendering="crispEdges"/><rect fill="#14110c" x="463.6" y="245.5" width="475.8" height="24.65" shape-rendering="crispEdges"/><rect fill="#14110c" x="939.4" y="245.5" width="12.2" height="24.65" shape-rendering="crispEdges"/><rect fill="#14110c" x="951.6" y="245.5" width="12.2" height="24.65" shape-rendering="crispEdges"/><rect fill="#14110c" x="963.8" y="245.5" width="12.2" height="24.65" shape-rendering="crispEdges"/><rect fill="#14110c" x="0" y="269.9" width="12.2" height="24.65" shape-rendering="crispEdges"/><rect fill="#14110c" x="12.2" y="269.9" width="12.2" height="24.65" shape-rendering="crispEdges"/><rect fill="#14110c" x="24.4" y="269.9" width="24.4" height="24.65" shape-rendering="crispEdges"/><rect fill="#14110c" x="48.8" y="269.9" width="24.4" height="24.65" shape-rendering="crispEdges"/><rect fill="#14110c" x="73.2" y="269.9" width="134.2" height="24.65" shape-rendering="crispEdges"/><rect fill="#14110c" x="207.4" y="269.9" width="231.8" height="24.65" shape-rendering="crispEdges"/><rect fill="#14110c" x="439.2" y="269.9" width="12.2" height="24.65" shape-rendering="crispEdges"/><rect fill="#14110c" x="451.4" y="269.9" width="12.2" height="24.65" shape-rendering="crispEdges"/><rect fill="#14110c" x="463.6" y="269.9" width="36.6" height="24.65" shape-rendering="crispEdges"/><rect fill="#14110c" x="500.2" y="269.9" width="402.6" height="24.65" shape-rendering="crispEdges"/><rect fill="#14110c" x="902.8" y="269.9" width="36.6" height="24.65" shape-rendering="crispEdges"/><rect fill="#14110c" x="939.4" y="269.9" width="12.2" height="24.65" shape-rendering="crispEdges"/><rect fill="#14110c" x="951.6" y="269.9" width="12.2" height="24.65" shape-rendering="crispEdges"/><rect fill="#14110c" x="963.8" y="269.9" width="12.2" height="24.65" shape-rendering="crispEdges"/><rect fill="#14110c" x="0" y="294.3" width="12.2" height="24.65" shape-rendering="crispEdges"/><rect fill="#14110c" x="12.2" y="294.3" width="12.2" height="24.65" shape-rendering="crispEdges"/><rect fill="#14110c" x="24.4" y="294.3" width="24.4" height="24.65" shape-rendering="crispEdges"/><rect fill="#14110c" x="48.8" y="294.3" width="24.4" height="24.65" shape-rendering="crispEdges"/><rect fill="#14110c" x="73.2" y="294.3" width="183" height="24.65" shape-rendering="crispEdges"/><rect fill="#14110c" x="256.2" y="294.3" width="183" height="24.65" shape-rendering="crispEdges"/><rect fill="#14110c" x="439.2" y="294.3" width="36.6" height="24.65" shape-rendering="crispEdges"/><rect fill="#14110c" x="475.8" y="294.3" width="463.6" height="24.65" shape-rendering="crispEdges"/><rect fill="#14110c" x="939.4" y="294.3" width="12.2" height="24.65" shape-rendering="crispEdges"/><rect fill="#14110c" x="951.6" y="294.3" width="12.2" height="24.65" shape-rendering="crispEdges"/><rect fill="#14110c" x="963.8" y="294.3" width="12.2" height="24.65" shape-rendering="crispEdges"/><rect fill="#14110c" x="0" y="318.7" width="12.2" height="24.65" shape-rendering="crispEdges"/><rect fill="#14110c" x="12.2" y="318.7" width="12.2" height="24.65" shape-rendering="crispEdges"/><rect fill="#14110c" x="24.4" y="318.7" width="927.2" height="24.65" shape-rendering="crispEdges"/><rect fill="#14110c" x="951.6" y="318.7" width="12.2" height="24.65" shape-rendering="crispEdges"/><rect fill="#14110c" x="963.8" y="318.7" width="12.2" height="24.65" shape-rendering="crispEdges"/><rect fill="#14110c" x="0" y="343.1" width="12.2" height="24.65" shape-rendering="crispEdges"/><rect fill="#14110c" x="12.2" y="343.1" width="12.2" height="24.65" shape-rendering="crispEdges"/><rect fill="#14110c" x="24.4" y="343.1" width="231.8" height="24.65" shape-rendering="crispEdges"/><rect fill="#14110c" x="256.2" y="343.1" width="695.4" height="24.65" shape-rendering="crispEdges"/><rect fill="#14110c" x="951.6" y="343.1" width="12.2" height="24.65" shape-rendering="crispEdges"/><rect fill="#14110c" x="963.8" y="343.1" width="12.2" height="24.65" shape-rendering="crispEdges"/><rect fill="#14110c" x="0" y="367.5" width="12.2" height="24.65" shape-rendering="crispEdges"/><rect fill="#14110c" x="12.2" y="367.5" width="12.2" height="24.65" shape-rendering="crispEdges"/><rect fill="#14110c" x="24.4" y="367.5" width="927.2" height="24.65" shape-rendering="crispEdges"/><rect fill="#14110c" x="951.6" y="367.5" width="12.2" height="24.65" shape-rendering="crispEdges"/><rect fill="#14110c" x="963.8" y="367.5" width="12.2" height="24.65" shape-rendering="crispEdges"/><rect fill="#14110c" x="0" y="391.9" width="12.2" height="24.65" shape-rendering="crispEdges"/><rect fill="#14110c" x="12.2" y="391.9" width="12.2" height="24.65" shape-rendering="crispEdges"/><rect fill="#14110c" x="24.4" y="391.9" width="24.4" height="24.65" shape-rendering="crispEdges"/><rect fill="#14110c" x="48.8" y="391.9" width="73.2" height="24.65" shape-rendering="crispEdges"/><rect fill="#14110c" x="122" y="391.9" width="36.6" height="24.65" shape-rendering="crispEdges"/><rect fill="#14110c" x="158.6" y="391.9" width="61" height="24.65" shape-rendering="crispEdges"/><rect fill="#14110c" x="219.6" y="391.9" width="73.2" height="24.65" shape-rendering="crispEdges"/><rect fill="#14110c" x="292.8" y="391.9" width="24.4" height="24.65" shape-rendering="crispEdges"/><rect fill="#14110c" x="317.2" y="391.9" width="36.6" height="24.65" shape-rendering="crispEdges"/><rect fill="#14110c" x="353.8" y="391.9" width="12.2" height="24.65" shape-rendering="crispEdges"/><rect fill="#14110c" x="366" y="391.9" width="109.8" height="24.65" shape-rendering="crispEdges"/><rect fill="#14110c" x="475.8" y="391.9" width="36.6" height="24.65" shape-rendering="crispEdges"/><rect fill="#14110c" x="512.4" y="391.9" width="36.6" height="24.65" shape-rendering="crispEdges"/><rect fill="#14110c" x="549" y="391.9" width="256.2" height="24.65" shape-rendering="crispEdges"/><rect fill="#14110c" x="805.2" y="391.9" width="146.4" height="24.65" shape-rendering="crispEdges"/><rect fill="#14110c" x="951.6" y="391.9" width="12.2" height="24.65" shape-rendering="crispEdges"/><rect fill="#14110c" x="963.8" y="391.9" width="12.2" height="24.65" shape-rendering="crispEdges"/><rect fill="#14110c" x="0" y="416.3" width="12.2" height="24.65" shape-rendering="crispEdges"/><rect fill="#14110c" x="12.2" y="416.3" width="951.6" height="24.65" shape-rendering="crispEdges"/><rect fill="#14110c" x="963.8" y="416.3" width="12.2" height="24.65" shape-rendering="crispEdges"/><rect fill="#14110c" x="0" y="440.7" width="12.2" height="24.65" shape-rendering="crispEdges"/><rect fill="#1e1a14" x="12.2" y="440.7" width="951.6" height="24.65" shape-rendering="crispEdges"/><rect fill="#14110c" x="963.8" y="440.7" width="12.2" height="24.65" shape-rendering="crispEdges"/><rect fill="#14110c" x="0" y="465.1" width="12.2" height="24.65" shape-rendering="crispEdges"/><rect fill="#1e1a14" x="12.2" y="465.1" width="12.2" height="24.65" shape-rendering="crispEdges"/><rect fill="#1e1a14" x="24.4" y="465.1" width="12.2" height="24.65" shape-rendering="crispEdges"/><rect fill="#1e1a14" x="36.6" y="465.1" width="12.2" height="24.65" shape-rendering="crispEdges"/><rect fill="#1e1a14" x="48.8" y="465.1" width="12.2" height="24.65" shape-rendering="crispEdges"/><rect fill="#1e1a14" x="61" y="465.1" width="366" height="24.65" shape-rendering="crispEdges"/><rect fill="#1e1a14" x="427" y="465.1" width="512.4" height="24.65" shape-rendering="crispEdges"/><rect fill="#1e1a14" x="939.4" y="465.1" width="12.2" height="24.65" shape-rendering="crispEdges"/><rect fill="#1e1a14" x="951.6" y="465.1" width="12.2" height="24.65" shape-rendering="crispEdges"/><rect fill="#14110c" x="963.8" y="465.1" width="12.2" height="24.65" shape-rendering="crispEdges"/><rect fill="#14110c" x="0" y="489.5" width="12.2" height="24.65" shape-rendering="crispEdges"/><rect fill="#1e1a14" x="12.2" y="489.5" width="12.2" height="24.65" shape-rendering="crispEdges"/><rect fill="#1e1a14" x="24.4" y="489.5" width="927.2" height="24.65" shape-rendering="crispEdges"/><rect fill="#1e1a14" x="951.6" y="489.5" width="12.2" height="24.65" shape-rendering="crispEdges"/><rect fill="#14110c" x="963.8" y="489.5" width="12.2" height="24.65" shape-rendering="crispEdges"/><rect fill="#14110c" x="0" y="513.9" width="12.2" height="24.65" shape-rendering="crispEdges"/><rect fill="#1e1a14" x="12.2" y="513.9" width="12.2" height="24.65" shape-rendering="crispEdges"/><rect fill="#1e1a14" x="24.4" y="513.9" width="24.4" height="24.65" shape-rendering="crispEdges"/><rect fill="#1e1a14" x="48.8" y="513.9" width="122" height="24.65" shape-rendering="crispEdges"/><rect fill="#1e1a14" x="170.8" y="513.9" width="36.6" height="24.65" shape-rendering="crispEdges"/><rect fill="#1e1a14" x="207.4" y="513.9" width="24.4" height="24.65" shape-rendering="crispEdges"/><rect fill="#1e1a14" x="231.8" y="513.9" width="488" height="24.65" shape-rendering="crispEdges"/><rect fill="#1e1a14" x="719.8" y="513.9" width="207.4" height="24.65" shape-rendering="crispEdges"/><rect fill="#1e1a14" x="927.2" y="513.9" width="12.2" height="24.65" shape-rendering="crispEdges"/><rect fill="#1e1a14" x="939.4" y="513.9" width="12.2" height="24.65" shape-rendering="crispEdges"/><rect fill="#1e1a14" x="951.6" y="513.9" width="12.2" height="24.65" shape-rendering="crispEdges"/><rect fill="#14110c" x="963.8" y="513.9" width="12.2" height="24.65" shape-rendering="crispEdges"/><rect fill="#14110c" x="0" y="538.3" width="12.2" height="24.65" shape-rendering="crispEdges"/><rect fill="#1e1a14" x="12.2" y="538.3" width="951.6" height="24.65" shape-rendering="crispEdges"/><rect fill="#14110c" x="963.8" y="538.3" width="12.2" height="24.65" shape-rendering="crispEdges"/><rect fill="#14110c" x="0" y="562.7" width="976" height="24.65" shape-rendering="crispEdges"/>
    <g class="terminal-2232222407-matrix">
    <text class="terminal-2232222407-r1" x="976" y="20" textLength="12.2" clip-path="url(#terminal-2232222407-line-0)">
</text><text class="terminal-2232222407-r1" x="976" y="44.4" textLength="12.2" clip-path="url(#terminal-2232222407-line-1)">
</text><text class="terminal-2232222407-r2" x="24.4" y="68.8" textLength="97.6" clip-path="url(#terminal-2232222407-line-2)">settings</text><text class="terminal-2232222407-r3" x="122" y="68.8" textLength="61" clip-path="url(#terminal-2232222407-line-2)">&#160;&#160;·&#160;&#160;</text><text class="terminal-2232222407-r4" x="183" y="68.8" textLength="732" clip-path="url(#terminal-2232222407-line-2)">/var/folders/qd/1q2xkcls0tg60vh97jjngxc40000gn/T/lo-setting…</text><text class="terminal-2232222407-r1" x="976" y="68.8" textLength="12.2" clip-path="url(#terminal-2232222407-line-2)">
</text><text class="terminal-2232222407-r4" x="24.4" y="93.2" textLength="902.8" clip-path="url(#terminal-2232222407-line-3)">──────────────────────────────────────────────────────────────────────────</text><text class="terminal-2232222407-r1" x="976" y="93.2" textLength="12.2" clip-path="url(#terminal-2232222407-line-3)">
</text><text class="terminal-2232222407-r1" x="976" y="117.6" textLength="12.2" clip-path="url(#terminal-2232222407-line-4)">
</text><text class="terminal-2232222407-r2" x="24.4" y="142" textLength="61" clip-path="url(#terminal-2232222407-line-5)">Model</text><text class="terminal-2232222407-r4" x="439.2" y="142" textLength="292.8" clip-path="url(#terminal-2232222407-line-5)">takes&#160;effect:&#160;new&#160;launch</text><text class="terminal-2232222407-r1" x="976" y="142" textLength="12.2" clip-path="url(#terminal-2232222407-line-5)">
</text><text class="terminal-2232222407-r3" x="73.2" y="166.4" textLength="195.2" clip-path="url(#terminal-2232222407-line-6)">Default&#160;provider</text><text class="terminal-2232222407-r5" x="439.2" y="166.4" textLength="109.8" clip-path="url(#terminal-2232222407-line-6)">anthropic</text><text class="terminal-2232222407-r6" x="939.4" y="166.4" textLength="12.2" clip-path="url(#terminal-2232222407-line-6)">▇</text><text class="terminal-2232222407-r1" x="976" y="166.4" textLength="12.2" clip-path="url(#terminal-2232222407-line-6)">
</text><text class="terminal-2232222407-r3" x="73.2" y="190.8" textLength="158.6" clip-path="url(#terminal-2232222407-line-7)">Default&#160;model</text><text class="terminal-2232222407-r5" x="439.2" y="190.8" textLength="158.6" clip-path="url(#terminal-2232222407-line-7)">claude-opus-5</text><text class="terminal-2232222407-r1" x="976" y="190.8" textLength="12.2" clip-path="url(#terminal-2232222407-line-7)">
</text><text class="terminal-2232222407-r3" x="73.2" y="215.2" textLength="219.6" clip-path="url(#terminal-2232222407-line-8)">OpenAI&#160;API&#160;surface</text><text class="terminal-2232222407-r4" x="439.2" y="215.2" textLength="109.8" clip-path="url(#terminal-2232222407-line-8)">responses</text><text class="terminal-2232222407-r1" x="976" y="215.2" textLength="12.2" clip-path="url(#terminal-2232222407-line-8)">
</text><text class="terminal-2232222407-r2" x="24.4" y="239.6" textLength="219.6" clip-path="url(#terminal-2232222407-line-9)">Failover&#160;and&#160;retry</text><text class="terminal-2232222407-r4" x="439.2" y="239.6" textLength="317.2" clip-path="url(#terminal-2232222407-line-9)">takes&#160;effect:&#160;new&#160;sessions</text><text class="terminal-2232222407-r1" x="976" y="239.6" textLength="12.2" clip-path="url(#terminal-2232222407-line-9)">
</text><text class="terminal-2232222407-r3" x="73.2" y="264" textLength="219.6" clip-path="url(#terminal-2232222407-line-10)">Retry&#160;failed&#160;calls</text><text class="terminal-2232222407-r4" x="439.2" y="264" textLength="24.4" clip-path="url(#terminal-2232222407-line-10)">on</text><text class="terminal-2232222407-r1" x="976" y="264" textLength="12.2" clip-path="url(#terminal-2232222407-line-10)">
</text><text class="terminal-2232222407-r7" x="48.8" y="288.4" textLength="24.4" clip-path="url(#terminal-2232222407-line-11)">›&#160;</text><text class="terminal-2232222407-r5" x="73.2" y="288.4" textLength="134.2" clip-path="url(#terminal-2232222407-line-11)">Max&#160;retries</text><text class="terminal-2232222407-r5" x="439.2" y="288.4" textLength="12.2" clip-path="url(#terminal-2232222407-line-11)">9</text><text class="terminal-2232222407-r7" x="451.4" y="288.4" textLength="12.2" clip-path="url(#terminal-2232222407-line-11)">▏</text><text class="terminal-2232222407-r5" x="463.6" y="288.4" textLength="36.6" clip-path="url(#terminal-2232222407-line-11)">999</text><text class="terminal-2232222407-r8" x="500.2" y="288.4" textLength="402.6" clip-path="url(#terminal-2232222407-line-11)">&#160;&#160;enter&#160;or&#160;↑↓&#160;saves&#160;·&#160;esc&#160;cancels</text><text class="terminal-2232222407-r1" x="976" y="288.4" textLength="12.2" clip-path="url(#terminal-2232222407-line-11)">
</text><text class="terminal-2232222407-r3" x="73.2" y="312.8" textLength="183" clip-path="url(#terminal-2232222407-line-12)">Base&#160;delay&#160;(ms)</text><text class="terminal-2232222407-r4" x="439.2" y="312.8" textLength="36.6" clip-path="url(#terminal-2232222407-line-12)">500</text><text class="terminal-2232222407-r1" x="976" y="312.8" textLength="12.2" clip-path="url(#terminal-2232222407-line-12)">
</text><text class="terminal-2232222407-r1" x="976" y="337.2" textLength="12.2" clip-path="url(#terminal-2232222407-line-13)">
</text><text class="terminal-2232222407-r9" x="24.4" y="361.6" textLength="231.8" clip-path="url(#terminal-2232222407-line-14)">must&#160;be&#160;at&#160;most&#160;100</text><text class="terminal-2232222407-r1" x="976" y="361.6" textLength="12.2" clip-path="url(#terminal-2232222407-line-14)">
</text><text class="terminal-2232222407-r1" x="976" y="386" textLength="12.2" clip-path="url(#terminal-2232222407-line-15)">
</text><text class="terminal-2232222407-r4" x="24.4" y="410.4" textLength="24.4" clip-path="url(#terminal-2232222407-line-16)">↑↓</text><text class="terminal-2232222407-r8" x="48.8" y="410.4" textLength="73.2" clip-path="url(#terminal-2232222407-line-16)">&#160;&#160;move</text><text class="terminal-2232222407-r8" x="122" y="410.4" textLength="36.6" clip-path="url(#terminal-2232222407-line-16)">&#160;·&#160;</text><text class="terminal-2232222407-r4" x="158.6" y="410.4" textLength="61" clip-path="url(#terminal-2232222407-line-16)">enter</text><text class="terminal-2232222407-r8" x="219.6" y="410.4" textLength="73.2" clip-path="url(#terminal-2232222407-line-16)">&#160;&#160;save</text><text class="terminal-2232222407-r8" x="317.2" y="410.4" textLength="36.6" clip-path="url(#terminal-2232222407-line-16)">&#160;·&#160;</text><text class="terminal-2232222407-r4" x="353.8" y="410.4" textLength="12.2" clip-path="url(#terminal-2232222407-line-16)">r</text><text class="terminal-2232222407-r8" x="366" y="410.4" textLength="109.8" clip-path="url(#terminal-2232222407-line-16)">&#160;&#160;default</text><text class="terminal-2232222407-r8" x="475.8" y="410.4" textLength="36.6" clip-path="url(#terminal-2232222407-line-16)">&#160;·&#160;</text><text class="terminal-2232222407-r4" x="512.4" y="410.4" textLength="36.6" clip-path="url(#terminal-2232222407-line-16)">esc</text><text class="terminal-2232222407-r8" x="549" y="410.4" textLength="256.2" clip-path="url(#terminal-2232222407-line-16)">&#160;back&#160;to&#160;conversation</text><text class="terminal-2232222407-r1" x="976" y="410.4" textLength="12.2" clip-path="url(#terminal-2232222407-line-16)">
</text><text class="terminal-2232222407-r1" x="976" y="434.8" textLength="12.2" clip-path="url(#terminal-2232222407-line-17)">
</text><text class="terminal-2232222407-r1" x="976" y="459.2" textLength="12.2" clip-path="url(#terminal-2232222407-line-18)">
</text><text class="terminal-2232222407-r10" x="24.4" y="483.6" textLength="12.2" clip-path="url(#terminal-2232222407-line-19)">❯</text><text class="terminal-2232222407-r4" x="61" y="483.6" textLength="366" clip-path="url(#terminal-2232222407-line-19)">Read-only&#160;—&#160;press&#160;esc&#160;to&#160;reply</text><text class="terminal-2232222407-r1" x="976" y="483.6" textLength="12.2" clip-path="url(#terminal-2232222407-line-19)">
</text><text class="terminal-2232222407-r1" x="976" y="508" textLength="12.2" clip-path="url(#terminal-2232222407-line-20)">
</text><text class="terminal-2232222407-r4" x="24.4" y="532.4" textLength="24.4" clip-path="url(#terminal-2232222407-line-21)">◆&#160;</text><text class="terminal-2232222407-r5" x="48.8" y="532.4" textLength="122" clip-path="url(#terminal-2232222407-line-21)">test/model</text><text class="terminal-2232222407-r8" x="170.8" y="532.4" textLength="36.6" clip-path="url(#terminal-2232222407-line-21)">&#160;›&#160;</text><text class="terminal-2232222407-r4" x="207.4" y="532.4" textLength="24.4" clip-path="url(#terminal-2232222407-line-21)">⌂&#160;</text><text class="terminal-2232222407-r11" x="231.8" y="532.4" textLength="488" clip-path="url(#terminal-2232222407-line-21)">~/local-operator-worktrees/settings-page</text><text class="terminal-2232222407-r12" x="927.2" y="532.4" textLength="12.2" clip-path="url(#terminal-2232222407-line-21)">!</text><text class="terminal-2232222407-r1" x="976" y="532.4" textLength="12.2" clip-path="url(#terminal-2232222407-line-21)">
</text><text class="terminal-2232222407-r1" x="976" y="556.8" textLength="12.2" clip-path="url(#terminal-2232222407-line-22)">
</text>
    </g>
    </g>
</svg>
