<svg xmlns="http://www.w3.org/2000/svg" class="rich-terminal" viewBox="0 0 528 510" width="528" height="510">
    
    <style>

    
    

    .terminal-2480250947-matrix {
        font-family: Menlo, DejaVu Sans Mono, monospace;
        font-size: 13.0px;
        line-height: 17.0px;
        font-variant-east-asian: full-width;
    }

    .terminal-2480250947-title {
        font-size: 13.0px;
        font-weight: bold;
        font-family: Menlo, DejaVu Sans Mono, monospace;
    }

    .terminal-2480250947-r1 { fill: #c5c8c6 }
.terminal-2480250947-r2 { fill: #837c6d }
.terminal-2480250947-r3 { fill: #e9e5db }
.terminal-2480250947-r4 { fill: #b5afa2 }
.terminal-2480250947-r5 { fill: #e0b04b }
.terminal-2480250947-r6 { fill: #4a4539 }
.terminal-2480250947-r7 { fill: #e0b04b;font-weight: bold }
.terminal-2480250947-r8 { fill: #1e1a14 }
.terminal-2480250947-r9 { fill: #6ea8d8 }
    </style>

    <defs>
    <clipPath id="terminal-2480250947-clip-terminal">
      <rect x="0" y="0" width="528" height="510" />
    </clipPath>
    <clipPath id="terminal-2480250947-line-0">
    <rect x="0" y="1.04508" width="528" height="17.1742" />
            </clipPath>
<clipPath id="terminal-2480250947-line-1">
    <rect x="0" y="18.0451" width="528" height="17.1742" />
            </clipPath>
<clipPath id="terminal-2480250947-line-2">
    <rect x="0" y="35.0451" width="528" height="17.1742" />
            </clipPath>
<clipPath id="terminal-2480250947-line-3">
    <rect x="0" y="52.0451" width="528" height="17.1742" />
            </clipPath>
<clipPath id="terminal-2480250947-line-4">
    <rect x="0" y="69.0451" width="528" height="17.1742" />
            </clipPath>
<clipPath id="terminal-2480250947-line-5">
    <rect x="0" y="86.0451" width="528" height="17.1742" />
            </clipPath>
<clipPath id="terminal-2480250947-line-6">
    <rect x="0" y="103.045" width="528" height="17.1742" />
            </clipPath>
<clipPath id="terminal-2480250947-line-7">
    <rect x="0" y="120.045" width="528" height="17.1742" />
            </clipPath>
<clipPath id="terminal-2480250947-line-8">
    <rect x="0" y="137.045" width="528" height="17.1742" />
            </clipPath>
<clipPath id="terminal-2480250947-line-9">
    <rect x="0" y="154.045" width="528" height="17.1742" />
            </clipPath>
<clipPath id="terminal-2480250947-line-10">
    <rect x="0" y="171.045" width="528" height="17.1742" />
            </clipPath>
<clipPath id="terminal-2480250947-line-11">
    <rect x="0" y="188.045" width="528" height="17.1742" />
            </clipPath>
<clipPath id="terminal-2480250947-line-12">
    <rect x="0" y="205.045" width="528" height="17.1742" />
            </clipPath>
<clipPath id="terminal-2480250947-line-13">
    <rect x="0" y="222.045" width="528" height="17.1742" />
            </clipPath>
<clipPath id="terminal-2480250947-line-14">
    <rect x="0" y="239.045" width="528" height="17.1742" />
            </clipPath>
<clipPath id="terminal-2480250947-line-15">
    <rect x="0" y="256.045" width="528" height="17.1742" />
            </clipPath>
<clipPath id="terminal-2480250947-line-16">
    <rect x="0" y="273.045" width="528" height="17.1742" />
            </clipPath>
<clipPath id="terminal-2480250947-line-17">
    <rect x="0" y="290.045" width="528" height="17.1742" />
            </clipPath>
<clipPath id="terminal-2480250947-line-18">
    <rect x="0" y="307.045" width="528" height="17.1742" />
            </clipPath>
<clipPath id="terminal-2480250947-line-19">
    <rect x="0" y="324.045" width="528" height="17.1742" />
            </clipPath>
<clipPath id="terminal-2480250947-line-20">
    <rect x="0" y="341.045" width="528" height="17.1742" />
            </clipPath>
<clipPath id="terminal-2480250947-line-21">
    <rect x="0" y="358.045" width="528" height="17.1742" />
            </clipPath>
<clipPath id="terminal-2480250947-line-22">
    <rect x="0" y="375.045" width="528" height="17.1742" />
            </clipPath>
<clipPath id="terminal-2480250947-line-23">
    <rect x="0" y="392.045" width="528" height="17.1742" />
            </clipPath>
<clipPath id="terminal-2480250947-line-24">
    <rect x="0" y="409.045" width="528" height="17.1742" />
            </clipPath>
<clipPath id="terminal-2480250947-line-25">
    <rect x="0" y="426.045" width="528" height="17.1742" />
            </clipPath>
<clipPath id="terminal-2480250947-line-26">
    <rect x="0" y="443.045" width="528" height="17.1742" />
            </clipPath>
<clipPath id="terminal-2480250947-line-27">
    <rect x="0" y="460.045" width="528" height="17.1742" />
            </clipPath>
<clipPath id="terminal-2480250947-line-28">
    <rect x="0" y="477.045" width="528" height="17.1742" />
            </clipPath>
    </defs>

    <g clip-path="url(#terminal-2480250947-clip-terminal)">
    <rect fill="#14110c" x="0" y="1.04508" width="528" height="17.1742" shape-rendering="crispEdges" /><rect fill="#14110c" x="0" y="18.0451" width="8" height="17.1742" shape-rendering="crispEdges" /><rect fill="#14110c" x="8" y="18.0451" width="8" height="17.1742" shape-rendering="crispEdges" /><rect fill="#14110c" x="16" y="18.0451" width="160" height="17.1742" shape-rendering="crispEdges" /><rect fill="#14110c" x="176" y="18.0451" width="176" height="17.1742" shape-rendering="crispEdges" /><rect fill="#14110c" x="352" y="18.0451" width="160" height="17.1742" shape-rendering="crispEdges" /><rect fill="#14110c" x="512" y="18.0451" width="8" height="17.1742" shape-rendering="crispEdges" /><rect fill="#14110c" x="520" y="18.0451" width="8" height="17.1742" shape-rendering="crispEdges" /><rect fill="#14110c" x="0" y="35.0451" width="8" height="17.1742" shape-rendering="crispEdges" /><rect fill="#14110c" x="8" y="35.0451" width="8" height="17.1742" shape-rendering="crispEdges" /><rect fill="#14110c" x="16" y="35.0451" width="160" height="17.1742" shape-rendering="crispEdges" /><rect fill="#14110c" x="176" y="35.0451" width="176" height="17.1742" shape-rendering="crispEdges" /><rect fill="#14110c" x="352" y="35.0451" width="160" height="17.1742" shape-rendering="crispEdges" /><rect fill="#14110c" x="512" y="35.0451" width="8" height="17.1742" shape-rendering="crispEdges" /><rect fill="#14110c" x="520" y="35.0451" width="8" height="17.1742" shape-rendering="crispEdges" /><rect fill="#14110c" x="0" y="52.0451" width="8" height="17.1742" shape-rendering="crispEdges" /><rect fill="#14110c" x="8" y="52.0451" width="8" height="17.1742" shape-rendering="crispEdges" /><rect fill="#14110c" x="16" y="52.0451" width="160" height="17.1742" shape-rendering="crispEdges" /><rect fill="#14110c" x="176" y="52.0451" width="176" height="17.1742" shape-rendering="crispEdges" /><rect fill="#14110c" x="352" y="52.0451" width="160" height="17.1742" shape-rendering="crispEdges" /><rect fill="#14110c" x="512" y="52.0451" width="8" height="17.1742" shape-rendering="crispEdges" /><rect fill="#14110c" x="520" y="52.0451" width="8" height="17.1742" shape-rendering="crispEdges" /><rect fill="#14110c" x="0" y="69.0451" width="8" height="17.1742" shape-rendering="crispEdges" /><rect fill="#14110c" x="8" y="69.0451" width="8" height="17.1742" shape-rendering="crispEdges" /><rect fill="#14110c" x="16" y="69.0451" width="160" height="17.1742" shape-rendering="crispEdges" /><rect fill="#14110c" x="176" y="69.0451" width="176" height="17.1742" shape-rendering="crispEdges" /><rect fill="#14110c" x="352" y="69.0451" width="160" height="17.1742" shape-rendering="crispEdges" /><rect fill="#14110c" x="512" y="69.0451" width="8" height="17.1742" shape-rendering="crispEdges" /><rect fill="#14110c" x="520" y="69.0451" width="8" height="17.1742" shape-rendering="crispEdges" /><rect fill="#14110c" x="0" y="86.0451" width="8" height="17.1742" shape-rendering="crispEdges" /><rect fill="#14110c" x="8" y="86.0451" width="8" height="17.1742" shape-rendering="crispEdges" /><rect fill="#14110c" x="16" y="86.0451" width="160" height="17.1742" shape-rendering="crispEdges" /><rect fill="#14110c" x="176" y="86.0451" width="176" height="17.1742" shape-rendering="crispEdges" /><rect fill="#14110c" x="352" y="86.0451" width="160" height="17.1742" shape-rendering="crispEdges" /><rect fill="#14110c" x="512" y="86.0451" width="8" height="17.1742" shape-rendering="crispEdges" /><rect fill="#14110c" x="520" y="86.0451" width="8" height="17.1742" shape-rendering="crispEdges" /><rect fill="#14110c" x="0" y="103.045" width="8" height="17.1742" shape-rendering="crispEdges" /><rect fill="#14110c" x="8" y="103.045" width="8" height="17.1742" shape-rendering="crispEdges" /><rect fill="#14110c" x="16" y="103.045" width="160" height="17.1742" shape-rendering="crispEdges" /><rect fill="#14110c" x="176" y="103.045" width="176" height="17.1742" shape-rendering="crispEdges" /><rect fill="#14110c" x="352" y="103.045" width="160" height="17.1742" shape-rendering="crispEdges" /><rect fill="#14110c" x="512" y="103.045" width="8" height="17.1742" shape-rendering="crispEdges" /><rect fill="#14110c" x="520" y="103.045" width="8" height="17.1742" shape-rendering="crispEdges" /><rect fill="#14110c" x="0" y="120.045" width="8" height="17.1742" shape-rendering="crispEdges" /><rect fill="#14110c" x="8" y="120.045" width="8" height="17.1742" shape-rendering="crispEdges" /><rect fill="#14110c" x="16" y="120.045" width="160" height="17.1742" shape-rendering="crispEdges" /><rect fill="#14110c" x="176" y="120.045" width="176" height="17.1742" shape-rendering="crispEdges" /><rect fill="#14110c" x="352" y="120.045" width="160" height="17.1742" shape-rendering="crispEdges" /><rect fill="#14110c" x="512" y="120.045" width="8" height="17.1742" shape-rendering="crispEdges" /><rect fill="#14110c" x="520" y="120.045" width="8" height="17.1742" shape-rendering="crispEdges" /><rect fill="#14110c" x="0" y="137.045" width="8" height="17.1742" shape-rendering="crispEdges" /><rect fill="#14110c" x="8" y="137.045" width="8" height="17.1742" shape-rendering="crispEdges" /><rect fill="#14110c" x="16" y="137.045" width="160" height="17.1742" shape-rendering="crispEdges" /><rect fill="#14110c" x="176" y="137.045" width="176" height="17.1742" shape-rendering="crispEdges" /><rect fill="#14110c" x="352" y="137.045" width="160" height="17.1742" shape-rendering="crispEdges" /><rect fill="#14110c" x="512" y="137.045" width="8" height="17.1742" shape-rendering="crispEdges" /><rect fill="#14110c" x="520" y="137.045" width="8" height="17.1742" shape-rendering="crispEdges" /><rect fill="#14110c" x="0" y="154.045" width="8" height="17.1742" shape-rendering="crispEdges" /><rect fill="#14110c" x="8" y="154.045" width="8" height="17.1742" shape-rendering="crispEdges" /><rect fill="#14110c" x="16" y="154.045" width="160" height="17.1742" shape-rendering="crispEdges" /><rect fill="#14110c" x="176" y="154.045" width="176" height="17.1742" shape-rendering="crispEdges" /><rect fill="#14110c" x="352" y="154.045" width="160" height="17.1742" shape-rendering="crispEdges" /><rect fill="#14110c" x="512" y="154.045" width="8" height="17.1742" shape-rendering="crispEdges" /><rect fill="#14110c" x="520" y="154.045" width="8" height="17.1742" shape-rendering="crispEdges" /><rect fill="#14110c" x="0" y="171.045" width="8" height="17.1742" shape-rendering="crispEdges" /><rect fill="#14110c" x="8" y="171.045" width="8" height="17.1742" shape-rendering="crispEdges" /><rect fill="#14110c" x="16" y="171.045" width="160" height="17.1742" shape-rendering="crispEdges" /><rect fill="#14110c" x="176" y="171.045" width="176" height="17.1742" shape-rendering="crispEdges" /><rect fill="#14110c" x="352" y="171.045" width="160" height="17.1742" shape-rendering="crispEdges" /><rect fill="#14110c" x="512" y="171.045" width="8" height="17.1742" shape-rendering="crispEdges" /><rect fill="#14110c" x="520" y="171.045" width="8" height="17.1742" shape-rendering="crispEdges" /><rect fill="#14110c" x="0" y="188.045" width="8" height="17.1742" shape-rendering="crispEdges" /><rect fill="#14110c" x="8" y="188.045" width="8" height="17.1742" shape-rendering="crispEdges" /><rect fill="#14110c" x="16" y="188.045" width="136" height="17.1742" shape-rendering="crispEdges" /><rect fill="#14110c" x="152" y="188.045" width="216" height="17.1742" shape-rendering="crispEdges" /><rect fill="#14110c" x="368" y="188.045" width="144" height="17.1742" shape-rendering="crispEdges" /><rect fill="#14110c" x="512" y="188.045" width="8" height="17.1742" shape-rendering="crispEdges" /><rect fill="#14110c" x="520" y="188.045" width="8" height="17.1742" shape-rendering="crispEdges" /><rect fill="#14110c" x="0" y="205.045" width="8" height="17.1742" shape-rendering="crispEdges" /><rect fill="#14110c" x="8" y="205.045" width="8" height="17.1742" shape-rendering="crispEdges" /><rect fill="#14110c" x="16" y="205.045" width="0" height="17.1742" shape-rendering="crispEdges" /><rect fill="#14110c" x="16" y="205.045" width="496" height="17.1742" shape-rendering="crispEdges" /><rect fill="#14110c" x="512" y="205.045" width="8" height="17.1742" shape-rendering="crispEdges" /><rect fill="#14110c" x="520" y="205.045" width="8" height="17.1742" shape-rendering="crispEdges" /><rect fill="#14110c" x="0" y="222.045" width="8" height="17.1742" shape-rendering="crispEdges" /><rect fill="#14110c" x="8" y="222.045" width="8" height="17.1742" shape-rendering="crispEdges" /><rect fill="#14110c" x="16" y="222.045" width="128" height="17.1742" shape-rendering="crispEdges" /><rect fill="#14110c" x="144" y="222.045" width="64" height="17.1742" shape-rendering="crispEdges" /><rect fill="#14110c" x="208" y="222.045" width="304" height="17.1742" shape-rendering="crispEdges" /><rect fill="#14110c" x="512" y="222.045" width="8" height="17.1742" shape-rendering="crispEdges" /><rect fill="#14110c" x="520" y="222.045" width="8" height="17.1742" shape-rendering="crispEdges" /><rect fill="#14110c" x="0" y="239.045" width="8" height="17.1742" shape-rendering="crispEdges" /><rect fill="#14110c" x="8" y="239.045" width="8" height="17.1742" shape-rendering="crispEdges" /><rect fill="#14110c" x="16" y="239.045" width="128" height="17.1742" shape-rendering="crispEdges" /><rect fill="#14110c" x="144" y="239.045" width="80" height="17.1742" shape-rendering="crispEdges" /><rect fill="#14110c" x="224" y="239.045" width="288" height="17.1742" shape-rendering="crispEdges" /><rect fill="#14110c" x="512" y="239.045" width="8" height="17.1742" shape-rendering="crispEdges" /><rect fill="#14110c" x="520" y="239.045" width="8" height="17.1742" shape-rendering="crispEdges" /><rect fill="#14110c" x="0" y="256.045" width="8" height="17.1742" shape-rendering="crispEdges" /><rect fill="#14110c" x="8" y="256.045" width="8" height="17.1742" shape-rendering="crispEdges" /><rect fill="#14110c" x="16" y="256.045" width="128" height="17.1742" shape-rendering="crispEdges" /><rect fill="#14110c" x="144" y="256.045" width="176" height="17.1742" shape-rendering="crispEdges" /><rect fill="#14110c" x="320" y="256.045" width="192" height="17.1742" shape-rendering="crispEdges" /><rect fill="#14110c" x="512" y="256.045" width="8" height="17.1742" shape-rendering="crispEdges" /><rect fill="#14110c" x="520" y="256.045" width="8" height="17.1742" shape-rendering="crispEdges" /><rect fill="#14110c" x="0" y="273.045" width="8" height="17.1742" shape-rendering="crispEdges" /><rect fill="#14110c" x="8" y="273.045" width="8" height="17.1742" shape-rendering="crispEdges" /><rect fill="#14110c" x="16" y="273.045" width="128" height="17.1742" shape-rendering="crispEdges" /><rect fill="#14110c" x="144" y="273.045" width="232" height="17.1742" shape-rendering="crispEdges" /><rect fill="#14110c" x="376" y="273.045" width="136" height="17.1742" shape-rendering="crispEdges" /><rect fill="#14110c" x="512" y="273.045" width="8" height="17.1742" shape-rendering="crispEdges" /><rect fill="#14110c" x="520" y="273.045" width="8" height="17.1742" shape-rendering="crispEdges" /><rect fill="#14110c" x="0" y="290.045" width="8" height="17.1742" shape-rendering="crispEdges" /><rect fill="#14110c" x="8" y="290.045" width="8" height="17.1742" shape-rendering="crispEdges" /><rect fill="#14110c" x="16" y="290.045" width="0" height="17.1742" shape-rendering="crispEdges" /><rect fill="#14110c" x="16" y="290.045" width="496" height="17.1742" shape-rendering="crispEdges" /><rect fill="#14110c" x="512" y="290.045" width="8" height="17.1742" shape-rendering="crispEdges" /><rect fill="#14110c" x="520" y="290.045" width="8" height="17.1742" shape-rendering="crispEdges" /><rect fill="#14110c" x="0" y="307.045" width="8" height="17.1742" shape-rendering="crispEdges" /><rect fill="#14110c" x="8" y="307.045" width="8" height="17.1742" shape-rendering="crispEdges" /><rect fill="#14110c" x="16" y="307.045" width="128" height="17.1742" shape-rendering="crispEdges" /><rect fill="#14110c" x="144" y="307.045" width="80" height="17.1742" shape-rendering="crispEdges" /><rect fill="#14110c" x="224" y="307.045" width="112" height="17.1742" shape-rendering="crispEdges" /><rect fill="#14110c" x="336" y="307.045" width="176" height="17.1742" shape-rendering="crispEdges" /><rect fill="#14110c" x="512" y="307.045" width="8" height="17.1742" shape-rendering="crispEdges" /><rect fill="#14110c" x="520" y="307.045" width="8" height="17.1742" shape-rendering="crispEdges" /><rect fill="#14110c" x="0" y="324.045" width="8" height="17.1742" shape-rendering="crispEdges" /><rect fill="#14110c" x="8" y="324.045" width="8" height="17.1742" shape-rendering="crispEdges" /><rect fill="#14110c" x="16" y="324.045" width="128" height="17.1742" shape-rendering="crispEdges" /><rect fill="#14110c" x="144" y="324.045" width="80" height="17.1742" shape-rendering="crispEdges" /><rect fill="#14110c" x="224" y="324.045" width="96" height="17.1742" shape-rendering="crispEdges" /><rect fill="#14110c" x="320" y="324.045" width="192" height="17.1742" shape-rendering="crispEdges" /><rect fill="#14110c" x="512" y="324.045" width="8" height="17.1742" shape-rendering="crispEdges" /><rect fill="#14110c" x="520" y="324.045" width="8" height="17.1742" shape-rendering="crispEdges" /><rect fill="#14110c" x="0" y="341.045" width="8" height="17.1742" shape-rendering="crispEdges" /><rect fill="#14110c" x="8" y="341.045" width="8" height="17.1742" shape-rendering="crispEdges" /><rect fill="#14110c" x="16" y="341.045" width="128" height="17.1742" shape-rendering="crispEdges" /><rect fill="#14110c" x="144" y="341.045" width="80" height="17.1742" shape-rendering="crispEdges" /><rect fill="#14110c" x="224" y="341.045" width="32" height="17.1742" shape-rendering="crispEdges" /><rect fill="#14110c" x="256" y="341.045" width="256" height="17.1742" shape-rendering="crispEdges" /><rect fill="#14110c" x="512" y="341.045" width="8" height="17.1742" shape-rendering="crispEdges" /><rect fill="#14110c" x="520" y="341.045" width="8" height="17.1742" shape-rendering="crispEdges" /><rect fill="#14110c" x="0" y="358.045" width="8" height="17.1742" shape-rendering="crispEdges" /><rect fill="#14110c" x="8" y="358.045" width="8" height="17.1742" shape-rendering="crispEdges" /><rect fill="#14110c" x="16" y="358.045" width="0" height="17.1742" shape-rendering="crispEdges" /><rect fill="#14110c" x="16" y="358.045" width="496" height="17.1742" shape-rendering="crispEdges" /><rect fill="#14110c" x="512" y="358.045" width="8" height="17.1742" shape-rendering="crispEdges" /><rect fill="#14110c" x="520" y="358.045" width="8" height="17.1742" shape-rendering="crispEdges" /><rect fill="#14110c" x="0" y="375.045" width="8" height="17.1742" shape-rendering="crispEdges" /><rect fill="#14110c" x="8" y="375.045" width="8" height="17.1742" shape-rendering="crispEdges" /><rect fill="#14110c" x="16" y="375.045" width="32" height="17.1742" shape-rendering="crispEdges" /><rect fill="#14110c" x="48" y="375.045" width="16" height="17.1742" shape-rendering="crispEdges" /><rect fill="#14110c" x="64" y="375.045" width="416" height="17.1742" shape-rendering="crispEdges" /><rect fill="#14110c" x="480" y="375.045" width="32" height="17.1742" shape-rendering="crispEdges" /><rect fill="#14110c" x="512" y="375.045" width="8" height="17.1742" shape-rendering="crispEdges" /><rect fill="#14110c" x="520" y="375.045" width="8" height="17.1742" shape-rendering="crispEdges" /><rect fill="#14110c" x="0" y="392.045" width="8" height="17.1742" shape-rendering="crispEdges" /><rect fill="#1e1a14" x="8" y="392.045" width="512" height="17.1742" shape-rendering="crispEdges" /><rect fill="#14110c" x="520" y="392.045" width="8" height="17.1742" shape-rendering="crispEdges" /><rect fill="#14110c" x="0" y="409.045" width="8" height="17.1742" shape-rendering="crispEdges" /><rect fill="#1e1a14" x="8" y="409.045" width="8" height="17.1742" shape-rendering="crispEdges" /><rect fill="#1e1a14" x="16" y="409.045" width="8" height="17.1742" shape-rendering="crispEdges" /><rect fill="#1e1a14" x="24" y="409.045" width="8" height="17.1742" shape-rendering="crispEdges" /><rect fill="#1e1a14" x="32" y="409.045" width="8" height="17.1742" shape-rendering="crispEdges" /><rect fill="#1e1a14" x="40" y="409.045" width="240" height="17.1742" shape-rendering="crispEdges" /><rect fill="#e9e5db" x="280" y="409.045" width="8" height="17.1742" shape-rendering="crispEdges" /><rect fill="#1e1a14" x="288" y="409.045" width="216" height="17.1742" shape-rendering="crispEdges" /><rect fill="#1e1a14" x="504" y="409.045" width="8" height="17.1742" shape-rendering="crispEdges" /><rect fill="#1e1a14" x="512" y="409.045" width="8" height="17.1742" shape-rendering="crispEdges" /><rect fill="#14110c" x="520" y="409.045" width="8" height="17.1742" shape-rendering="crispEdges" /><rect fill="#14110c" x="0" y="426.045" width="8" height="17.1742" shape-rendering="crispEdges" /><rect fill="#1e1a14" x="8" y="426.045" width="8" height="17.1742" shape-rendering="crispEdges" /><rect fill="#1e1a14" x="16" y="426.045" width="24" height="17.1742" shape-rendering="crispEdges" /><rect fill="#1e1a14" x="40" y="426.045" width="384" height="17.1742" shape-rendering="crispEdges" /><rect fill="#1e1a14" x="424" y="426.045" width="88" height="17.1742" shape-rendering="crispEdges" /><rect fill="#1e1a14" x="512" y="426.045" width="8" height="17.1742" shape-rendering="crispEdges" /><rect fill="#14110c" x="520" y="426.045" width="8" height="17.1742" shape-rendering="crispEdges" /><rect fill="#14110c" x="0" y="443.045" width="8" height="17.1742" shape-rendering="crispEdges" /><rect fill="#1e1a14" x="8" y="443.045" width="8" height="17.1742" shape-rendering="crispEdges" /><rect fill="#1e1a14" x="16" y="443.045" width="496" height="17.1742" shape-rendering="crispEdges" /><rect fill="#1e1a14" x="512" y="443.045" width="8" height="17.1742" shape-rendering="crispEdges" /><rect fill="#14110c" x="520" y="443.045" width="8" height="17.1742" shape-rendering="crispEdges" /><rect fill="#14110c" x="0" y="460.045" width="8" height="17.1742" shape-rendering="crispEdges" /><rect fill="#1e1a14" x="8" y="460.045" width="8" height="17.1742" shape-rendering="crispEdges" /><rect fill="#1e1a14" x="16" y="460.045" width="16" height="17.1742" shape-rendering="crispEdges" /><rect fill="#1e1a14" x="32" y="460.045" width="80" height="17.1742" shape-rendering="crispEdges" /><rect fill="#1e1a14" x="112" y="460.045" width="24" height="17.1742" shape-rendering="crispEdges" /><rect fill="#1e1a14" x="136" y="460.045" width="16" height="17.1742" shape-rendering="crispEdges" /><rect fill="#1e1a14" x="152" y="460.045" width="176" height="17.1742" shape-rendering="crispEdges" /><rect fill="#1e1a14" x="328" y="460.045" width="176" height="17.1742" shape-rendering="crispEdges" /><rect fill="#1e1a14" x="504" y="460.045" width="8" height="17.1742" shape-rendering="crispEdges" /><rect fill="#1e1a14" x="512" y="460.045" width="8" height="17.1742" shape-rendering="crispEdges" /><rect fill="#14110c" x="520" y="460.045" width="8" height="17.1742" shape-rendering="crispEdges" /><rect fill="#14110c" x="0" y="477.045" width="8" height="17.1742" shape-rendering="crispEdges" /><rect fill="#1e1a14" x="8" y="477.045" width="512" height="17.1742" shape-rendering="crispEdges" /><rect fill="#14110c" x="520" y="477.045" width="8" height="17.1742" shape-rendering="crispEdges" /><rect fill="#14110c" x="0" y="494.045" width="528" height="17.1742" shape-rendering="crispEdges" />
    <g class="terminal-2480250947-matrix">
    <text class="terminal-2480250947-r1" x="528" y="13.9344" clip-path="url(#terminal-2480250947-line-0)" xml:space="preserve"><tspan x="528">
</tspan></text><text class="terminal-2480250947-r2" x="176" y="30.9344" clip-path="url(#terminal-2480250947-line-1)" xml:space="preserve"><tspan x="176"> </tspan><tspan x="184"> </tspan><tspan x="192"> </tspan><tspan x="200"> </tspan><tspan x="208"> </tspan><tspan x="216">▄</tspan><tspan x="224">█</tspan><tspan x="232">█</tspan><tspan x="240">█</tspan><tspan x="248">█</tspan><tspan x="256">█</tspan><tspan x="264">▄</tspan><tspan x="272"> </tspan><tspan x="280"> </tspan><tspan x="288"> </tspan><tspan x="296"> </tspan><tspan x="304">▄</tspan><tspan x="312">▄</tspan><tspan x="320">█</tspan><tspan x="328">█</tspan><tspan x="336">▄</tspan><tspan x="344">▄</tspan></text><text class="terminal-2480250947-r1" x="528" y="30.9344" clip-path="url(#terminal-2480250947-line-1)" xml:space="preserve"><tspan x="528">
</tspan></text><text class="terminal-2480250947-r2" x="176" y="47.9344" clip-path="url(#terminal-2480250947-line-2)" xml:space="preserve"><tspan x="176"> </tspan><tspan x="184"> </tspan><tspan x="192"> </tspan><tspan x="200"> </tspan><tspan x="208">█</tspan><tspan x="216">█</tspan><tspan x="224"> </tspan><tspan x="232"> </tspan><tspan x="240"> </tspan><tspan x="248"> </tspan><tspan x="256"> </tspan><tspan x="264">█</tspan><tspan x="272">█</tspan><tspan x="280"> </tspan><tspan x="288"> </tspan><tspan x="296"> </tspan><tspan x="304">█</tspan><tspan x="312">█</tspan><tspan x="320"> </tspan><tspan x="328"> </tspan><tspan x="336">█</tspan><tspan x="344">█</tspan></text><text class="terminal-2480250947-r1" x="528" y="47.9344" clip-path="url(#terminal-2480250947-line-2)" xml:space="preserve"><tspan x="528">
</tspan></text><text class="terminal-2480250947-r2" x="176" y="64.9344" clip-path="url(#terminal-2480250947-line-3)" xml:space="preserve"><tspan x="176"> </tspan><tspan x="184"> </tspan><tspan x="192"> </tspan><tspan x="200"> </tspan><tspan x="208">█</tspan><tspan x="216">█</tspan><tspan x="224"> </tspan><tspan x="232"> </tspan><tspan x="240"> </tspan><tspan x="248"> </tspan><tspan x="256">▄</tspan><tspan x="264">█</tspan><tspan x="272">▀</tspan><tspan x="280"> </tspan><tspan x="288"> </tspan><tspan x="296"> </tspan><tspan x="304"> </tspan><tspan x="312">▀</tspan><tspan x="320">█</tspan><tspan x="328">█</tspan><tspan x="336">▀</tspan><tspan x="344"> </tspan></text><text class="terminal-2480250947-r1" x="528" y="64.9344" clip-path="url(#terminal-2480250947-line-3)" xml:space="preserve"><tspan x="528">
</tspan></text><text class="terminal-2480250947-r2" x="176" y="81.9344" clip-path="url(#terminal-2480250947-line-4)" xml:space="preserve"><tspan x="176"> </tspan><tspan x="184"> </tspan><tspan x="192"> </tspan><tspan x="200"> </tspan><tspan x="208">▄</tspan><tspan x="216">█</tspan><tspan x="224">█</tspan><tspan x="232">█</tspan><tspan x="240">█</tspan><tspan x="248">█</tspan><tspan x="256">█</tspan><tspan x="264">▄</tspan><tspan x="272"> </tspan><tspan x="280"> </tspan><tspan x="288"> </tspan><tspan x="296"> </tspan><tspan x="304"> </tspan><tspan x="312">█</tspan><tspan x="320">█</tspan><tspan x="328"> </tspan><tspan x="336"> </tspan><tspan x="344"> </tspan></text><text class="terminal-2480250947-r1" x="528" y="81.9344" clip-path="url(#terminal-2480250947-line-4)" xml:space="preserve"><tspan x="528">
</tspan></text><text class="terminal-2480250947-r2" x="176" y="98.9344" clip-path="url(#terminal-2480250947-line-5)" xml:space="preserve"><tspan x="176"> </tspan><tspan x="184"> </tspan><tspan x="192">▄</tspan><tspan x="200">█</tspan><tspan x="208">▀</tspan><tspan x="216">▀</tspan><tspan x="224"> </tspan><tspan x="232"> </tspan><tspan x="240"> </tspan><tspan x="248"> </tspan><tspan x="256"> </tspan><tspan x="264">▀</tspan><tspan x="272">█</tspan><tspan x="280">█</tspan><tspan x="288">█</tspan><tspan x="296">█</tspan><tspan x="304">█</tspan><tspan x="312">▀</tspan><tspan x="320"> </tspan><tspan x="328"> </tspan><tspan x="336"> </tspan><tspan x="344"> </tspan></text><text class="terminal-2480250947-r1" x="528" y="98.9344" clip-path="url(#terminal-2480250947-line-5)" xml:space="preserve"><tspan x="528">
</tspan></text><text class="terminal-2480250947-r2" x="176" y="115.934" clip-path="url(#terminal-2480250947-line-6)" xml:space="preserve"><tspan x="176"> </tspan><tspan x="184"> </tspan><tspan x="192">█</tspan><tspan x="200">█</tspan><tspan x="208"> </tspan><tspan x="216"> </tspan><tspan x="224"> </tspan><tspan x="232"> </tspan><tspan x="240"> </tspan><tspan x="248"> </tspan><tspan x="256"> </tspan><tspan x="264"> </tspan><tspan x="272">█</tspan><tspan x="280">█</tspan><tspan x="288"> </tspan><tspan x="296"> </tspan><tspan x="304"> </tspan><tspan x="312"> </tspan><tspan x="320"> </tspan><tspan x="328"> </tspan><tspan x="336"> </tspan><tspan x="344"> </tspan></text><text class="terminal-2480250947-r1" x="528" y="115.934" clip-path="url(#terminal-2480250947-line-6)" xml:space="preserve"><tspan x="528">
</tspan></text><text class="terminal-2480250947-r2" x="176" y="132.934" clip-path="url(#terminal-2480250947-line-7)" xml:space="preserve"><tspan x="176"> </tspan><tspan x="184"> </tspan><tspan x="192">█</tspan><tspan x="200">█</tspan><tspan x="208"> </tspan><tspan x="216"> </tspan><tspan x="224"> </tspan><tspan x="232"> </tspan><tspan x="240"> </tspan><tspan x="248"> </tspan><tspan x="256"> </tspan><tspan x="264"> </tspan><tspan x="272">█</tspan><tspan x="280">█</tspan><tspan x="288"> </tspan><tspan x="296"> </tspan><tspan x="304"> </tspan><tspan x="312"> </tspan><tspan x="320"> </tspan><tspan x="328"> </tspan><tspan x="336"> </tspan><tspan x="344"> </tspan></text><text class="terminal-2480250947-r1" x="528" y="132.934" clip-path="url(#terminal-2480250947-line-7)" xml:space="preserve"><tspan x="528">
</tspan></text><text class="terminal-2480250947-r2" x="176" y="149.934" clip-path="url(#terminal-2480250947-line-8)" xml:space="preserve"><tspan x="176">▄</tspan><tspan x="184">▄</tspan><tspan x="192">█</tspan><tspan x="200">█</tspan><tspan x="208">▄</tspan><tspan x="216"> </tspan><tspan x="224"> </tspan><tspan x="232"> </tspan><tspan x="240"> </tspan><tspan x="248"> </tspan><tspan x="256"> </tspan><tspan x="264"> </tspan><tspan x="272">█</tspan><tspan x="280">█</tspan><tspan x="288"> </tspan><tspan x="296"> </tspan><tspan x="304"> </tspan><tspan x="312"> </tspan><tspan x="320"> </tspan><tspan x="328"> </tspan><tspan x="336"> </tspan><tspan x="344"> </tspan></text><text class="terminal-2480250947-r1" x="528" y="149.934" clip-path="url(#terminal-2480250947-line-8)" xml:space="preserve"><tspan x="528">
</tspan></text><text class="terminal-2480250947-r2" x="176" y="166.934" clip-path="url(#terminal-2480250947-line-9)" xml:space="preserve"><tspan x="176">█</tspan><tspan x="184">█</tspan><tspan x="192"> </tspan><tspan x="200">▄</tspan><tspan x="208">█</tspan><tspan x="216"> </tspan><tspan x="224"> </tspan><tspan x="232"> </tspan><tspan x="240"> </tspan><tspan x="248"> </tspan><tspan x="256"> </tspan><tspan x="264"> </tspan><tspan x="272">█</tspan><tspan x="280">█</tspan><tspan x="288"> </tspan><tspan x="296"> </tspan><tspan x="304"> </tspan><tspan x="312"> </tspan><tspan x="320"> </tspan><tspan x="328"> </tspan><tspan x="336"> </tspan><tspan x="344"> </tspan></text><text class="terminal-2480250947-r1" x="528" y="166.934" clip-path="url(#terminal-2480250947-line-9)" xml:space="preserve"><tspan x="528">
</tspan></text><text class="terminal-2480250947-r2" x="176" y="183.934" clip-path="url(#terminal-2480250947-line-10)" xml:space="preserve"><tspan x="176"> </tspan><tspan x="184">▀</tspan><tspan x="192">▀</tspan><tspan x="200">▀</tspan><tspan x="208"> </tspan><tspan x="216"> </tspan><tspan x="224"> </tspan><tspan x="232"> </tspan><tspan x="240"> </tspan><tspan x="248"> </tspan><tspan x="256"> </tspan><tspan x="264"> </tspan><tspan x="272">█</tspan><tspan x="280">█</tspan><tspan x="288"> </tspan><tspan x="296"> </tspan><tspan x="304"> </tspan><tspan x="312"> </tspan><tspan x="320"> </tspan><tspan x="328"> </tspan><tspan x="336"> </tspan><tspan x="344"> </tspan></text><text class="terminal-2480250947-r1" x="528" y="183.934" clip-path="url(#terminal-2480250947-line-10)" xml:space="preserve"><tspan x="528">
</tspan></text><text class="terminal-2480250947-r3" x="152" y="200.934" clip-path="url(#terminal-2480250947-line-11)" xml:space="preserve"><tspan x="152">l</tspan><tspan x="160"> </tspan><tspan x="168">o</tspan><tspan x="176"> </tspan><tspan x="184">c</tspan><tspan x="192"> </tspan><tspan x="200">a</tspan><tspan x="208"> </tspan><tspan x="216">l</tspan><tspan x="224"> </tspan><tspan x="232"> </tspan><tspan x="240"> </tspan><tspan x="248">o</tspan><tspan x="256"> </tspan><tspan x="264">p</tspan><tspan x="272"> </tspan><tspan x="280">e</tspan><tspan x="288"> </tspan><tspan x="296">r</tspan><tspan x="304"> </tspan><tspan x="312">a</tspan><tspan x="320"> </tspan><tspan x="328">t</tspan><tspan x="336"> </tspan><tspan x="344">o</tspan><tspan x="352"> </tspan><tspan x="360">r</tspan></text><text class="terminal-2480250947-r1" x="528" y="200.934" clip-path="url(#terminal-2480250947-line-11)" xml:space="preserve"><tspan x="528">
</tspan></text><text class="terminal-2480250947-r1" x="528" y="217.934" clip-path="url(#terminal-2480250947-line-12)" xml:space="preserve"><tspan x="528">
</tspan></text><text class="terminal-2480250947-r2" x="144" y="234.934" clip-path="url(#terminal-2480250947-line-13)" xml:space="preserve"><tspan x="144">v</tspan><tspan x="152">0</tspan><tspan x="160">.</tspan><tspan x="168">4</tspan><tspan x="176">4</tspan><tspan x="184">.</tspan><tspan x="192">6</tspan><tspan x="200">6</tspan></text><text class="terminal-2480250947-r1" x="528" y="234.934" clip-path="url(#terminal-2480250947-line-13)" xml:space="preserve"><tspan x="528">
</tspan></text><text class="terminal-2480250947-r4" x="144" y="251.934" clip-path="url(#terminal-2480250947-line-14)" xml:space="preserve"><tspan x="144">t</tspan><tspan x="152">e</tspan><tspan x="160">s</tspan><tspan x="168">t</tspan><tspan x="176">/</tspan><tspan x="184">m</tspan><tspan x="192">o</tspan><tspan x="200">d</tspan><tspan x="208">e</tspan><tspan x="216">l</tspan></text><text class="terminal-2480250947-r1" x="528" y="251.934" clip-path="url(#terminal-2480250947-line-14)" xml:space="preserve"><tspan x="528">
</tspan></text><text class="terminal-2480250947-r2" x="144" y="268.934" clip-path="url(#terminal-2480250947-line-15)" xml:space="preserve"><tspan x="144">/</tspan><tspan x="152">p</tspan><tspan x="160">r</tspan><tspan x="168">i</tspan><tspan x="176">v</tspan><tspan x="184">a</tspan><tspan x="192">t</tspan><tspan x="200">e</tspan><tspan x="208">/</tspan><tspan x="216">t</tspan><tspan x="224">m</tspan><tspan x="232">p</tspan><tspan x="240">/</tspan><tspan x="248">d</tspan><tspan x="256">8</tspan><tspan x="264">9</tspan><tspan x="272">1</tspan><tspan x="280">r</tspan><tspan x="288">2</tspan><tspan x="296">/</tspan><tspan x="304">w</tspan><tspan x="312">t</tspan></text><text class="terminal-2480250947-r1" x="528" y="268.934" clip-path="url(#terminal-2480250947-line-15)" xml:space="preserve"><tspan x="528">
</tspan></text><text class="terminal-2480250947-r5" x="144" y="285.934" clip-path="url(#terminal-2480250947-line-16)" xml:space="preserve"><tspan x="144">!</tspan><tspan x="152"> </tspan><tspan x="160">l</tspan><tspan x="168">a</tspan><tspan x="176">t</tspan><tspan x="184">e</tspan><tspan x="192">s</tspan><tspan x="200">t</tspan><tspan x="208"> </tspan><tspan x="216">i</tspan><tspan x="224">s</tspan><tspan x="232"> </tspan><tspan x="240">v</tspan><tspan x="248">0</tspan><tspan x="256">.</tspan><tspan x="264">5</tspan><tspan x="272">3</tspan><tspan x="280">.</tspan><tspan x="288">6</tspan><tspan x="296"> </tspan><tspan x="304">—</tspan><tspan x="312"> </tspan><tspan x="320">/</tspan><tspan x="328">u</tspan><tspan x="336">p</tspan><tspan x="344">d</tspan><tspan x="352">a</tspan><tspan x="360">t</tspan><tspan x="368">e</tspan></text><text class="terminal-2480250947-r1" x="528" y="285.934" clip-path="url(#terminal-2480250947-line-16)" xml:space="preserve"><tspan x="528">
</tspan></text><text class="terminal-2480250947-r1" x="528" y="302.934" clip-path="url(#terminal-2480250947-line-17)" xml:space="preserve"><tspan x="528">
</tspan></text><text class="terminal-2480250947-r3" x="144" y="319.934" clip-path="url(#terminal-2480250947-line-18)" xml:space="preserve"><tspan x="144">/</tspan><tspan x="152"> </tspan><tspan x="160"> </tspan><tspan x="168"> </tspan><tspan x="176"> </tspan><tspan x="184"> </tspan><tspan x="192"> </tspan><tspan x="200"> </tspan><tspan x="208"> </tspan><tspan x="216"> </tspan></text><text class="terminal-2480250947-r4" x="224" y="319.934" clip-path="url(#terminal-2480250947-line-18)" xml:space="preserve"><tspan x="224">c</tspan><tspan x="232">o</tspan><tspan x="240">m</tspan><tspan x="248">m</tspan><tspan x="256">a</tspan><tspan x="264">n</tspan><tspan x="272">d</tspan><tspan x="280"> </tspan><tspan x="288">p</tspan><tspan x="296">i</tspan><tspan x="304">c</tspan><tspan x="312">k</tspan><tspan x="320">e</tspan><tspan x="328">r</tspan></text><text class="terminal-2480250947-r1" x="528" y="319.934" clip-path="url(#terminal-2480250947-line-18)" xml:space="preserve"><tspan x="528">
</tspan></text><text class="terminal-2480250947-r3" x="144" y="336.934" clip-path="url(#terminal-2480250947-line-19)" xml:space="preserve"><tspan x="144">/</tspan><tspan x="152">h</tspan><tspan x="160">e</tspan><tspan x="168">l</tspan><tspan x="176">p</tspan><tspan x="184"> </tspan><tspan x="192"> </tspan><tspan x="200"> </tspan><tspan x="208"> </tspan><tspan x="216"> </tspan></text><text class="terminal-2480250947-r4" x="224" y="336.934" clip-path="url(#terminal-2480250947-line-19)" xml:space="preserve"><tspan x="224">a</tspan><tspan x="232">l</tspan><tspan x="240">l</tspan><tspan x="248"> </tspan><tspan x="256">c</tspan><tspan x="264">o</tspan><tspan x="272">m</tspan><tspan x="280">m</tspan><tspan x="288">a</tspan><tspan x="296">n</tspan><tspan x="304">d</tspan><tspan x="312">s</tspan></text><text class="terminal-2480250947-r1" x="528" y="336.934" clip-path="url(#terminal-2480250947-line-19)" xml:space="preserve"><tspan x="528">
</tspan></text><text class="terminal-2480250947-r3" x="144" y="353.934" clip-path="url(#terminal-2480250947-line-20)" xml:space="preserve"><tspan x="144">c</tspan><tspan x="152">t</tspan><tspan x="160">r</tspan><tspan x="168">l</tspan><tspan x="176">+</tspan><tspan x="184">d</tspan><tspan x="192"> </tspan><tspan x="200"> </tspan><tspan x="208"> </tspan><tspan x="216"> </tspan></text><text class="terminal-2480250947-r4" x="224" y="353.934" clip-path="url(#terminal-2480250947-line-20)" xml:space="preserve"><tspan x="224">q</tspan><tspan x="232">u</tspan><tspan x="240">i</tspan><tspan x="248">t</tspan></text><text class="terminal-2480250947-r1" x="528" y="353.934" clip-path="url(#terminal-2480250947-line-20)" xml:space="preserve"><tspan x="528">
</tspan></text><text class="terminal-2480250947-r1" x="528" y="370.934" clip-path="url(#terminal-2480250947-line-21)" xml:space="preserve"><tspan x="528">
</tspan></text><text class="terminal-2480250947-r6" x="48" y="387.934" clip-path="url(#terminal-2480250947-line-22)" xml:space="preserve"><tspan x="48">·</tspan><tspan x="56"> </tspan></text><text class="terminal-2480250947-r2" x="64" y="387.934" clip-path="url(#terminal-2480250947-line-22)" xml:space="preserve"><tspan x="64">/</tspan><tspan x="72">r</tspan><tspan x="80">e</tspan><tspan x="88">s</tspan><tspan x="96">u</tspan><tspan x="104">m</tspan><tspan x="112">e</tspan><tspan x="120"> </tspan><tspan x="128">p</tspan><tspan x="136">i</tspan><tspan x="144">c</tspan><tspan x="152">k</tspan><tspan x="160">s</tspan><tspan x="168"> </tspan><tspan x="176">u</tspan><tspan x="184">p</tspan><tspan x="192"> </tspan><tspan x="200">a</tspan><tspan x="208"> </tspan><tspan x="216">r</tspan><tspan x="224">e</tspan><tspan x="232">c</tspan><tspan x="240">e</tspan><tspan x="248">n</tspan><tspan x="256">t</tspan><tspan x="264"> </tspan><tspan x="272">s</tspan><tspan x="280">e</tspan><tspan x="288">s</tspan><tspan x="296">s</tspan><tspan x="304">i</tspan><tspan x="312">o</tspan><tspan x="320">n</tspan><tspan x="328"> </tspan><tspan x="336">w</tspan><tspan x="344">h</tspan><tspan x="352">e</tspan><tspan x="360">r</tspan><tspan x="368">e</tspan><tspan x="376"> </tspan><tspan x="384">y</tspan><tspan x="392">o</tspan><tspan x="400">u</tspan><tspan x="408"> </tspan><tspan x="416">l</tspan><tspan x="424">e</tspan><tspan x="432">f</tspan><tspan x="440">t</tspan><tspan x="448"> </tspan><tspan x="456">o</tspan><tspan x="464">f</tspan><tspan x="472">f</tspan></text><text class="terminal-2480250947-r1" x="528" y="387.934" clip-path="url(#terminal-2480250947-line-22)" xml:space="preserve"><tspan x="528">
</tspan></text><text class="terminal-2480250947-r1" x="528" y="404.934" clip-path="url(#terminal-2480250947-line-23)" xml:space="preserve"><tspan x="528">
</tspan></text><text class="terminal-2480250947-r5" x="16" y="421.934" clip-path="url(#terminal-2480250947-line-24)" xml:space="preserve"><tspan x="16">•</tspan></text><text class="terminal-2480250947-r7" x="40" y="421.934" clip-path="url(#terminal-2480250947-line-24)" xml:space="preserve"><tspan x="40">/</tspan><tspan x="48">c</tspan><tspan x="56">r</tspan><tspan x="64">e</tspan><tspan x="72">d</tspan><tspan x="80">e</tspan><tspan x="88">n</tspan><tspan x="96">t</tspan><tspan x="104">i</tspan><tspan x="112">a</tspan><tspan x="120">l</tspan><tspan x="128"> </tspan><tspan x="136">•</tspan><tspan x="144">•</tspan><tspan x="152">•</tspan><tspan x="160">•</tspan><tspan x="168">•</tspan><tspan x="176">•</tspan><tspan x="184">•</tspan><tspan x="192">•</tspan><tspan x="200">•</tspan><tspan x="208">•</tspan><tspan x="216">•</tspan><tspan x="224">•</tspan><tspan x="232">•</tspan><tspan x="240">•</tspan><tspan x="248">•</tspan><tspan x="256">•</tspan><tspan x="264">•</tspan><tspan x="272">•</tspan></text><text class="terminal-2480250947-r1" x="528" y="421.934" clip-path="url(#terminal-2480250947-line-24)" xml:space="preserve"><tspan x="528">
</tspan></text><text class="terminal-2480250947-r2" x="40" y="438.934" clip-path="url(#terminal-2480250947-line-25)" xml:space="preserve"><tspan x="40">m</tspan><tspan x="48">a</tspan><tspan x="56">s</tspan><tspan x="64">k</tspan><tspan x="72">e</tspan><tspan x="80">d</tspan><tspan x="88"> </tspan><tspan x="96">a</tspan><tspan x="104">s</tspan><tspan x="112"> </tspan><tspan x="120">y</tspan><tspan x="128">o</tspan><tspan x="136">u</tspan><tspan x="144"> </tspan><tspan x="152">t</tspan><tspan x="160">y</tspan><tspan x="168">p</tspan><tspan x="176">e</tspan><tspan x="184"> </tspan><tspan x="192">—</tspan><tspan x="200"> </tspan><tspan x="208">E</tspan><tspan x="216">n</tspan><tspan x="224">t</tspan><tspan x="232">e</tspan><tspan x="240">r</tspan><tspan x="248"> </tspan><tspan x="256">c</tspan><tspan x="264">h</tspan><tspan x="272">i</tspan><tspan x="280">p</tspan><tspan x="288">s</tspan><tspan x="296"> </tspan><tspan x="304">i</tspan><tspan x="312">t</tspan><tspan x="320">,</tspan><tspan x="328"> </tspan><tspan x="336">E</tspan><tspan x="344">s</tspan><tspan x="352">c</tspan><tspan x="360"> </tspan><tspan x="368">c</tspan><tspan x="376">a</tspan><tspan x="384">n</tspan><tspan x="392">c</tspan><tspan x="400">e</tspan><tspan x="408">l</tspan><tspan x="416">s</tspan></text><text class="terminal-2480250947-r1" x="528" y="438.934" clip-path="url(#terminal-2480250947-line-25)" xml:space="preserve"><tspan x="528">
</tspan></text><text class="terminal-2480250947-r1" x="528" y="455.934" clip-path="url(#terminal-2480250947-line-26)" xml:space="preserve"><tspan x="528">
</tspan></text><text class="terminal-2480250947-r2" x="16" y="472.934" clip-path="url(#terminal-2480250947-line-27)" xml:space="preserve"><tspan x="16">◆</tspan><tspan x="24"> </tspan></text><text class="terminal-2480250947-r3" x="32" y="472.934" clip-path="url(#terminal-2480250947-line-27)" xml:space="preserve"><tspan x="32">t</tspan><tspan x="40">e</tspan><tspan x="48">s</tspan><tspan x="56">t</tspan><tspan x="64">/</tspan><tspan x="72">m</tspan><tspan x="80">o</tspan><tspan x="88">d</tspan><tspan x="96">e</tspan><tspan x="104">l</tspan></text><text class="terminal-2480250947-r6" x="112" y="472.934" clip-path="url(#terminal-2480250947-line-27)" xml:space="preserve"><tspan x="112"> </tspan><tspan x="120">›</tspan><tspan x="128"> </tspan></text><text class="terminal-2480250947-r2" x="136" y="472.934" clip-path="url(#terminal-2480250947-line-27)" xml:space="preserve"><tspan x="136">⌂</tspan><tspan x="144"> </tspan></text><text class="terminal-2480250947-r9" x="152" y="472.934" clip-path="url(#terminal-2480250947-line-27)" xml:space="preserve"><tspan x="152">/</tspan><tspan x="160">p</tspan><tspan x="168">r</tspan><tspan x="176">i</tspan><tspan x="184">v</tspan><tspan x="192">a</tspan><tspan x="200">t</tspan><tspan x="208">e</tspan><tspan x="216">/</tspan><tspan x="224">t</tspan><tspan x="232">m</tspan><tspan x="240">p</tspan><tspan x="248">/</tspan><tspan x="256">d</tspan><tspan x="264">8</tspan><tspan x="272">9</tspan><tspan x="280">1</tspan><tspan x="288">r</tspan><tspan x="296">2</tspan><tspan x="304">/</tspan><tspan x="312">w</tspan><tspan x="320">t</tspan></text><text class="terminal-2480250947-r1" x="528" y="472.934" clip-path="url(#terminal-2480250947-line-27)" xml:space="preserve"><tspan x="528">
</tspan></text><text class="terminal-2480250947-r1" x="528" y="489.934" clip-path="url(#terminal-2480250947-line-28)" xml:space="preserve"><tspan x="528">
</tspan></text>
    </g>
    </g>
</svg>