<svg xmlns="http://www.w3.org/2000/svg" class="rich-terminal" viewBox="0 0 640 510" width="640" height="510">
    
    <style>

    
    

    .terminal-3633895306-matrix {
        font-family: Menlo, DejaVu Sans Mono, monospace;
        font-size: 13.0px;
        line-height: 17.0px;
        font-variant-east-asian: full-width;
    }

    .terminal-3633895306-title {
        font-size: 13.0px;
        font-weight: bold;
        font-family: Menlo, DejaVu Sans Mono, monospace;
    }

    .terminal-3633895306-r1 { fill: #c5c8c6 }
.terminal-3633895306-r2 { fill: #837c6d }
.terminal-3633895306-r3 { fill: #e9e5db }
.terminal-3633895306-r4 { fill: #b5afa2 }
.terminal-3633895306-r5 { fill: #e0b04b }
.terminal-3633895306-r6 { fill: #4a4539 }
.terminal-3633895306-r7 { fill: #e0b04b;font-weight: bold }
.terminal-3633895306-r8 { fill: #1e1a14 }
.terminal-3633895306-r9 { fill: #6ea8d8 }
    </style>

    <defs>
    <clipPath id="terminal-3633895306-clip-terminal">
      <rect x="0" y="0" width="640" height="510" />
    </clipPath>
    <clipPath id="terminal-3633895306-line-0">
    <rect x="0" y="1.04508" width="640" height="17.1742" />
            </clipPath>
<clipPath id="terminal-3633895306-line-1">
    <rect x="0" y="18.0451" width="640" height="17.1742" />
            </clipPath>
<clipPath id="terminal-3633895306-line-2">
    <rect x="0" y="35.0451" width="640" height="17.1742" />
            </clipPath>
<clipPath id="terminal-3633895306-line-3">
    <rect x="0" y="52.0451" width="640" height="17.1742" />
            </clipPath>
<clipPath id="terminal-3633895306-line-4">
    <rect x="0" y="69.0451" width="640" height="17.1742" />
            </clipPath>
<clipPath id="terminal-3633895306-line-5">
    <rect x="0" y="86.0451" width="640" height="17.1742" />
            </clipPath>
<clipPath id="terminal-3633895306-line-6">
    <rect x="0" y="103.045" width="640" height="17.1742" />
            </clipPath>
<clipPath id="terminal-3633895306-line-7">
    <rect x="0" y="120.045" width="640" height="17.1742" />
            </clipPath>
<clipPath id="terminal-3633895306-line-8">
    <rect x="0" y="137.045" width="640" height="17.1742" />
            </clipPath>
<clipPath id="terminal-3633895306-line-9">
    <rect x="0" y="154.045" width="640" height="17.1742" />
            </clipPath>
<clipPath id="terminal-3633895306-line-10">
    <rect x="0" y="171.045" width="640" height="17.1742" />
            </clipPath>
<clipPath id="terminal-3633895306-line-11">
    <rect x="0" y="188.045" width="640" height="17.1742" />
            </clipPath>
<clipPath id="terminal-3633895306-line-12">
    <rect x="0" y="205.045" width="640" height="17.1742" />
            </clipPath>
<clipPath id="terminal-3633895306-line-13">
    <rect x="0" y="222.045" width="640" height="17.1742" />
            </clipPath>
<clipPath id="terminal-3633895306-line-14">
    <rect x="0" y="239.045" width="640" height="17.1742" />
            </clipPath>
<clipPath id="terminal-3633895306-line-15">
    <rect x="0" y="256.045" width="640" height="17.1742" />
            </clipPath>
<clipPath id="terminal-3633895306-line-16">
    <rect x="0" y="273.045" width="640" height="17.1742" />
            </clipPath>
<clipPath id="terminal-3633895306-line-17">
    <rect x="0" y="290.045" width="640" height="17.1742" />
            </clipPath>
<clipPath id="terminal-3633895306-line-18">
    <rect x="0" y="307.045" width="640" height="17.1742" />
            </clipPath>
<clipPath id="terminal-3633895306-line-19">
    <rect x="0" y="324.045" width="640" height="17.1742" />
            </clipPath>
<clipPath id="terminal-3633895306-line-20">
    <rect x="0" y="341.045" width="640" height="17.1742" />
            </clipPath>
<clipPath id="terminal-3633895306-line-21">
    <rect x="0" y="358.045" width="640" height="17.1742" />
            </clipPath>
<clipPath id="terminal-3633895306-line-22">
    <rect x="0" y="375.045" width="640" height="17.1742" />
            </clipPath>
<clipPath id="terminal-3633895306-line-23">
    <rect x="0" y="392.045" width="640" height="17.1742" />
            </clipPath>
<clipPath id="terminal-3633895306-line-24">
    <rect x="0" y="409.045" width="640" height="17.1742" />
            </clipPath>
<clipPath id="terminal-3633895306-line-25">
    <rect x="0" y="426.045" width="640" height="17.1742" />
            </clipPath>
<clipPath id="terminal-3633895306-line-26">
    <rect x="0" y="443.045" width="640" height="17.1742" />
            </clipPath>
<clipPath id="terminal-3633895306-line-27">
    <rect x="0" y="460.045" width="640" height="17.1742" />
            </clipPath>
<clipPath id="terminal-3633895306-line-28">
    <rect x="0" y="477.045" width="640" height="17.1742" />
            </clipPath>
    </defs>

    <g clip-path="url(#terminal-3633895306-clip-terminal)">
    <rect fill="#14110c" x="0" y="1.04508" width="640" height="17.1742" shape-rendering="crispEdges" /><rect fill="#14110c" x="0" y="18.0451" width="8" height="17.1742" shape-rendering="crispEdges" /><rect fill="#14110c" x="8" y="18.0451" width="8" height="17.1742" shape-rendering="crispEdges" /><rect fill="#14110c" x="16" y="18.0451" width="216" height="17.1742" shape-rendering="crispEdges" /><rect fill="#14110c" x="232" y="18.0451" width="176" height="17.1742" shape-rendering="crispEdges" /><rect fill="#14110c" x="408" y="18.0451" width="216" height="17.1742" shape-rendering="crispEdges" /><rect fill="#14110c" x="624" y="18.0451" width="8" height="17.1742" shape-rendering="crispEdges" /><rect fill="#14110c" x="632" y="18.0451" width="8" height="17.1742" shape-rendering="crispEdges" /><rect fill="#14110c" x="0" y="35.0451" width="8" height="17.1742" shape-rendering="crispEdges" /><rect fill="#14110c" x="8" y="35.0451" width="8" height="17.1742" shape-rendering="crispEdges" /><rect fill="#14110c" x="16" y="35.0451" width="216" height="17.1742" shape-rendering="crispEdges" /><rect fill="#14110c" x="232" y="35.0451" width="176" height="17.1742" shape-rendering="crispEdges" /><rect fill="#14110c" x="408" y="35.0451" width="216" height="17.1742" shape-rendering="crispEdges" /><rect fill="#14110c" x="624" y="35.0451" width="8" height="17.1742" shape-rendering="crispEdges" /><rect fill="#14110c" x="632" y="35.0451" width="8" height="17.1742" shape-rendering="crispEdges" /><rect fill="#14110c" x="0" y="52.0451" width="8" height="17.1742" shape-rendering="crispEdges" /><rect fill="#14110c" x="8" y="52.0451" width="8" height="17.1742" shape-rendering="crispEdges" /><rect fill="#14110c" x="16" y="52.0451" width="216" height="17.1742" shape-rendering="crispEdges" /><rect fill="#14110c" x="232" y="52.0451" width="176" height="17.1742" shape-rendering="crispEdges" /><rect fill="#14110c" x="408" y="52.0451" width="216" height="17.1742" shape-rendering="crispEdges" /><rect fill="#14110c" x="624" y="52.0451" width="8" height="17.1742" shape-rendering="crispEdges" /><rect fill="#14110c" x="632" y="52.0451" width="8" height="17.1742" shape-rendering="crispEdges" /><rect fill="#14110c" x="0" y="69.0451" width="8" height="17.1742" shape-rendering="crispEdges" /><rect fill="#14110c" x="8" y="69.0451" width="8" height="17.1742" shape-rendering="crispEdges" /><rect fill="#14110c" x="16" y="69.0451" width="216" height="17.1742" shape-rendering="crispEdges" /><rect fill="#14110c" x="232" y="69.0451" width="176" height="17.1742" shape-rendering="crispEdges" /><rect fill="#14110c" x="408" y="69.0451" width="216" height="17.1742" shape-rendering="crispEdges" /><rect fill="#14110c" x="624" y="69.0451" width="8" height="17.1742" shape-rendering="crispEdges" /><rect fill="#14110c" x="632" y="69.0451" width="8" height="17.1742" shape-rendering="crispEdges" /><rect fill="#14110c" x="0" y="86.0451" width="8" height="17.1742" shape-rendering="crispEdges" /><rect fill="#14110c" x="8" y="86.0451" width="8" height="17.1742" shape-rendering="crispEdges" /><rect fill="#14110c" x="16" y="86.0451" width="216" height="17.1742" shape-rendering="crispEdges" /><rect fill="#14110c" x="232" y="86.0451" width="176" height="17.1742" shape-rendering="crispEdges" /><rect fill="#14110c" x="408" y="86.0451" width="216" height="17.1742" shape-rendering="crispEdges" /><rect fill="#14110c" x="624" y="86.0451" width="8" height="17.1742" shape-rendering="crispEdges" /><rect fill="#14110c" x="632" y="86.0451" width="8" height="17.1742" shape-rendering="crispEdges" /><rect fill="#14110c" x="0" y="103.045" width="8" height="17.1742" shape-rendering="crispEdges" /><rect fill="#14110c" x="8" y="103.045" width="8" height="17.1742" shape-rendering="crispEdges" /><rect fill="#14110c" x="16" y="103.045" width="216" height="17.1742" shape-rendering="crispEdges" /><rect fill="#14110c" x="232" y="103.045" width="176" height="17.1742" shape-rendering="crispEdges" /><rect fill="#14110c" x="408" y="103.045" width="216" height="17.1742" shape-rendering="crispEdges" /><rect fill="#14110c" x="624" y="103.045" width="8" height="17.1742" shape-rendering="crispEdges" /><rect fill="#14110c" x="632" y="103.045" width="8" height="17.1742" shape-rendering="crispEdges" /><rect fill="#14110c" x="0" y="120.045" width="8" height="17.1742" shape-rendering="crispEdges" /><rect fill="#14110c" x="8" y="120.045" width="8" height="17.1742" shape-rendering="crispEdges" /><rect fill="#14110c" x="16" y="120.045" width="216" height="17.1742" shape-rendering="crispEdges" /><rect fill="#14110c" x="232" y="120.045" width="176" height="17.1742" shape-rendering="crispEdges" /><rect fill="#14110c" x="408" y="120.045" width="216" height="17.1742" shape-rendering="crispEdges" /><rect fill="#14110c" x="624" y="120.045" width="8" height="17.1742" shape-rendering="crispEdges" /><rect fill="#14110c" x="632" y="120.045" width="8" height="17.1742" shape-rendering="crispEdges" /><rect fill="#14110c" x="0" y="137.045" width="8" height="17.1742" shape-rendering="crispEdges" /><rect fill="#14110c" x="8" y="137.045" width="8" height="17.1742" shape-rendering="crispEdges" /><rect fill="#14110c" x="16" y="137.045" width="216" height="17.1742" shape-rendering="crispEdges" /><rect fill="#14110c" x="232" y="137.045" width="176" height="17.1742" shape-rendering="crispEdges" /><rect fill="#14110c" x="408" y="137.045" width="216" height="17.1742" shape-rendering="crispEdges" /><rect fill="#14110c" x="624" y="137.045" width="8" height="17.1742" shape-rendering="crispEdges" /><rect fill="#14110c" x="632" y="137.045" width="8" height="17.1742" shape-rendering="crispEdges" /><rect fill="#14110c" x="0" y="154.045" width="8" height="17.1742" shape-rendering="crispEdges" /><rect fill="#14110c" x="8" y="154.045" width="8" height="17.1742" shape-rendering="crispEdges" /><rect fill="#14110c" x="16" y="154.045" width="216" height="17.1742" shape-rendering="crispEdges" /><rect fill="#14110c" x="232" y="154.045" width="176" height="17.1742" shape-rendering="crispEdges" /><rect fill="#14110c" x="408" y="154.045" width="216" height="17.1742" shape-rendering="crispEdges" /><rect fill="#14110c" x="624" y="154.045" width="8" height="17.1742" shape-rendering="crispEdges" /><rect fill="#14110c" x="632" y="154.045" width="8" height="17.1742" shape-rendering="crispEdges" /><rect fill="#14110c" x="0" y="171.045" width="8" height="17.1742" shape-rendering="crispEdges" /><rect fill="#14110c" x="8" y="171.045" width="8" height="17.1742" shape-rendering="crispEdges" /><rect fill="#14110c" x="16" y="171.045" width="216" height="17.1742" shape-rendering="crispEdges" /><rect fill="#14110c" x="232" y="171.045" width="176" height="17.1742" shape-rendering="crispEdges" /><rect fill="#14110c" x="408" y="171.045" width="216" height="17.1742" shape-rendering="crispEdges" /><rect fill="#14110c" x="624" y="171.045" width="8" height="17.1742" shape-rendering="crispEdges" /><rect fill="#14110c" x="632" y="171.045" width="8" height="17.1742" shape-rendering="crispEdges" /><rect fill="#14110c" x="0" y="188.045" width="8" height="17.1742" shape-rendering="crispEdges" /><rect fill="#14110c" x="8" y="188.045" width="8" height="17.1742" shape-rendering="crispEdges" /><rect fill="#14110c" x="16" y="188.045" width="192" height="17.1742" shape-rendering="crispEdges" /><rect fill="#14110c" x="208" y="188.045" width="216" height="17.1742" shape-rendering="crispEdges" /><rect fill="#14110c" x="424" y="188.045" width="200" height="17.1742" shape-rendering="crispEdges" /><rect fill="#14110c" x="624" y="188.045" width="8" height="17.1742" shape-rendering="crispEdges" /><rect fill="#14110c" x="632" y="188.045" width="8" height="17.1742" shape-rendering="crispEdges" /><rect fill="#14110c" x="0" y="205.045" width="8" height="17.1742" shape-rendering="crispEdges" /><rect fill="#14110c" x="8" y="205.045" width="8" height="17.1742" shape-rendering="crispEdges" /><rect fill="#14110c" x="16" y="205.045" width="0" height="17.1742" shape-rendering="crispEdges" /><rect fill="#14110c" x="16" y="205.045" width="608" height="17.1742" shape-rendering="crispEdges" /><rect fill="#14110c" x="624" y="205.045" width="8" height="17.1742" shape-rendering="crispEdges" /><rect fill="#14110c" x="632" y="205.045" width="8" height="17.1742" shape-rendering="crispEdges" /><rect fill="#14110c" x="0" y="222.045" width="8" height="17.1742" shape-rendering="crispEdges" /><rect fill="#14110c" x="8" y="222.045" width="8" height="17.1742" shape-rendering="crispEdges" /><rect fill="#14110c" x="16" y="222.045" width="184" height="17.1742" shape-rendering="crispEdges" /><rect fill="#14110c" x="200" y="222.045" width="64" height="17.1742" shape-rendering="crispEdges" /><rect fill="#14110c" x="264" y="222.045" width="360" height="17.1742" shape-rendering="crispEdges" /><rect fill="#14110c" x="624" y="222.045" width="8" height="17.1742" shape-rendering="crispEdges" /><rect fill="#14110c" x="632" y="222.045" width="8" height="17.1742" shape-rendering="crispEdges" /><rect fill="#14110c" x="0" y="239.045" width="8" height="17.1742" shape-rendering="crispEdges" /><rect fill="#14110c" x="8" y="239.045" width="8" height="17.1742" shape-rendering="crispEdges" /><rect fill="#14110c" x="16" y="239.045" width="184" height="17.1742" shape-rendering="crispEdges" /><rect fill="#14110c" x="200" y="239.045" width="80" height="17.1742" shape-rendering="crispEdges" /><rect fill="#14110c" x="280" y="239.045" width="344" height="17.1742" shape-rendering="crispEdges" /><rect fill="#14110c" x="624" y="239.045" width="8" height="17.1742" shape-rendering="crispEdges" /><rect fill="#14110c" x="632" y="239.045" width="8" height="17.1742" shape-rendering="crispEdges" /><rect fill="#14110c" x="0" y="256.045" width="8" height="17.1742" shape-rendering="crispEdges" /><rect fill="#14110c" x="8" y="256.045" width="8" height="17.1742" shape-rendering="crispEdges" /><rect fill="#14110c" x="16" y="256.045" width="184" height="17.1742" shape-rendering="crispEdges" /><rect fill="#14110c" x="200" y="256.045" width="176" height="17.1742" shape-rendering="crispEdges" /><rect fill="#14110c" x="376" y="256.045" width="248" height="17.1742" shape-rendering="crispEdges" /><rect fill="#14110c" x="624" y="256.045" width="8" height="17.1742" shape-rendering="crispEdges" /><rect fill="#14110c" x="632" y="256.045" width="8" height="17.1742" shape-rendering="crispEdges" /><rect fill="#14110c" x="0" y="273.045" width="8" height="17.1742" shape-rendering="crispEdges" /><rect fill="#14110c" x="8" y="273.045" width="8" height="17.1742" shape-rendering="crispEdges" /><rect fill="#14110c" x="16" y="273.045" width="184" height="17.1742" shape-rendering="crispEdges" /><rect fill="#14110c" x="200" y="273.045" width="232" height="17.1742" shape-rendering="crispEdges" /><rect fill="#14110c" x="432" y="273.045" width="192" height="17.1742" shape-rendering="crispEdges" /><rect fill="#14110c" x="624" y="273.045" width="8" height="17.1742" shape-rendering="crispEdges" /><rect fill="#14110c" x="632" y="273.045" width="8" height="17.1742" shape-rendering="crispEdges" /><rect fill="#14110c" x="0" y="290.045" width="8" height="17.1742" shape-rendering="crispEdges" /><rect fill="#14110c" x="8" y="290.045" width="8" height="17.1742" shape-rendering="crispEdges" /><rect fill="#14110c" x="16" y="290.045" width="0" height="17.1742" shape-rendering="crispEdges" /><rect fill="#14110c" x="16" y="290.045" width="608" height="17.1742" shape-rendering="crispEdges" /><rect fill="#14110c" x="624" y="290.045" width="8" height="17.1742" shape-rendering="crispEdges" /><rect fill="#14110c" x="632" y="290.045" width="8" height="17.1742" shape-rendering="crispEdges" /><rect fill="#14110c" x="0" y="307.045" width="8" height="17.1742" shape-rendering="crispEdges" /><rect fill="#14110c" x="8" y="307.045" width="8" height="17.1742" shape-rendering="crispEdges" /><rect fill="#14110c" x="16" y="307.045" width="184" height="17.1742" shape-rendering="crispEdges" /><rect fill="#14110c" x="200" y="307.045" width="80" height="17.1742" shape-rendering="crispEdges" /><rect fill="#14110c" x="280" y="307.045" width="112" height="17.1742" shape-rendering="crispEdges" /><rect fill="#14110c" x="392" y="307.045" width="232" height="17.1742" shape-rendering="crispEdges" /><rect fill="#14110c" x="624" y="307.045" width="8" height="17.1742" shape-rendering="crispEdges" /><rect fill="#14110c" x="632" y="307.045" width="8" height="17.1742" shape-rendering="crispEdges" /><rect fill="#14110c" x="0" y="324.045" width="8" height="17.1742" shape-rendering="crispEdges" /><rect fill="#14110c" x="8" y="324.045" width="8" height="17.1742" shape-rendering="crispEdges" /><rect fill="#14110c" x="16" y="324.045" width="184" height="17.1742" shape-rendering="crispEdges" /><rect fill="#14110c" x="200" y="324.045" width="80" height="17.1742" shape-rendering="crispEdges" /><rect fill="#14110c" x="280" y="324.045" width="96" height="17.1742" shape-rendering="crispEdges" /><rect fill="#14110c" x="376" y="324.045" width="248" height="17.1742" shape-rendering="crispEdges" /><rect fill="#14110c" x="624" y="324.045" width="8" height="17.1742" shape-rendering="crispEdges" /><rect fill="#14110c" x="632" y="324.045" width="8" height="17.1742" shape-rendering="crispEdges" /><rect fill="#14110c" x="0" y="341.045" width="8" height="17.1742" shape-rendering="crispEdges" /><rect fill="#14110c" x="8" y="341.045" width="8" height="17.1742" shape-rendering="crispEdges" /><rect fill="#14110c" x="16" y="341.045" width="184" height="17.1742" shape-rendering="crispEdges" /><rect fill="#14110c" x="200" y="341.045" width="80" height="17.1742" shape-rendering="crispEdges" /><rect fill="#14110c" x="280" y="341.045" width="32" height="17.1742" shape-rendering="crispEdges" /><rect fill="#14110c" x="312" y="341.045" width="312" height="17.1742" shape-rendering="crispEdges" /><rect fill="#14110c" x="624" y="341.045" width="8" height="17.1742" shape-rendering="crispEdges" /><rect fill="#14110c" x="632" y="341.045" width="8" height="17.1742" shape-rendering="crispEdges" /><rect fill="#14110c" x="0" y="358.045" width="8" height="17.1742" shape-rendering="crispEdges" /><rect fill="#14110c" x="8" y="358.045" width="8" height="17.1742" shape-rendering="crispEdges" /><rect fill="#14110c" x="16" y="358.045" width="0" height="17.1742" shape-rendering="crispEdges" /><rect fill="#14110c" x="16" y="358.045" width="608" height="17.1742" shape-rendering="crispEdges" /><rect fill="#14110c" x="624" y="358.045" width="8" height="17.1742" shape-rendering="crispEdges" /><rect fill="#14110c" x="632" y="358.045" width="8" height="17.1742" shape-rendering="crispEdges" /><rect fill="#14110c" x="0" y="375.045" width="8" height="17.1742" shape-rendering="crispEdges" /><rect fill="#14110c" x="8" y="375.045" width="8" height="17.1742" shape-rendering="crispEdges" /><rect fill="#14110c" x="16" y="375.045" width="88" height="17.1742" shape-rendering="crispEdges" /><rect fill="#14110c" x="104" y="375.045" width="16" height="17.1742" shape-rendering="crispEdges" /><rect fill="#14110c" x="120" y="375.045" width="416" height="17.1742" shape-rendering="crispEdges" /><rect fill="#14110c" x="536" y="375.045" width="88" height="17.1742" shape-rendering="crispEdges" /><rect fill="#14110c" x="624" y="375.045" width="8" height="17.1742" shape-rendering="crispEdges" /><rect fill="#14110c" x="632" y="375.045" width="8" height="17.1742" shape-rendering="crispEdges" /><rect fill="#14110c" x="0" y="392.045" width="8" height="17.1742" shape-rendering="crispEdges" /><rect fill="#1e1a14" x="8" y="392.045" width="624" height="17.1742" shape-rendering="crispEdges" /><rect fill="#14110c" x="632" y="392.045" width="8" height="17.1742" shape-rendering="crispEdges" /><rect fill="#14110c" x="0" y="409.045" width="8" height="17.1742" shape-rendering="crispEdges" /><rect fill="#1e1a14" x="8" y="409.045" width="8" height="17.1742" shape-rendering="crispEdges" /><rect fill="#1e1a14" x="16" y="409.045" width="8" height="17.1742" shape-rendering="crispEdges" /><rect fill="#1e1a14" x="24" y="409.045" width="8" height="17.1742" shape-rendering="crispEdges" /><rect fill="#1e1a14" x="32" y="409.045" width="8" height="17.1742" shape-rendering="crispEdges" /><rect fill="#1e1a14" x="40" y="409.045" width="240" height="17.1742" shape-rendering="crispEdges" /><rect fill="#e9e5db" x="280" y="409.045" width="8" height="17.1742" shape-rendering="crispEdges" /><rect fill="#1e1a14" x="288" y="409.045" width="328" height="17.1742" shape-rendering="crispEdges" /><rect fill="#1e1a14" x="616" y="409.045" width="8" height="17.1742" shape-rendering="crispEdges" /><rect fill="#1e1a14" x="624" y="409.045" width="8" height="17.1742" shape-rendering="crispEdges" /><rect fill="#14110c" x="632" y="409.045" width="8" height="17.1742" shape-rendering="crispEdges" /><rect fill="#14110c" x="0" y="426.045" width="8" height="17.1742" shape-rendering="crispEdges" /><rect fill="#1e1a14" x="8" y="426.045" width="8" height="17.1742" shape-rendering="crispEdges" /><rect fill="#1e1a14" x="16" y="426.045" width="24" height="17.1742" shape-rendering="crispEdges" /><rect fill="#1e1a14" x="40" y="426.045" width="480" height="17.1742" shape-rendering="crispEdges" /><rect fill="#1e1a14" x="520" y="426.045" width="104" height="17.1742" shape-rendering="crispEdges" /><rect fill="#1e1a14" x="624" y="426.045" width="8" height="17.1742" shape-rendering="crispEdges" /><rect fill="#14110c" x="632" y="426.045" width="8" height="17.1742" shape-rendering="crispEdges" /><rect fill="#14110c" x="0" y="443.045" width="8" height="17.1742" shape-rendering="crispEdges" /><rect fill="#1e1a14" x="8" y="443.045" width="8" height="17.1742" shape-rendering="crispEdges" /><rect fill="#1e1a14" x="16" y="443.045" width="608" height="17.1742" shape-rendering="crispEdges" /><rect fill="#1e1a14" x="624" y="443.045" width="8" height="17.1742" shape-rendering="crispEdges" /><rect fill="#14110c" x="632" y="443.045" width="8" height="17.1742" shape-rendering="crispEdges" /><rect fill="#14110c" x="0" y="460.045" width="8" height="17.1742" shape-rendering="crispEdges" /><rect fill="#1e1a14" x="8" y="460.045" width="8" height="17.1742" shape-rendering="crispEdges" /><rect fill="#1e1a14" x="16" y="460.045" width="16" height="17.1742" shape-rendering="crispEdges" /><rect fill="#1e1a14" x="32" y="460.045" width="80" height="17.1742" shape-rendering="crispEdges" /><rect fill="#1e1a14" x="112" y="460.045" width="24" height="17.1742" shape-rendering="crispEdges" /><rect fill="#1e1a14" x="136" y="460.045" width="16" height="17.1742" shape-rendering="crispEdges" /><rect fill="#1e1a14" x="152" y="460.045" width="176" height="17.1742" shape-rendering="crispEdges" /><rect fill="#1e1a14" x="328" y="460.045" width="288" height="17.1742" shape-rendering="crispEdges" /><rect fill="#1e1a14" x="616" y="460.045" width="8" height="17.1742" shape-rendering="crispEdges" /><rect fill="#1e1a14" x="624" y="460.045" width="8" height="17.1742" shape-rendering="crispEdges" /><rect fill="#14110c" x="632" y="460.045" width="8" height="17.1742" shape-rendering="crispEdges" /><rect fill="#14110c" x="0" y="477.045" width="8" height="17.1742" shape-rendering="crispEdges" /><rect fill="#1e1a14" x="8" y="477.045" width="624" height="17.1742" shape-rendering="crispEdges" /><rect fill="#14110c" x="632" y="477.045" width="8" height="17.1742" shape-rendering="crispEdges" /><rect fill="#14110c" x="0" y="494.045" width="640" height="17.1742" shape-rendering="crispEdges" />
    <g class="terminal-3633895306-matrix">
    <text class="terminal-3633895306-r1" x="640" y="13.9344" clip-path="url(#terminal-3633895306-line-0)" xml:space="preserve"><tspan x="640">
</tspan></text><text class="terminal-3633895306-r2" x="232" y="30.9344" clip-path="url(#terminal-3633895306-line-1)" xml:space="preserve"><tspan x="232"> </tspan><tspan x="240"> </tspan><tspan x="248"> </tspan><tspan x="256"> </tspan><tspan x="264"> </tspan><tspan x="272">▄</tspan><tspan x="280">█</tspan><tspan x="288">█</tspan><tspan x="296">█</tspan><tspan x="304">█</tspan><tspan x="312">█</tspan><tspan x="320">▄</tspan><tspan x="328"> </tspan><tspan x="336"> </tspan><tspan x="344"> </tspan><tspan x="352"> </tspan><tspan x="360">▄</tspan><tspan x="368">▄</tspan><tspan x="376">█</tspan><tspan x="384">█</tspan><tspan x="392">▄</tspan><tspan x="400">▄</tspan></text><text class="terminal-3633895306-r1" x="640" y="30.9344" clip-path="url(#terminal-3633895306-line-1)" xml:space="preserve"><tspan x="640">
</tspan></text><text class="terminal-3633895306-r2" x="232" y="47.9344" clip-path="url(#terminal-3633895306-line-2)" xml:space="preserve"><tspan x="232"> </tspan><tspan x="240"> </tspan><tspan x="248"> </tspan><tspan x="256"> </tspan><tspan x="264">█</tspan><tspan x="272">█</tspan><tspan x="280"> </tspan><tspan x="288"> </tspan><tspan x="296"> </tspan><tspan x="304"> </tspan><tspan x="312"> </tspan><tspan x="320">█</tspan><tspan x="328">█</tspan><tspan x="336"> </tspan><tspan x="344"> </tspan><tspan x="352"> </tspan><tspan x="360">█</tspan><tspan x="368">█</tspan><tspan x="376"> </tspan><tspan x="384"> </tspan><tspan x="392">█</tspan><tspan x="400">█</tspan></text><text class="terminal-3633895306-r1" x="640" y="47.9344" clip-path="url(#terminal-3633895306-line-2)" xml:space="preserve"><tspan x="640">
</tspan></text><text class="terminal-3633895306-r2" x="232" y="64.9344" clip-path="url(#terminal-3633895306-line-3)" xml:space="preserve"><tspan x="232"> </tspan><tspan x="240"> </tspan><tspan x="248"> </tspan><tspan x="256"> </tspan><tspan x="264">█</tspan><tspan x="272">█</tspan><tspan x="280"> </tspan><tspan x="288"> </tspan><tspan x="296"> </tspan><tspan x="304"> </tspan><tspan x="312">▄</tspan><tspan x="320">█</tspan><tspan x="328">▀</tspan><tspan x="336"> </tspan><tspan x="344"> </tspan><tspan x="352"> </tspan><tspan x="360"> </tspan><tspan x="368">▀</tspan><tspan x="376">█</tspan><tspan x="384">█</tspan><tspan x="392">▀</tspan><tspan x="400"> </tspan></text><text class="terminal-3633895306-r1" x="640" y="64.9344" clip-path="url(#terminal-3633895306-line-3)" xml:space="preserve"><tspan x="640">
</tspan></text><text class="terminal-3633895306-r2" x="232" y="81.9344" clip-path="url(#terminal-3633895306-line-4)" xml:space="preserve"><tspan x="232"> </tspan><tspan x="240"> </tspan><tspan x="248"> </tspan><tspan x="256"> </tspan><tspan x="264">▄</tspan><tspan x="272">█</tspan><tspan x="280">█</tspan><tspan x="288">█</tspan><tspan x="296">█</tspan><tspan x="304">█</tspan><tspan x="312">█</tspan><tspan x="320">▄</tspan><tspan x="328"> </tspan><tspan x="336"> </tspan><tspan x="344"> </tspan><tspan x="352"> </tspan><tspan x="360"> </tspan><tspan x="368">█</tspan><tspan x="376">█</tspan><tspan x="384"> </tspan><tspan x="392"> </tspan><tspan x="400"> </tspan></text><text class="terminal-3633895306-r1" x="640" y="81.9344" clip-path="url(#terminal-3633895306-line-4)" xml:space="preserve"><tspan x="640">
</tspan></text><text class="terminal-3633895306-r2" x="232" y="98.9344" clip-path="url(#terminal-3633895306-line-5)" xml:space="preserve"><tspan x="232"> </tspan><tspan x="240"> </tspan><tspan x="248">▄</tspan><tspan x="256">█</tspan><tspan x="264">▀</tspan><tspan x="272">▀</tspan><tspan x="280"> </tspan><tspan x="288"> </tspan><tspan x="296"> </tspan><tspan x="304"> </tspan><tspan x="312"> </tspan><tspan x="320">▀</tspan><tspan x="328">█</tspan><tspan x="336">█</tspan><tspan x="344">█</tspan><tspan x="352">█</tspan><tspan x="360">█</tspan><tspan x="368">▀</tspan><tspan x="376"> </tspan><tspan x="384"> </tspan><tspan x="392"> </tspan><tspan x="400"> </tspan></text><text class="terminal-3633895306-r1" x="640" y="98.9344" clip-path="url(#terminal-3633895306-line-5)" xml:space="preserve"><tspan x="640">
</tspan></text><text class="terminal-3633895306-r2" x="232" y="115.934" clip-path="url(#terminal-3633895306-line-6)" xml:space="preserve"><tspan x="232"> </tspan><tspan x="240"> </tspan><tspan x="248">█</tspan><tspan x="256">█</tspan><tspan x="264"> </tspan><tspan x="272"> </tspan><tspan x="280"> </tspan><tspan x="288"> </tspan><tspan x="296"> </tspan><tspan x="304"> </tspan><tspan x="312"> </tspan><tspan x="320"> </tspan><tspan x="328">█</tspan><tspan x="336">█</tspan><tspan x="344"> </tspan><tspan x="352"> </tspan><tspan x="360"> </tspan><tspan x="368"> </tspan><tspan x="376"> </tspan><tspan x="384"> </tspan><tspan x="392"> </tspan><tspan x="400"> </tspan></text><text class="terminal-3633895306-r1" x="640" y="115.934" clip-path="url(#terminal-3633895306-line-6)" xml:space="preserve"><tspan x="640">
</tspan></text><text class="terminal-3633895306-r2" x="232" y="132.934" clip-path="url(#terminal-3633895306-line-7)" xml:space="preserve"><tspan x="232"> </tspan><tspan x="240"> </tspan><tspan x="248">█</tspan><tspan x="256">█</tspan><tspan x="264"> </tspan><tspan x="272"> </tspan><tspan x="280"> </tspan><tspan x="288"> </tspan><tspan x="296"> </tspan><tspan x="304"> </tspan><tspan x="312"> </tspan><tspan x="320"> </tspan><tspan x="328">█</tspan><tspan x="336">█</tspan><tspan x="344"> </tspan><tspan x="352"> </tspan><tspan x="360"> </tspan><tspan x="368"> </tspan><tspan x="376"> </tspan><tspan x="384"> </tspan><tspan x="392"> </tspan><tspan x="400"> </tspan></text><text class="terminal-3633895306-r1" x="640" y="132.934" clip-path="url(#terminal-3633895306-line-7)" xml:space="preserve"><tspan x="640">
</tspan></text><text class="terminal-3633895306-r2" x="232" y="149.934" clip-path="url(#terminal-3633895306-line-8)" xml:space="preserve"><tspan x="232">▄</tspan><tspan x="240">▄</tspan><tspan x="248">█</tspan><tspan x="256">█</tspan><tspan x="264">▄</tspan><tspan x="272"> </tspan><tspan x="280"> </tspan><tspan x="288"> </tspan><tspan x="296"> </tspan><tspan x="304"> </tspan><tspan x="312"> </tspan><tspan x="320"> </tspan><tspan x="328">█</tspan><tspan x="336">█</tspan><tspan x="344"> </tspan><tspan x="352"> </tspan><tspan x="360"> </tspan><tspan x="368"> </tspan><tspan x="376"> </tspan><tspan x="384"> </tspan><tspan x="392"> </tspan><tspan x="400"> </tspan></text><text class="terminal-3633895306-r1" x="640" y="149.934" clip-path="url(#terminal-3633895306-line-8)" xml:space="preserve"><tspan x="640">
</tspan></text><text class="terminal-3633895306-r2" x="232" y="166.934" clip-path="url(#terminal-3633895306-line-9)" xml:space="preserve"><tspan x="232">█</tspan><tspan x="240">█</tspan><tspan x="248"> </tspan><tspan x="256">▄</tspan><tspan x="264">█</tspan><tspan x="272"> </tspan><tspan x="280"> </tspan><tspan x="288"> </tspan><tspan x="296"> </tspan><tspan x="304"> </tspan><tspan x="312"> </tspan><tspan x="320"> </tspan><tspan x="328">█</tspan><tspan x="336">█</tspan><tspan x="344"> </tspan><tspan x="352"> </tspan><tspan x="360"> </tspan><tspan x="368"> </tspan><tspan x="376"> </tspan><tspan x="384"> </tspan><tspan x="392"> </tspan><tspan x="400"> </tspan></text><text class="terminal-3633895306-r1" x="640" y="166.934" clip-path="url(#terminal-3633895306-line-9)" xml:space="preserve"><tspan x="640">
</tspan></text><text class="terminal-3633895306-r2" x="232" y="183.934" clip-path="url(#terminal-3633895306-line-10)" xml:space="preserve"><tspan x="232"> </tspan><tspan x="240">▀</tspan><tspan x="248">▀</tspan><tspan x="256">▀</tspan><tspan x="264"> </tspan><tspan x="272"> </tspan><tspan x="280"> </tspan><tspan x="288"> </tspan><tspan x="296"> </tspan><tspan x="304"> </tspan><tspan x="312"> </tspan><tspan x="320"> </tspan><tspan x="328">█</tspan><tspan x="336">█</tspan><tspan x="344"> </tspan><tspan x="352"> </tspan><tspan x="360"> </tspan><tspan x="368"> </tspan><tspan x="376"> </tspan><tspan x="384"> </tspan><tspan x="392"> </tspan><tspan x="400"> </tspan></text><text class="terminal-3633895306-r1" x="640" y="183.934" clip-path="url(#terminal-3633895306-line-10)" xml:space="preserve"><tspan x="640">
</tspan></text><text class="terminal-3633895306-r3" x="208" y="200.934" clip-path="url(#terminal-3633895306-line-11)" xml:space="preserve"><tspan x="208">l</tspan><tspan x="216"> </tspan><tspan x="224">o</tspan><tspan x="232"> </tspan><tspan x="240">c</tspan><tspan x="248"> </tspan><tspan x="256">a</tspan><tspan x="264"> </tspan><tspan x="272">l</tspan><tspan x="280"> </tspan><tspan x="288"> </tspan><tspan x="296"> </tspan><tspan x="304">o</tspan><tspan x="312"> </tspan><tspan x="320">p</tspan><tspan x="328"> </tspan><tspan x="336">e</tspan><tspan x="344"> </tspan><tspan x="352">r</tspan><tspan x="360"> </tspan><tspan x="368">a</tspan><tspan x="376"> </tspan><tspan x="384">t</tspan><tspan x="392"> </tspan><tspan x="400">o</tspan><tspan x="408"> </tspan><tspan x="416">r</tspan></text><text class="terminal-3633895306-r1" x="640" y="200.934" clip-path="url(#terminal-3633895306-line-11)" xml:space="preserve"><tspan x="640">
</tspan></text><text class="terminal-3633895306-r1" x="640" y="217.934" clip-path="url(#terminal-3633895306-line-12)" xml:space="preserve"><tspan x="640">
</tspan></text><text class="terminal-3633895306-r2" x="200" y="234.934" clip-path="url(#terminal-3633895306-line-13)" xml:space="preserve"><tspan x="200">v</tspan><tspan x="208">0</tspan><tspan x="216">.</tspan><tspan x="224">4</tspan><tspan x="232">4</tspan><tspan x="240">.</tspan><tspan x="248">6</tspan><tspan x="256">6</tspan></text><text class="terminal-3633895306-r1" x="640" y="234.934" clip-path="url(#terminal-3633895306-line-13)" xml:space="preserve"><tspan x="640">
</tspan></text><text class="terminal-3633895306-r4" x="200" y="251.934" clip-path="url(#terminal-3633895306-line-14)" xml:space="preserve"><tspan x="200">t</tspan><tspan x="208">e</tspan><tspan x="216">s</tspan><tspan x="224">t</tspan><tspan x="232">/</tspan><tspan x="240">m</tspan><tspan x="248">o</tspan><tspan x="256">d</tspan><tspan x="264">e</tspan><tspan x="272">l</tspan></text><text class="terminal-3633895306-r1" x="640" y="251.934" clip-path="url(#terminal-3633895306-line-14)" xml:space="preserve"><tspan x="640">
</tspan></text><text class="terminal-3633895306-r2" x="200" y="268.934" clip-path="url(#terminal-3633895306-line-15)" xml:space="preserve"><tspan x="200">/</tspan><tspan x="208">p</tspan><tspan x="216">r</tspan><tspan x="224">i</tspan><tspan x="232">v</tspan><tspan x="240">a</tspan><tspan x="248">t</tspan><tspan x="256">e</tspan><tspan x="264">/</tspan><tspan x="272">t</tspan><tspan x="280">m</tspan><tspan x="288">p</tspan><tspan x="296">/</tspan><tspan x="304">d</tspan><tspan x="312">8</tspan><tspan x="320">9</tspan><tspan x="328">1</tspan><tspan x="336">r</tspan><tspan x="344">2</tspan><tspan x="352">/</tspan><tspan x="360">w</tspan><tspan x="368">t</tspan></text><text class="terminal-3633895306-r1" x="640" y="268.934" clip-path="url(#terminal-3633895306-line-15)" xml:space="preserve"><tspan x="640">
</tspan></text><text class="terminal-3633895306-r5" x="200" y="285.934" clip-path="url(#terminal-3633895306-line-16)" xml:space="preserve"><tspan x="200">!</tspan><tspan x="208"> </tspan><tspan x="216">l</tspan><tspan x="224">a</tspan><tspan x="232">t</tspan><tspan x="240">e</tspan><tspan x="248">s</tspan><tspan x="256">t</tspan><tspan x="264"> </tspan><tspan x="272">i</tspan><tspan x="280">s</tspan><tspan x="288"> </tspan><tspan x="296">v</tspan><tspan x="304">0</tspan><tspan x="312">.</tspan><tspan x="320">5</tspan><tspan x="328">3</tspan><tspan x="336">.</tspan><tspan x="344">6</tspan><tspan x="352"> </tspan><tspan x="360">—</tspan><tspan x="368"> </tspan><tspan x="376">/</tspan><tspan x="384">u</tspan><tspan x="392">p</tspan><tspan x="400">d</tspan><tspan x="408">a</tspan><tspan x="416">t</tspan><tspan x="424">e</tspan></text><text class="terminal-3633895306-r1" x="640" y="285.934" clip-path="url(#terminal-3633895306-line-16)" xml:space="preserve"><tspan x="640">
</tspan></text><text class="terminal-3633895306-r1" x="640" y="302.934" clip-path="url(#terminal-3633895306-line-17)" xml:space="preserve"><tspan x="640">
</tspan></text><text class="terminal-3633895306-r3" x="200" y="319.934" clip-path="url(#terminal-3633895306-line-18)" xml:space="preserve"><tspan x="200">/</tspan><tspan x="208"> </tspan><tspan x="216"> </tspan><tspan x="224"> </tspan><tspan x="232"> </tspan><tspan x="240"> </tspan><tspan x="248"> </tspan><tspan x="256"> </tspan><tspan x="264"> </tspan><tspan x="272"> </tspan></text><text class="terminal-3633895306-r4" x="280" y="319.934" clip-path="url(#terminal-3633895306-line-18)" xml:space="preserve"><tspan x="280">c</tspan><tspan x="288">o</tspan><tspan x="296">m</tspan><tspan x="304">m</tspan><tspan x="312">a</tspan><tspan x="320">n</tspan><tspan x="328">d</tspan><tspan x="336"> </tspan><tspan x="344">p</tspan><tspan x="352">i</tspan><tspan x="360">c</tspan><tspan x="368">k</tspan><tspan x="376">e</tspan><tspan x="384">r</tspan></text><text class="terminal-3633895306-r1" x="640" y="319.934" clip-path="url(#terminal-3633895306-line-18)" xml:space="preserve"><tspan x="640">
</tspan></text><text class="terminal-3633895306-r3" x="200" y="336.934" clip-path="url(#terminal-3633895306-line-19)" xml:space="preserve"><tspan x="200">/</tspan><tspan x="208">h</tspan><tspan x="216">e</tspan><tspan x="224">l</tspan><tspan x="232">p</tspan><tspan x="240"> </tspan><tspan x="248"> </tspan><tspan x="256"> </tspan><tspan x="264"> </tspan><tspan x="272"> </tspan></text><text class="terminal-3633895306-r4" x="280" y="336.934" clip-path="url(#terminal-3633895306-line-19)" xml:space="preserve"><tspan x="280">a</tspan><tspan x="288">l</tspan><tspan x="296">l</tspan><tspan x="304"> </tspan><tspan x="312">c</tspan><tspan x="320">o</tspan><tspan x="328">m</tspan><tspan x="336">m</tspan><tspan x="344">a</tspan><tspan x="352">n</tspan><tspan x="360">d</tspan><tspan x="368">s</tspan></text><text class="terminal-3633895306-r1" x="640" y="336.934" clip-path="url(#terminal-3633895306-line-19)" xml:space="preserve"><tspan x="640">
</tspan></text><text class="terminal-3633895306-r3" x="200" y="353.934" clip-path="url(#terminal-3633895306-line-20)" xml:space="preserve"><tspan x="200">c</tspan><tspan x="208">t</tspan><tspan x="216">r</tspan><tspan x="224">l</tspan><tspan x="232">+</tspan><tspan x="240">d</tspan><tspan x="248"> </tspan><tspan x="256"> </tspan><tspan x="264"> </tspan><tspan x="272"> </tspan></text><text class="terminal-3633895306-r4" x="280" y="353.934" clip-path="url(#terminal-3633895306-line-20)" xml:space="preserve"><tspan x="280">q</tspan><tspan x="288">u</tspan><tspan x="296">i</tspan><tspan x="304">t</tspan></text><text class="terminal-3633895306-r1" x="640" y="353.934" clip-path="url(#terminal-3633895306-line-20)" xml:space="preserve"><tspan x="640">
</tspan></text><text class="terminal-3633895306-r1" x="640" y="370.934" clip-path="url(#terminal-3633895306-line-21)" xml:space="preserve"><tspan x="640">
</tspan></text><text class="terminal-3633895306-r6" x="104" y="387.934" clip-path="url(#terminal-3633895306-line-22)" xml:space="preserve"><tspan x="104">·</tspan><tspan x="112"> </tspan></text><text class="terminal-3633895306-r2" x="120" y="387.934" clip-path="url(#terminal-3633895306-line-22)" xml:space="preserve"><tspan x="120">/</tspan><tspan x="128">r</tspan><tspan x="136">e</tspan><tspan x="144">s</tspan><tspan x="152">u</tspan><tspan x="160">m</tspan><tspan x="168">e</tspan><tspan x="176"> </tspan><tspan x="184">p</tspan><tspan x="192">i</tspan><tspan x="200">c</tspan><tspan x="208">k</tspan><tspan x="216">s</tspan><tspan x="224"> </tspan><tspan x="232">u</tspan><tspan x="240">p</tspan><tspan x="248"> </tspan><tspan x="256">a</tspan><tspan x="264"> </tspan><tspan x="272">r</tspan><tspan x="280">e</tspan><tspan x="288">c</tspan><tspan x="296">e</tspan><tspan x="304">n</tspan><tspan x="312">t</tspan><tspan x="320"> </tspan><tspan x="328">s</tspan><tspan x="336">e</tspan><tspan x="344">s</tspan><tspan x="352">s</tspan><tspan x="360">i</tspan><tspan x="368">o</tspan><tspan x="376">n</tspan><tspan x="384"> </tspan><tspan x="392">w</tspan><tspan x="400">h</tspan><tspan x="408">e</tspan><tspan x="416">r</tspan><tspan x="424">e</tspan><tspan x="432"> </tspan><tspan x="440">y</tspan><tspan x="448">o</tspan><tspan x="456">u</tspan><tspan x="464"> </tspan><tspan x="472">l</tspan><tspan x="480">e</tspan><tspan x="488">f</tspan><tspan x="496">t</tspan><tspan x="504"> </tspan><tspan x="512">o</tspan><tspan x="520">f</tspan><tspan x="528">f</tspan></text><text class="terminal-3633895306-r1" x="640" y="387.934" clip-path="url(#terminal-3633895306-line-22)" xml:space="preserve"><tspan x="640">
</tspan></text><text class="terminal-3633895306-r1" x="640" y="404.934" clip-path="url(#terminal-3633895306-line-23)" xml:space="preserve"><tspan x="640">
</tspan></text><text class="terminal-3633895306-r5" x="16" y="421.934" clip-path="url(#terminal-3633895306-line-24)" xml:space="preserve"><tspan x="16">•</tspan></text><text class="terminal-3633895306-r7" x="40" y="421.934" clip-path="url(#terminal-3633895306-line-24)" xml:space="preserve"><tspan x="40">/</tspan><tspan x="48">c</tspan><tspan x="56">r</tspan><tspan x="64">e</tspan><tspan x="72">d</tspan><tspan x="80">e</tspan><tspan x="88">n</tspan><tspan x="96">t</tspan><tspan x="104">i</tspan><tspan x="112">a</tspan><tspan x="120">l</tspan><tspan x="128"> </tspan><tspan x="136">•</tspan><tspan x="144">•</tspan><tspan x="152">•</tspan><tspan x="160">•</tspan><tspan x="168">•</tspan><tspan x="176">•</tspan><tspan x="184">•</tspan><tspan x="192">•</tspan><tspan x="200">•</tspan><tspan x="208">•</tspan><tspan x="216">•</tspan><tspan x="224">•</tspan><tspan x="232">•</tspan><tspan x="240">•</tspan><tspan x="248">•</tspan><tspan x="256">•</tspan><tspan x="264">•</tspan><tspan x="272">•</tspan></text><text class="terminal-3633895306-r1" x="640" y="421.934" clip-path="url(#terminal-3633895306-line-24)" xml:space="preserve"><tspan x="640">
</tspan></text><text class="terminal-3633895306-r2" x="40" y="438.934" clip-path="url(#terminal-3633895306-line-25)" xml:space="preserve"><tspan x="40">m</tspan><tspan x="48">a</tspan><tspan x="56">s</tspan><tspan x="64">k</tspan><tspan x="72">e</tspan><tspan x="80">d</tspan><tspan x="88"> </tspan><tspan x="96">a</tspan><tspan x="104">s</tspan><tspan x="112"> </tspan><tspan x="120">y</tspan><tspan x="128">o</tspan><tspan x="136">u</tspan><tspan x="144"> </tspan><tspan x="152">t</tspan><tspan x="160">y</tspan><tspan x="168">p</tspan><tspan x="176">e</tspan><tspan x="184"> </tspan><tspan x="192">—</tspan><tspan x="200"> </tspan><tspan x="208">E</tspan><tspan x="216">n</tspan><tspan x="224">t</tspan><tspan x="232">e</tspan><tspan x="240">r</tspan><tspan x="248"> </tspan><tspan x="256">t</tspan><tspan x="264">u</tspan><tspan x="272">r</tspan><tspan x="280">n</tspan><tspan x="288">s</tspan><tspan x="296"> </tspan><tspan x="304">i</tspan><tspan x="312">t</tspan><tspan x="320"> </tspan><tspan x="328">i</tspan><tspan x="336">n</tspan><tspan x="344">t</tspan><tspan x="352">o</tspan><tspan x="360"> </tspan><tspan x="368">a</tspan><tspan x="376"> </tspan><tspan x="384">c</tspan><tspan x="392">h</tspan><tspan x="400">i</tspan><tspan x="408">p</tspan><tspan x="416">,</tspan><tspan x="424"> </tspan><tspan x="432">E</tspan><tspan x="440">s</tspan><tspan x="448">c</tspan><tspan x="456"> </tspan><tspan x="464">c</tspan><tspan x="472">a</tspan><tspan x="480">n</tspan><tspan x="488">c</tspan><tspan x="496">e</tspan><tspan x="504">l</tspan><tspan x="512">s</tspan></text><text class="terminal-3633895306-r1" x="640" y="438.934" clip-path="url(#terminal-3633895306-line-25)" xml:space="preserve"><tspan x="640">
</tspan></text><text class="terminal-3633895306-r1" x="640" y="455.934" clip-path="url(#terminal-3633895306-line-26)" xml:space="preserve"><tspan x="640">
</tspan></text><text class="terminal-3633895306-r2" x="16" y="472.934" clip-path="url(#terminal-3633895306-line-27)" xml:space="preserve"><tspan x="16">◆</tspan><tspan x="24"> </tspan></text><text class="terminal-3633895306-r3" x="32" y="472.934" clip-path="url(#terminal-3633895306-line-27)" xml:space="preserve"><tspan x="32">t</tspan><tspan x="40">e</tspan><tspan x="48">s</tspan><tspan x="56">t</tspan><tspan x="64">/</tspan><tspan x="72">m</tspan><tspan x="80">o</tspan><tspan x="88">d</tspan><tspan x="96">e</tspan><tspan x="104">l</tspan></text><text class="terminal-3633895306-r6" x="112" y="472.934" clip-path="url(#terminal-3633895306-line-27)" xml:space="preserve"><tspan x="112"> </tspan><tspan x="120">›</tspan><tspan x="128"> </tspan></text><text class="terminal-3633895306-r2" x="136" y="472.934" clip-path="url(#terminal-3633895306-line-27)" xml:space="preserve"><tspan x="136">⌂</tspan><tspan x="144"> </tspan></text><text class="terminal-3633895306-r9" x="152" y="472.934" clip-path="url(#terminal-3633895306-line-27)" xml:space="preserve"><tspan x="152">/</tspan><tspan x="160">p</tspan><tspan x="168">r</tspan><tspan x="176">i</tspan><tspan x="184">v</tspan><tspan x="192">a</tspan><tspan x="200">t</tspan><tspan x="208">e</tspan><tspan x="216">/</tspan><tspan x="224">t</tspan><tspan x="232">m</tspan><tspan x="240">p</tspan><tspan x="248">/</tspan><tspan x="256">d</tspan><tspan x="264">8</tspan><tspan x="272">9</tspan><tspan x="280">1</tspan><tspan x="288">r</tspan><tspan x="296">2</tspan><tspan x="304">/</tspan><tspan x="312">w</tspan><tspan x="320">t</tspan></text><text class="terminal-3633895306-r1" x="640" y="472.934" clip-path="url(#terminal-3633895306-line-27)" xml:space="preserve"><tspan x="640">
</tspan></text><text class="terminal-3633895306-r1" x="640" y="489.934" clip-path="url(#terminal-3633895306-line-28)" xml:space="preserve"><tspan x="640">
</tspan></text>
    </g>
    </g>
</svg>