<svg xmlns="http://www.w3.org/2000/svg" class="rich-terminal" viewBox="0 0 720 510" width="720" height="510">
    
    <style>

    
    

    .terminal-2259777473-matrix {
        font-family: Menlo, DejaVu Sans Mono, monospace;
        font-size: 13.0px;
        line-height: 17.0px;
        font-variant-east-asian: full-width;
    }

    .terminal-2259777473-title {
        font-size: 13.0px;
        font-weight: bold;
        font-family: Menlo, DejaVu Sans Mono, monospace;
    }

    .terminal-2259777473-r1 { fill: #c5c8c6 }
.terminal-2259777473-r2 { fill: #837c6d }
.terminal-2259777473-r3 { fill: #e9e5db }
.terminal-2259777473-r4 { fill: #1e1a14 }
.terminal-2259777473-r5 { fill: #4a4539 }
.terminal-2259777473-r6 { fill: #6ea8d8 }
    </style>

    <defs>
    <clipPath id="terminal-2259777473-clip-terminal">
      <rect x="0" y="0" width="720" height="510" />
    </clipPath>
    <clipPath id="terminal-2259777473-line-0">
    <rect x="0" y="1.04508" width="720" height="17.1742" />
            </clipPath>
<clipPath id="terminal-2259777473-line-1">
    <rect x="0" y="18.0451" width="720" height="17.1742" />
            </clipPath>
<clipPath id="terminal-2259777473-line-2">
    <rect x="0" y="35.0451" width="720" height="17.1742" />
            </clipPath>
<clipPath id="terminal-2259777473-line-3">
    <rect x="0" y="52.0451" width="720" height="17.1742" />
            </clipPath>
<clipPath id="terminal-2259777473-line-4">
    <rect x="0" y="69.0451" width="720" height="17.1742" />
            </clipPath>
<clipPath id="terminal-2259777473-line-5">
    <rect x="0" y="86.0451" width="720" height="17.1742" />
            </clipPath>
<clipPath id="terminal-2259777473-line-6">
    <rect x="0" y="103.045" width="720" height="17.1742" />
            </clipPath>
<clipPath id="terminal-2259777473-line-7">
    <rect x="0" y="120.045" width="720" height="17.1742" />
            </clipPath>
<clipPath id="terminal-2259777473-line-8">
    <rect x="0" y="137.045" width="720" height="17.1742" />
            </clipPath>
<clipPath id="terminal-2259777473-line-9">
    <rect x="0" y="154.045" width="720" height="17.1742" />
            </clipPath>
<clipPath id="terminal-2259777473-line-10">
    <rect x="0" y="171.045" width="720" height="17.1742" />
            </clipPath>
<clipPath id="terminal-2259777473-line-11">
    <rect x="0" y="188.045" width="720" height="17.1742" />
            </clipPath>
<clipPath id="terminal-2259777473-line-12">
    <rect x="0" y="205.045" width="720" height="17.1742" />
            </clipPath>
<clipPath id="terminal-2259777473-line-13">
    <rect x="0" y="222.045" width="720" height="17.1742" />
            </clipPath>
<clipPath id="terminal-2259777473-line-14">
    <rect x="0" y="239.045" width="720" height="17.1742" />
            </clipPath>
<clipPath id="terminal-2259777473-line-15">
    <rect x="0" y="256.045" width="720" height="17.1742" />
            </clipPath>
<clipPath id="terminal-2259777473-line-16">
    <rect x="0" y="273.045" width="720" height="17.1742" />
            </clipPath>
<clipPath id="terminal-2259777473-line-17">
    <rect x="0" y="290.045" width="720" height="17.1742" />
            </clipPath>
<clipPath id="terminal-2259777473-line-18">
    <rect x="0" y="307.045" width="720" height="17.1742" />
            </clipPath>
<clipPath id="terminal-2259777473-line-19">
    <rect x="0" y="324.045" width="720" height="17.1742" />
            </clipPath>
<clipPath id="terminal-2259777473-line-20">
    <rect x="0" y="341.045" width="720" height="17.1742" />
            </clipPath>
<clipPath id="terminal-2259777473-line-21">
    <rect x="0" y="358.045" width="720" height="17.1742" />
            </clipPath>
<clipPath id="terminal-2259777473-line-22">
    <rect x="0" y="375.045" width="720" height="17.1742" />
            </clipPath>
<clipPath id="terminal-2259777473-line-23">
    <rect x="0" y="392.045" width="720" height="17.1742" />
            </clipPath>
<clipPath id="terminal-2259777473-line-24">
    <rect x="0" y="409.045" width="720" height="17.1742" />
            </clipPath>
<clipPath id="terminal-2259777473-line-25">
    <rect x="0" y="426.045" width="720" height="17.1742" />
            </clipPath>
<clipPath id="terminal-2259777473-line-26">
    <rect x="0" y="443.045" width="720" height="17.1742" />
            </clipPath>
<clipPath id="terminal-2259777473-line-27">
    <rect x="0" y="460.045" width="720" height="17.1742" />
            </clipPath>
<clipPath id="terminal-2259777473-line-28">
    <rect x="0" y="477.045" width="720" height="17.1742" />
            </clipPath>
    </defs>

    <g clip-path="url(#terminal-2259777473-clip-terminal)">
    <rect fill="#14110c" x="0" y="1.04508" width="720" height="17.1742" shape-rendering="crispEdges" /><rect fill="#14110c" x="0" y="18.0451" width="8" height="17.1742" shape-rendering="crispEdges" /><rect fill="#14110c" x="8" y="18.0451" width="704" height="17.1742" shape-rendering="crispEdges" /><rect fill="#14110c" x="712" y="18.0451" width="8" height="17.1742" shape-rendering="crispEdges" /><rect fill="#14110c" x="0" y="35.0451" width="8" height="17.1742" shape-rendering="crispEdges" /><rect fill="#14110c" x="8" y="35.0451" width="8" height="17.1742" shape-rendering="crispEdges" /><rect fill="#14110c" x="16" y="35.0451" width="16" height="17.1742" shape-rendering="crispEdges" /><rect fill="#14110c" x="32" y="35.0451" width="16" height="17.1742" shape-rendering="crispEdges" /><rect fill="#14110c" x="48" y="35.0451" width="600" height="17.1742" shape-rendering="crispEdges" /><rect fill="#14110c" x="648" y="35.0451" width="56" height="17.1742" shape-rendering="crispEdges" /><rect fill="#14110c" x="704" y="35.0451" width="8" height="17.1742" shape-rendering="crispEdges" /><rect fill="#14110c" x="712" y="35.0451" width="8" height="17.1742" shape-rendering="crispEdges" /><rect fill="#14110c" x="0" y="52.0451" width="8" height="17.1742" shape-rendering="crispEdges" /><rect fill="#14110c" x="8" y="52.0451" width="8" height="17.1742" shape-rendering="crispEdges" /><rect fill="#14110c" x="16" y="52.0451" width="32" height="17.1742" shape-rendering="crispEdges" /><rect fill="#14110c" x="48" y="52.0451" width="48" height="17.1742" shape-rendering="crispEdges" /><rect fill="#14110c" x="96" y="52.0451" width="608" height="17.1742" shape-rendering="crispEdges" /><rect fill="#14110c" x="704" y="52.0451" width="8" height="17.1742" shape-rendering="crispEdges" /><rect fill="#14110c" x="712" y="52.0451" width="8" height="17.1742" shape-rendering="crispEdges" /><rect fill="#14110c" x="0" y="69.0451" width="8" height="17.1742" shape-rendering="crispEdges" /><rect fill="#14110c" x="8" y="69.0451" width="8" height="17.1742" shape-rendering="crispEdges" /><rect fill="#14110c" x="16" y="69.0451" width="32" height="17.1742" shape-rendering="crispEdges" /><rect fill="#14110c" x="48" y="69.0451" width="520" height="17.1742" shape-rendering="crispEdges" /><rect fill="#14110c" x="568" y="69.0451" width="136" height="17.1742" shape-rendering="crispEdges" /><rect fill="#14110c" x="704" y="69.0451" width="8" height="17.1742" shape-rendering="crispEdges" /><rect fill="#14110c" x="712" y="69.0451" width="8" height="17.1742" shape-rendering="crispEdges" /><rect fill="#14110c" x="0" y="86.0451" width="8" height="17.1742" shape-rendering="crispEdges" /><rect fill="#14110c" x="8" y="86.0451" width="8" height="17.1742" shape-rendering="crispEdges" /><rect fill="#14110c" x="16" y="86.0451" width="32" height="17.1742" shape-rendering="crispEdges" /><rect fill="#14110c" x="48" y="86.0451" width="360" height="17.1742" shape-rendering="crispEdges" /><rect fill="#14110c" x="408" y="86.0451" width="296" height="17.1742" shape-rendering="crispEdges" /><rect fill="#14110c" x="704" y="86.0451" width="8" height="17.1742" shape-rendering="crispEdges" /><rect fill="#14110c" x="712" y="86.0451" width="8" height="17.1742" shape-rendering="crispEdges" /><rect fill="#14110c" x="0" y="103.045" width="8" height="17.1742" shape-rendering="crispEdges" /><rect fill="#14110c" x="8" y="103.045" width="8" height="17.1742" shape-rendering="crispEdges" /><rect fill="#14110c" x="16" y="103.045" width="32" height="17.1742" shape-rendering="crispEdges" /><rect fill="#14110c" x="48" y="103.045" width="504" height="17.1742" shape-rendering="crispEdges" /><rect fill="#14110c" x="552" y="103.045" width="152" height="17.1742" shape-rendering="crispEdges" /><rect fill="#14110c" x="704" y="103.045" width="8" height="17.1742" shape-rendering="crispEdges" /><rect fill="#14110c" x="712" y="103.045" width="8" height="17.1742" shape-rendering="crispEdges" /><rect fill="#14110c" x="0" y="120.045" width="8" height="17.1742" shape-rendering="crispEdges" /><rect fill="#14110c" x="8" y="120.045" width="8" height="17.1742" shape-rendering="crispEdges" /><rect fill="#14110c" x="16" y="120.045" width="32" height="17.1742" shape-rendering="crispEdges" /><rect fill="#14110c" x="48" y="120.045" width="408" height="17.1742" shape-rendering="crispEdges" /><rect fill="#14110c" x="456" y="120.045" width="248" height="17.1742" shape-rendering="crispEdges" /><rect fill="#14110c" x="704" y="120.045" width="8" height="17.1742" shape-rendering="crispEdges" /><rect fill="#14110c" x="712" y="120.045" width="8" height="17.1742" shape-rendering="crispEdges" /><rect fill="#14110c" x="0" y="137.045" width="8" height="17.1742" shape-rendering="crispEdges" /><rect fill="#14110c" x="8" y="137.045" width="8" height="17.1742" shape-rendering="crispEdges" /><rect fill="#14110c" x="16" y="137.045" width="32" height="17.1742" shape-rendering="crispEdges" /><rect fill="#14110c" x="48" y="137.045" width="456" height="17.1742" shape-rendering="crispEdges" /><rect fill="#14110c" x="504" y="137.045" width="200" height="17.1742" shape-rendering="crispEdges" /><rect fill="#14110c" x="704" y="137.045" width="8" height="17.1742" shape-rendering="crispEdges" /><rect fill="#14110c" x="712" y="137.045" width="8" height="17.1742" shape-rendering="crispEdges" /><rect fill="#14110c" x="0" y="154.045" width="8" height="17.1742" shape-rendering="crispEdges" /><rect fill="#14110c" x="8" y="154.045" width="8" height="17.1742" shape-rendering="crispEdges" /><rect fill="#14110c" x="16" y="154.045" width="696" height="17.1742" shape-rendering="crispEdges" /><rect fill="#14110c" x="712" y="154.045" width="8" height="17.1742" shape-rendering="crispEdges" /><rect fill="#14110c" x="0" y="171.045" width="8" height="17.1742" shape-rendering="crispEdges" /><rect fill="#14110c" x="8" y="171.045" width="8" height="17.1742" shape-rendering="crispEdges" /><rect fill="#14110c" x="16" y="171.045" width="696" height="17.1742" shape-rendering="crispEdges" /><rect fill="#14110c" x="712" y="171.045" width="8" height="17.1742" shape-rendering="crispEdges" /><rect fill="#14110c" x="0" y="188.045" width="8" height="17.1742" shape-rendering="crispEdges" /><rect fill="#14110c" x="8" y="188.045" width="8" height="17.1742" shape-rendering="crispEdges" /><rect fill="#14110c" x="16" y="188.045" width="696" height="17.1742" shape-rendering="crispEdges" /><rect fill="#14110c" x="712" y="188.045" width="8" height="17.1742" shape-rendering="crispEdges" /><rect fill="#14110c" x="0" y="205.045" width="8" height="17.1742" shape-rendering="crispEdges" /><rect fill="#14110c" x="8" y="205.045" width="8" height="17.1742" shape-rendering="crispEdges" /><rect fill="#14110c" x="16" y="205.045" width="696" height="17.1742" shape-rendering="crispEdges" /><rect fill="#14110c" x="712" y="205.045" width="8" height="17.1742" shape-rendering="crispEdges" /><rect fill="#14110c" x="0" y="222.045" width="8" height="17.1742" shape-rendering="crispEdges" /><rect fill="#14110c" x="8" y="222.045" width="8" height="17.1742" shape-rendering="crispEdges" /><rect fill="#14110c" x="16" y="222.045" width="696" height="17.1742" shape-rendering="crispEdges" /><rect fill="#14110c" x="712" y="222.045" width="8" height="17.1742" shape-rendering="crispEdges" /><rect fill="#14110c" x="0" y="239.045" width="8" height="17.1742" shape-rendering="crispEdges" /><rect fill="#14110c" x="8" y="239.045" width="8" height="17.1742" shape-rendering="crispEdges" /><rect fill="#14110c" x="16" y="239.045" width="696" height="17.1742" shape-rendering="crispEdges" /><rect fill="#14110c" x="712" y="239.045" width="8" height="17.1742" shape-rendering="crispEdges" /><rect fill="#14110c" x="0" y="256.045" width="8" height="17.1742" shape-rendering="crispEdges" /><rect fill="#14110c" x="8" y="256.045" width="8" height="17.1742" shape-rendering="crispEdges" /><rect fill="#14110c" x="16" y="256.045" width="696" height="17.1742" shape-rendering="crispEdges" /><rect fill="#14110c" x="712" y="256.045" width="8" height="17.1742" shape-rendering="crispEdges" /><rect fill="#14110c" x="0" y="273.045" width="8" height="17.1742" shape-rendering="crispEdges" /><rect fill="#14110c" x="8" y="273.045" width="8" height="17.1742" shape-rendering="crispEdges" /><rect fill="#14110c" x="16" y="273.045" width="696" height="17.1742" shape-rendering="crispEdges" /><rect fill="#14110c" x="712" y="273.045" width="8" height="17.1742" shape-rendering="crispEdges" /><rect fill="#14110c" x="0" y="290.045" width="8" height="17.1742" shape-rendering="crispEdges" /><rect fill="#14110c" x="8" y="290.045" width="8" height="17.1742" shape-rendering="crispEdges" /><rect fill="#14110c" x="16" y="290.045" width="696" height="17.1742" shape-rendering="crispEdges" /><rect fill="#14110c" x="712" y="290.045" width="8" height="17.1742" shape-rendering="crispEdges" /><rect fill="#14110c" x="0" y="307.045" width="8" height="17.1742" shape-rendering="crispEdges" /><rect fill="#14110c" x="8" y="307.045" width="8" height="17.1742" shape-rendering="crispEdges" /><rect fill="#14110c" x="16" y="307.045" width="696" height="17.1742" shape-rendering="crispEdges" /><rect fill="#14110c" x="712" y="307.045" width="8" height="17.1742" shape-rendering="crispEdges" /><rect fill="#14110c" x="0" y="324.045" width="8" height="17.1742" shape-rendering="crispEdges" /><rect fill="#14110c" x="8" y="324.045" width="8" height="17.1742" shape-rendering="crispEdges" /><rect fill="#14110c" x="16" y="324.045" width="696" height="17.1742" shape-rendering="crispEdges" /><rect fill="#14110c" x="712" y="324.045" width="8" height="17.1742" shape-rendering="crispEdges" /><rect fill="#14110c" x="0" y="341.045" width="8" height="17.1742" shape-rendering="crispEdges" /><rect fill="#14110c" x="8" y="341.045" width="8" height="17.1742" shape-rendering="crispEdges" /><rect fill="#14110c" x="16" y="341.045" width="696" height="17.1742" shape-rendering="crispEdges" /><rect fill="#14110c" x="712" y="341.045" width="8" height="17.1742" shape-rendering="crispEdges" /><rect fill="#14110c" x="0" y="358.045" width="8" height="17.1742" shape-rendering="crispEdges" /><rect fill="#14110c" x="8" y="358.045" width="8" height="17.1742" shape-rendering="crispEdges" /><rect fill="#14110c" x="16" y="358.045" width="696" height="17.1742" shape-rendering="crispEdges" /><rect fill="#14110c" x="712" y="358.045" width="8" height="17.1742" shape-rendering="crispEdges" /><rect fill="#14110c" x="0" y="375.045" width="8" height="17.1742" shape-rendering="crispEdges" /><rect fill="#14110c" x="8" y="375.045" width="8" height="17.1742" shape-rendering="crispEdges" /><rect fill="#14110c" x="16" y="375.045" width="696" height="17.1742" shape-rendering="crispEdges" /><rect fill="#14110c" x="712" y="375.045" width="8" height="17.1742" shape-rendering="crispEdges" /><rect fill="#14110c" x="0" y="392.045" width="8" height="17.1742" shape-rendering="crispEdges" /><rect fill="#14110c" x="8" y="392.045" width="704" height="17.1742" shape-rendering="crispEdges" /><rect fill="#14110c" x="712" y="392.045" width="8" height="17.1742" shape-rendering="crispEdges" /><rect fill="#14110c" x="0" y="409.045" width="8" height="17.1742" shape-rendering="crispEdges" /><rect fill="#1e1a14" x="8" y="409.045" width="704" height="17.1742" shape-rendering="crispEdges" /><rect fill="#14110c" x="712" y="409.045" width="8" height="17.1742" shape-rendering="crispEdges" /><rect fill="#14110c" x="0" y="426.045" width="8" height="17.1742" shape-rendering="crispEdges" /><rect fill="#1e1a14" x="8" y="426.045" width="8" height="17.1742" shape-rendering="crispEdges" /><rect fill="#1e1a14" x="16" y="426.045" width="8" height="17.1742" shape-rendering="crispEdges" /><rect fill="#1e1a14" x="24" y="426.045" width="8" height="17.1742" shape-rendering="crispEdges" /><rect fill="#1e1a14" x="32" y="426.045" width="8" height="17.1742" shape-rendering="crispEdges" /><rect fill="#e9e5db" x="40" y="426.045" width="8" height="17.1742" shape-rendering="crispEdges" /><rect fill="#1e1a14" x="48" y="426.045" width="184" height="17.1742" shape-rendering="crispEdges" /><rect fill="#1e1a14" x="232" y="426.045" width="464" height="17.1742" shape-rendering="crispEdges" /><rect fill="#1e1a14" x="696" y="426.045" width="8" height="17.1742" shape-rendering="crispEdges" /><rect fill="#1e1a14" x="704" y="426.045" width="8" height="17.1742" shape-rendering="crispEdges" /><rect fill="#14110c" x="712" y="426.045" width="8" height="17.1742" shape-rendering="crispEdges" /><rect fill="#14110c" x="0" y="443.045" width="8" height="17.1742" shape-rendering="crispEdges" /><rect fill="#1e1a14" x="8" y="443.045" width="8" height="17.1742" shape-rendering="crispEdges" /><rect fill="#1e1a14" x="16" y="443.045" width="688" height="17.1742" shape-rendering="crispEdges" /><rect fill="#1e1a14" x="704" y="443.045" width="8" height="17.1742" shape-rendering="crispEdges" /><rect fill="#14110c" x="712" y="443.045" width="8" height="17.1742" shape-rendering="crispEdges" /><rect fill="#14110c" x="0" y="460.045" width="8" height="17.1742" shape-rendering="crispEdges" /><rect fill="#1e1a14" x="8" y="460.045" width="8" height="17.1742" shape-rendering="crispEdges" /><rect fill="#1e1a14" x="16" y="460.045" width="16" height="17.1742" shape-rendering="crispEdges" /><rect fill="#1e1a14" x="32" y="460.045" width="80" height="17.1742" shape-rendering="crispEdges" /><rect fill="#1e1a14" x="112" y="460.045" width="24" height="17.1742" shape-rendering="crispEdges" /><rect fill="#1e1a14" x="136" y="460.045" width="16" height="17.1742" shape-rendering="crispEdges" /><rect fill="#1e1a14" x="152" y="460.045" width="176" height="17.1742" shape-rendering="crispEdges" /><rect fill="#1e1a14" x="328" y="460.045" width="368" height="17.1742" shape-rendering="crispEdges" /><rect fill="#1e1a14" x="696" y="460.045" width="8" height="17.1742" shape-rendering="crispEdges" /><rect fill="#1e1a14" x="704" y="460.045" width="8" height="17.1742" shape-rendering="crispEdges" /><rect fill="#14110c" x="712" y="460.045" width="8" height="17.1742" shape-rendering="crispEdges" /><rect fill="#14110c" x="0" y="477.045" width="8" height="17.1742" shape-rendering="crispEdges" /><rect fill="#1e1a14" x="8" y="477.045" width="704" height="17.1742" shape-rendering="crispEdges" /><rect fill="#14110c" x="712" y="477.045" width="8" height="17.1742" shape-rendering="crispEdges" /><rect fill="#14110c" x="0" y="494.045" width="720" height="17.1742" shape-rendering="crispEdges" />
    <g class="terminal-2259777473-matrix">
    <text class="terminal-2259777473-r1" x="720" y="13.9344" clip-path="url(#terminal-2259777473-line-0)" xml:space="preserve"><tspan x="720">
</tspan></text><text class="terminal-2259777473-r1" x="720" y="30.9344" clip-path="url(#terminal-2259777473-line-1)" xml:space="preserve"><tspan x="720">
</tspan></text><text class="terminal-2259777473-r2" x="32" y="47.9344" clip-path="url(#terminal-2259777473-line-2)" xml:space="preserve"><tspan x="32">·</tspan><tspan x="40"> </tspan></text><text class="terminal-2259777473-r2" x="48" y="47.9344" clip-path="url(#terminal-2259777473-line-2)" xml:space="preserve"><tspan x="48">N</tspan><tspan x="56">o</tspan><tspan x="64"> </tspan><tspan x="72">c</tspan><tspan x="80">r</tspan><tspan x="88">e</tspan><tspan x="96">d</tspan><tspan x="104">e</tspan><tspan x="112">n</tspan><tspan x="120">t</tspan><tspan x="128">i</tspan><tspan x="136">a</tspan><tspan x="144">l</tspan><tspan x="152">s</tspan><tspan x="160"> </tspan><tspan x="168">s</tspan><tspan x="176">t</tspan><tspan x="184">o</tspan><tspan x="192">r</tspan><tspan x="200">e</tspan><tspan x="208">d</tspan><tspan x="216"> </tspan><tspan x="224">f</tspan><tspan x="232">o</tspan><tspan x="240">r</tspan><tspan x="248"> </tspan><tspan x="256">t</tspan><tspan x="264">h</tspan><tspan x="272">i</tspan><tspan x="280">s</tspan><tspan x="288"> </tspan><tspan x="296">s</tspan><tspan x="304">e</tspan><tspan x="312">s</tspan><tspan x="320">s</tspan><tspan x="328">i</tspan><tspan x="336">o</tspan><tspan x="344">n</tspan><tspan x="352">.</tspan><tspan x="360"> </tspan><tspan x="368">U</tspan><tspan x="376">s</tspan><tspan x="384">a</tspan><tspan x="392">g</tspan><tspan x="400">e</tspan><tspan x="408">:</tspan><tspan x="416"> </tspan><tspan x="424">/</tspan><tspan x="432">c</tspan><tspan x="440">r</tspan><tspan x="448">e</tspan><tspan x="456">d</tspan><tspan x="464">e</tspan><tspan x="472">n</tspan><tspan x="480">t</tspan><tspan x="488">i</tspan><tspan x="496">a</tspan><tspan x="504">l</tspan><tspan x="512"> </tspan><tspan x="520">&lt;</tspan><tspan x="528">s</tspan><tspan x="536">p</tspan><tspan x="544">a</tspan><tspan x="552">c</tspan><tspan x="560">e</tspan><tspan x="568">&gt;</tspan><tspan x="576"> </tspan><tspan x="584">t</tspan><tspan x="592">h</tspan><tspan x="600">e</tspan><tspan x="608">n</tspan><tspan x="616"> </tspan><tspan x="624">t</tspan><tspan x="632">h</tspan><tspan x="640">e</tspan></text><text class="terminal-2259777473-r1" x="720" y="47.9344" clip-path="url(#terminal-2259777473-line-2)" xml:space="preserve"><tspan x="720">
</tspan></text><text class="terminal-2259777473-r2" x="48" y="64.9344" clip-path="url(#terminal-2259777473-line-3)" xml:space="preserve"><tspan x="48">s</tspan><tspan x="56">e</tspan><tspan x="64">c</tspan><tspan x="72">r</tspan><tspan x="80">e</tspan><tspan x="88">t</tspan></text><text class="terminal-2259777473-r1" x="720" y="64.9344" clip-path="url(#terminal-2259777473-line-3)" xml:space="preserve"><tspan x="720">
</tspan></text><text class="terminal-2259777473-r2" x="48" y="81.9344" clip-path="url(#terminal-2259777473-line-4)" xml:space="preserve"><tspan x="48"> </tspan><tspan x="56"> </tspan><tspan x="64"> </tspan><tspan x="72"> </tspan><tspan x="80"> </tspan><tspan x="88"> </tspan><tspan x="96"> </tspan><tspan x="104">E</tspan><tspan x="112">n</tspan><tspan x="120">t</tspan><tspan x="128">e</tspan><tspan x="136">r</tspan><tspan x="144"> </tspan><tspan x="152">c</tspan><tspan x="160">h</tspan><tspan x="168">i</tspan><tspan x="176">p</tspan><tspan x="184">s</tspan><tspan x="192"> </tspan><tspan x="200">i</tspan><tspan x="208">t</tspan><tspan x="216">,</tspan><tspan x="224"> </tspan><tspan x="232">E</tspan><tspan x="240">s</tspan><tspan x="248">c</tspan><tspan x="256"> </tspan><tspan x="264">c</tspan><tspan x="272">a</tspan><tspan x="280">n</tspan><tspan x="288">c</tspan><tspan x="296">e</tspan><tspan x="304">l</tspan><tspan x="312">s</tspan><tspan x="320"> </tspan><tspan x="328"> </tspan><tspan x="336"> </tspan><tspan x="344"> </tspan><tspan x="352"> </tspan><tspan x="360">#</tspan><tspan x="368"> </tspan><tspan x="376">i</tspan><tspan x="384">t</tspan><tspan x="392"> </tspan><tspan x="400">n</tspan><tspan x="408">e</tspan><tspan x="416">v</tspan><tspan x="424">e</tspan><tspan x="432">r</tspan><tspan x="440"> </tspan><tspan x="448">e</tspan><tspan x="456">n</tspan><tspan x="464">t</tspan><tspan x="472">e</tspan><tspan x="480">r</tspan><tspan x="488">s</tspan><tspan x="496"> </tspan><tspan x="504">t</tspan><tspan x="512">h</tspan><tspan x="520">e</tspan><tspan x="528"> </tspan><tspan x="536">l</tspan><tspan x="544">i</tspan><tspan x="552">n</tspan><tspan x="560">e</tspan></text><text class="terminal-2259777473-r1" x="720" y="81.9344" clip-path="url(#terminal-2259777473-line-4)" xml:space="preserve"><tspan x="720">
</tspan></text><text class="terminal-2259777473-r2" x="48" y="98.9344" clip-path="url(#terminal-2259777473-line-5)" xml:space="preserve"><tspan x="48"> </tspan><tspan x="56"> </tspan><tspan x="64"> </tspan><tspan x="72"> </tspan><tspan x="80"> </tspan><tspan x="88"> </tspan><tspan x="96"> </tspan><tspan x="104">/</tspan><tspan x="112">c</tspan><tspan x="120">r</tspan><tspan x="128">e</tspan><tspan x="136">d</tspan><tspan x="144">e</tspan><tspan x="152">n</tspan><tspan x="160">t</tspan><tspan x="168">i</tspan><tspan x="176">a</tspan><tspan x="184">l</tspan><tspan x="192"> </tspan><tspan x="200"> </tspan><tspan x="208"> </tspan><tspan x="216"> </tspan><tspan x="224"> </tspan><tspan x="232"> </tspan><tspan x="240"> </tspan><tspan x="248"> </tspan><tspan x="256"> </tspan><tspan x="264"> </tspan><tspan x="272"> </tspan><tspan x="280"> </tspan><tspan x="288"> </tspan><tspan x="296"> </tspan><tspan x="304"> </tspan><tspan x="312"> </tspan><tspan x="320"> </tspan><tspan x="328"> </tspan><tspan x="336"> </tspan><tspan x="344"> </tspan><tspan x="352"> </tspan><tspan x="360">#</tspan><tspan x="368"> </tspan><tspan x="376">l</tspan><tspan x="384">i</tspan><tspan x="392">s</tspan><tspan x="400">t</tspan></text><text class="terminal-2259777473-r1" x="720" y="98.9344" clip-path="url(#terminal-2259777473-line-5)" xml:space="preserve"><tspan x="720">
</tspan></text><text class="terminal-2259777473-r2" x="48" y="115.934" clip-path="url(#terminal-2259777473-line-6)" xml:space="preserve"><tspan x="48"> </tspan><tspan x="56"> </tspan><tspan x="64"> </tspan><tspan x="72"> </tspan><tspan x="80"> </tspan><tspan x="88"> </tspan><tspan x="96"> </tspan><tspan x="104">/</tspan><tspan x="112">c</tspan><tspan x="120">r</tspan><tspan x="128">e</tspan><tspan x="136">d</tspan><tspan x="144">e</tspan><tspan x="152">n</tspan><tspan x="160">t</tspan><tspan x="168">i</tspan><tspan x="176">a</tspan><tspan x="184">l</tspan><tspan x="192"> </tspan><tspan x="200">-</tspan><tspan x="208">-</tspan><tspan x="216">p</tspan><tspan x="224">e</tspan><tspan x="232">r</tspan><tspan x="240">s</tspan><tspan x="248">i</tspan><tspan x="256">s</tspan><tspan x="264">t</tspan><tspan x="272"> </tspan><tspan x="280">&lt;</tspan><tspan x="288">K</tspan><tspan x="296">E</tspan><tspan x="304">Y</tspan><tspan x="312">&gt;</tspan><tspan x="320"> </tspan><tspan x="328"> </tspan><tspan x="336"> </tspan><tspan x="344"> </tspan><tspan x="352"> </tspan><tspan x="360">#</tspan><tspan x="368"> </tspan><tspan x="376">a</tspan><tspan x="384">l</tspan><tspan x="392">s</tspan><tspan x="400">o</tspan><tspan x="408"> </tspan><tspan x="416">s</tspan><tspan x="424">a</tspan><tspan x="432">v</tspan><tspan x="440">e</tspan><tspan x="448"> </tspan><tspan x="456">i</tspan><tspan x="464">t</tspan><tspan x="472"> </tspan><tspan x="480">l</tspan><tspan x="488">o</tspan><tspan x="496">n</tspan><tspan x="504">g</tspan><tspan x="512">-</tspan><tspan x="520">t</tspan><tspan x="528">e</tspan><tspan x="536">r</tspan><tspan x="544">m</tspan></text><text class="terminal-2259777473-r1" x="720" y="115.934" clip-path="url(#terminal-2259777473-line-6)" xml:space="preserve"><tspan x="720">
</tspan></text><text class="terminal-2259777473-r2" x="48" y="132.934" clip-path="url(#terminal-2259777473-line-7)" xml:space="preserve"><tspan x="48"> </tspan><tspan x="56"> </tspan><tspan x="64"> </tspan><tspan x="72"> </tspan><tspan x="80"> </tspan><tspan x="88"> </tspan><tspan x="96"> </tspan><tspan x="104">/</tspan><tspan x="112">c</tspan><tspan x="120">r</tspan><tspan x="128">e</tspan><tspan x="136">d</tspan><tspan x="144">e</tspan><tspan x="152">n</tspan><tspan x="160">t</tspan><tspan x="168">i</tspan><tspan x="176">a</tspan><tspan x="184">l</tspan><tspan x="192"> </tspan><tspan x="200">-</tspan><tspan x="208">-</tspan><tspan x="216">f</tspan><tspan x="224">o</tspan><tspan x="232">r</tspan><tspan x="240">g</tspan><tspan x="248">e</tspan><tspan x="256">t</tspan><tspan x="264"> </tspan><tspan x="272">&lt;</tspan><tspan x="280">K</tspan><tspan x="288">E</tspan><tspan x="296">Y</tspan><tspan x="304">&gt;</tspan><tspan x="312"> </tspan><tspan x="320"> </tspan><tspan x="328"> </tspan><tspan x="336"> </tspan><tspan x="344"> </tspan><tspan x="352"> </tspan><tspan x="360">#</tspan><tspan x="368"> </tspan><tspan x="376">f</tspan><tspan x="384">o</tspan><tspan x="392">r</tspan><tspan x="400">g</tspan><tspan x="408">e</tspan><tspan x="416">t</tspan><tspan x="424"> </tspan><tspan x="432">o</tspan><tspan x="440">n</tspan><tspan x="448">e</tspan></text><text class="terminal-2259777473-r1" x="720" y="132.934" clip-path="url(#terminal-2259777473-line-7)" xml:space="preserve"><tspan x="720">
</tspan></text><text class="terminal-2259777473-r2" x="48" y="149.934" clip-path="url(#terminal-2259777473-line-8)" xml:space="preserve"><tspan x="48"> </tspan><tspan x="56"> </tspan><tspan x="64"> </tspan><tspan x="72"> </tspan><tspan x="80"> </tspan><tspan x="88"> </tspan><tspan x="96"> </tspan><tspan x="104">/</tspan><tspan x="112">c</tspan><tspan x="120">r</tspan><tspan x="128">e</tspan><tspan x="136">d</tspan><tspan x="144">e</tspan><tspan x="152">n</tspan><tspan x="160">t</tspan><tspan x="168">i</tspan><tspan x="176">a</tspan><tspan x="184">l</tspan><tspan x="192"> </tspan><tspan x="200">-</tspan><tspan x="208">-</tspan><tspan x="216">f</tspan><tspan x="224">o</tspan><tspan x="232">r</tspan><tspan x="240">g</tspan><tspan x="248">e</tspan><tspan x="256">t</tspan><tspan x="264">-</tspan><tspan x="272">a</tspan><tspan x="280">l</tspan><tspan x="288">l</tspan><tspan x="296"> </tspan><tspan x="304"> </tspan><tspan x="312"> </tspan><tspan x="320"> </tspan><tspan x="328"> </tspan><tspan x="336"> </tspan><tspan x="344"> </tspan><tspan x="352"> </tspan><tspan x="360">#</tspan><tspan x="368"> </tspan><tspan x="376">f</tspan><tspan x="384">o</tspan><tspan x="392">r</tspan><tspan x="400">g</tspan><tspan x="408">e</tspan><tspan x="416">t</tspan><tspan x="424"> </tspan><tspan x="432">e</tspan><tspan x="440">v</tspan><tspan x="448">e</tspan><tspan x="456">r</tspan><tspan x="464">y</tspan><tspan x="472"> </tspan><tspan x="480">o</tspan><tspan x="488">n</tspan><tspan x="496">e</tspan></text><text class="terminal-2259777473-r1" x="720" y="149.934" clip-path="url(#terminal-2259777473-line-8)" xml:space="preserve"><tspan x="720">
</tspan></text><text class="terminal-2259777473-r1" x="720" y="166.934" clip-path="url(#terminal-2259777473-line-9)" xml:space="preserve"><tspan x="720">
</tspan></text><text class="terminal-2259777473-r1" x="720" y="183.934" clip-path="url(#terminal-2259777473-line-10)" xml:space="preserve"><tspan x="720">
</tspan></text><text class="terminal-2259777473-r1" x="720" y="200.934" clip-path="url(#terminal-2259777473-line-11)" xml:space="preserve"><tspan x="720">
</tspan></text><text class="terminal-2259777473-r1" x="720" y="217.934" clip-path="url(#terminal-2259777473-line-12)" xml:space="preserve"><tspan x="720">
</tspan></text><text class="terminal-2259777473-r1" x="720" y="234.934" clip-path="url(#terminal-2259777473-line-13)" xml:space="preserve"><tspan x="720">
</tspan></text><text class="terminal-2259777473-r1" x="720" y="251.934" clip-path="url(#terminal-2259777473-line-14)" xml:space="preserve"><tspan x="720">
</tspan></text><text class="terminal-2259777473-r1" x="720" y="268.934" clip-path="url(#terminal-2259777473-line-15)" xml:space="preserve"><tspan x="720">
</tspan></text><text class="terminal-2259777473-r1" x="720" y="285.934" clip-path="url(#terminal-2259777473-line-16)" xml:space="preserve"><tspan x="720">
</tspan></text><text class="terminal-2259777473-r1" x="720" y="302.934" clip-path="url(#terminal-2259777473-line-17)" xml:space="preserve"><tspan x="720">
</tspan></text><text class="terminal-2259777473-r1" x="720" y="319.934" clip-path="url(#terminal-2259777473-line-18)" xml:space="preserve"><tspan x="720">
</tspan></text><text class="terminal-2259777473-r1" x="720" y="336.934" clip-path="url(#terminal-2259777473-line-19)" xml:space="preserve"><tspan x="720">
</tspan></text><text class="terminal-2259777473-r1" x="720" y="353.934" clip-path="url(#terminal-2259777473-line-20)" xml:space="preserve"><tspan x="720">
</tspan></text><text class="terminal-2259777473-r1" x="720" y="370.934" clip-path="url(#terminal-2259777473-line-21)" xml:space="preserve"><tspan x="720">
</tspan></text><text class="terminal-2259777473-r1" x="720" y="387.934" clip-path="url(#terminal-2259777473-line-22)" xml:space="preserve"><tspan x="720">
</tspan></text><text class="terminal-2259777473-r1" x="720" y="404.934" clip-path="url(#terminal-2259777473-line-23)" xml:space="preserve"><tspan x="720">
</tspan></text><text class="terminal-2259777473-r1" x="720" y="421.934" clip-path="url(#terminal-2259777473-line-24)" xml:space="preserve"><tspan x="720">
</tspan></text><text class="terminal-2259777473-r3" x="16" y="438.934" clip-path="url(#terminal-2259777473-line-25)" xml:space="preserve"><tspan x="16">❯</tspan></text><text class="terminal-2259777473-r2" x="48" y="438.934" clip-path="url(#terminal-2259777473-line-25)" xml:space="preserve"><tspan x="48">M</tspan><tspan x="56">e</tspan><tspan x="64">s</tspan><tspan x="72">s</tspan><tspan x="80">a</tspan><tspan x="88">g</tspan><tspan x="96">e</tspan><tspan x="104"> </tspan><tspan x="112">L</tspan><tspan x="120">o</tspan><tspan x="128">c</tspan><tspan x="136">a</tspan><tspan x="144">l</tspan><tspan x="152"> </tspan><tspan x="160">O</tspan><tspan x="168">p</tspan><tspan x="176">e</tspan><tspan x="184">r</tspan><tspan x="192">a</tspan><tspan x="200">t</tspan><tspan x="208">o</tspan><tspan x="216">r</tspan><tspan x="224">…</tspan></text><text class="terminal-2259777473-r1" x="720" y="438.934" clip-path="url(#terminal-2259777473-line-25)" xml:space="preserve"><tspan x="720">
</tspan></text><text class="terminal-2259777473-r1" x="720" y="455.934" clip-path="url(#terminal-2259777473-line-26)" xml:space="preserve"><tspan x="720">
</tspan></text><text class="terminal-2259777473-r2" x="16" y="472.934" clip-path="url(#terminal-2259777473-line-27)" xml:space="preserve"><tspan x="16">◆</tspan><tspan x="24"> </tspan></text><text class="terminal-2259777473-r3" x="32" y="472.934" clip-path="url(#terminal-2259777473-line-27)" xml:space="preserve"><tspan x="32">t</tspan><tspan x="40">e</tspan><tspan x="48">s</tspan><tspan x="56">t</tspan><tspan x="64">/</tspan><tspan x="72">m</tspan><tspan x="80">o</tspan><tspan x="88">d</tspan><tspan x="96">e</tspan><tspan x="104">l</tspan></text><text class="terminal-2259777473-r5" x="112" y="472.934" clip-path="url(#terminal-2259777473-line-27)" xml:space="preserve"><tspan x="112"> </tspan><tspan x="120">›</tspan><tspan x="128"> </tspan></text><text class="terminal-2259777473-r2" x="136" y="472.934" clip-path="url(#terminal-2259777473-line-27)" xml:space="preserve"><tspan x="136">⌂</tspan><tspan x="144"> </tspan></text><text class="terminal-2259777473-r6" x="152" y="472.934" clip-path="url(#terminal-2259777473-line-27)" xml:space="preserve"><tspan x="152">/</tspan><tspan x="160">p</tspan><tspan x="168">r</tspan><tspan x="176">i</tspan><tspan x="184">v</tspan><tspan x="192">a</tspan><tspan x="200">t</tspan><tspan x="208">e</tspan><tspan x="216">/</tspan><tspan x="224">t</tspan><tspan x="232">m</tspan><tspan x="240">p</tspan><tspan x="248">/</tspan><tspan x="256">d</tspan><tspan x="264">8</tspan><tspan x="272">9</tspan><tspan x="280">1</tspan><tspan x="288">r</tspan><tspan x="296">2</tspan><tspan x="304">/</tspan><tspan x="312">w</tspan><tspan x="320">t</tspan></text><text class="terminal-2259777473-r1" x="720" y="472.934" clip-path="url(#terminal-2259777473-line-27)" xml:space="preserve"><tspan x="720">
</tspan></text><text class="terminal-2259777473-r1" x="720" y="489.934" clip-path="url(#terminal-2259777473-line-28)" xml:space="preserve"><tspan x="720">
</tspan></text>
    </g>
    </g>
</svg>